{
.appVersion = "1056";
DisplayStrings = (
B,
R,
P,
G,
K
);
copyright = "SIL Open Font License (OFL)";
date = "2018-04-01 17:56:06 +0000";
designer = "Pietro Gregorini";
designerURL = "http://www.pietrogregorini.com/";
familyName = Aldone;
fontMaster = (
{
ascender = 800;
capHeight = 700;
descender = -200;
id = "DBDE1730-7CB6-4711-8383-3CA3AF6893BF";
userData = {
GSCornerRadius = 6;
};
weight = Light;
weightValue = 300;
xHeight = 520;
},
{
ascender = 750;
capHeight = 700;
descender = -250;
id = "644D3D1A-706E-4D36-8EE1-81638A7D248A";
userData = {
GSCornerRadius = 15;
};
weight = Bold;
weightValue = 800;
xHeight = 500;
}
);
glyphs = (
{
glyphname = A;
lastChange = "2018-04-01 13:53:20 +0000";
layers = (
{
layerId = "644D3D1A-706E-4D36-8EE1-81638A7D248A";
paths = (
{
closed = 1;
nodes = (
"197 273 OFFCURVE",
"190 266 OFFCURVE",
"190 258 CURVE SMOOTH",
"190 156 LINE SMOOTH",
"190 148 OFFCURVE",
"197 141 OFFCURVE",
"205 141 CURVE SMOOTH",
"527 141 LINE SMOOTH",
"535 141 OFFCURVE",
"542 148 OFFCURVE",
"542 156 CURVE SMOOTH",
"542 258 LINE SMOOTH",
"542 266 OFFCURVE",
"535 273 OFFCURVE",
"527 273 CURVE SMOOTH",
"205 273 LINE SMOOTH"
);
},
{
closed = 1;
nodes = (
"158 0 LINE SMOOTH",
"176 0 OFFCURVE",
"180 3 OFFCURVE",
"183 15 CURVE",
"360 537 LINE SMOOTH",
"370 567 OFFCURVE",
"369 567 OFFCURVE",
"379 537 CURVE SMOOTH",
"548 15 LINE",
"551 3 OFFCURVE",
"555 0 OFFCURVE",
"573 0 CURVE SMOOTH",
"675 0 LINE SMOOTH",
"690 0 OFFCURVE",
"693 3 OFFCURVE",
"690 15 CURVE",
"470 685 LINE",
"468 693 OFFCURVE",
"463 700 OFFCURVE",
"455 700 CURVE SMOOTH",
"286 700 LINE SMOOTH",
"278 700 OFFCURVE",
"273 693 OFFCURVE",
"271 685 CURVE",
"41 15 LINE",
"38 3 OFFCURVE",
"41 0 OFFCURVE",
"56 0 CURVE SMOOTH"
);
}
);
width = 731;
},
{
layerId = "DBDE1730-7CB6-4711-8383-3CA3AF6893BF";
paths = (
{
closed = 1;
nodes = (
"138 239 OFFCURVE",
"135 236 OFFCURVE",
"135 233 CURVE SMOOTH",
"134 203 LINE SMOOTH",
"134 200 OFFCURVE",
"137 197 OFFCURVE",
"140 197 CURVE SMOOTH",
"498 196 LINE SMOOTH",
"500 196 OFFCURVE",
"504 199 OFFCURVE",
"504 203 CURVE",
"503 232 LINE",
"503 235 OFFCURVE",
"501 238 OFFCURVE",
"498 238 CURVE SMOOTH",
"140 239 LINE SMOOTH"
);
},
{
closed = 1;
nodes = (
"76 0 LINE SMOOTH",
"79 0 OFFCURVE",
"82 1 OFFCURVE",
"83 5 CURVE",
"315 643 LINE SMOOTH",
"317 649 OFFCURVE",
"321 649 OFFCURVE",
"323 643 CURVE SMOOTH",
"555 5 LINE",
"556 1 OFFCURVE",
"559 0 OFFCURVE",
"562 0 CURVE SMOOTH",
"594 0 LINE SMOOTH",
"598 0 OFFCURVE",
"599 3 OFFCURVE",
"598 7 CURVE",
"347 696 LINE SMOOTH",
"346 699 OFFCURVE",
"343 700 OFFCURVE",
"340 700 CURVE SMOOTH",
"298 700 LINE SMOOTH",
"295 700 OFFCURVE",
"292 699 OFFCURVE",
"291 696 CURVE SMOOTH",
"40 7 LINE",
"39 3 OFFCURVE",
"40 0 OFFCURVE",
"44 0 CURVE SMOOTH"
);
}
);
width = 638;
}
);
unicode = 0041;
},
{
glyphname = B;
lastChange = "2018-04-04 19:54:27 +0000";
layers = (
{
layerId = "644D3D1A-706E-4D36-8EE1-81638A7D248A";
paths = (
{
closed = 1;
nodes = (
"60 7 OFFCURVE",
"67 0 OFFCURVE",
"75 0 CURVE SMOOTH",
"406 0 LINE SMOOTH",
"551 0 OFFCURVE",
"605 53 OFFCURVE",
"605 196 CURVE SMOOTH",
"605 283 OFFCURVE",
"555 344 OFFCURVE",
"480 348 CURVE",
"473 365 LINE",
"530 365 OFFCURVE",
"568 427 OFFCURVE",
"568 520 CURVE SMOOTH",
"568 651 OFFCURVE",
"514 700 OFFCURVE",
"369 700 CURVE SMOOTH",
"75 700 LINE SMOOTH",
"67 700 OFFCURVE",
"60 693 OFFCURVE",
"60 685 CURVE SMOOTH",
"60 15 LINE SMOOTH"
);
},
{
closed = 1;
nodes = (
"202 285 LINE SMOOTH",
"202 294 OFFCURVE",
"208 300 OFFCURVE",
"217 300 CURVE SMOOTH",
"406 300 LINE SMOOTH",
"450 300 OFFCURVE",
"463 281 OFFCURVE",
"463 216 CURVE SMOOTH",
"463 151 OFFCURVE",
"450 132 OFFCURVE",
"406 132 CURVE SMOOTH",
"217 132 LINE SMOOTH",
"208 132 OFFCURVE",
"202 138 OFFCURVE",
"202 147 CURVE SMOOTH"
);
},
{
closed = 1;
nodes = (
"202 553 LINE SMOOTH",
"202 562 OFFCURVE",
"208 568 OFFCURVE",
"217 568 CURVE SMOOTH",
"369 568 LINE SMOOTH",
"411 568 OFFCURVE",
"426 550 OFFCURVE",
"426 500 CURVE SMOOTH",
"426 450 OFFCURVE",
"411 432 OFFCURVE",
"369 432 CURVE SMOOTH",
"217 432 LINE SMOOTH",
"208 432 OFFCURVE",
"202 438 OFFCURVE",
"202 447 CURVE SMOOTH"
);
}
);
width = 655;
},
{
layerId = "DBDE1730-7CB6-4711-8383-3CA3AF6893BF";
paths = (
{
closed = 1;
nodes = (
"60 3 OFFCURVE",
"63 0 OFFCURVE",
"66 0 CURVE SMOOTH",
"301 0 LINE SMOOTH",
"435 0 OFFCURVE",
"524 75 OFFCURVE",
"524 188 CURVE SMOOTH",
"524 277 OFFCURVE",
"457 343 OFFCURVE",
"377 371 CURVE",
"377 374 LINE",
"430 404 OFFCURVE",
"474 455.528 OFFCURVE",
"474 522 CURVE SMOOTH",
"474 629 OFFCURVE",
"393 700 OFFCURVE",
"271 700 CURVE SMOOTH",
"66 700 LINE SMOOTH",
"63 700 OFFCURVE",
"60 697 OFFCURVE",
"60 694 CURVE SMOOTH",
"60 6 LINE SMOOTH"
);
},
{
closed = 1;
nodes = (
"105 338 LINE SMOOTH",
"105 342 OFFCURVE",
"107 344 OFFCURVE",
"111 344 CURVE SMOOTH",
"301 344 LINE SMOOTH",
"406 344 OFFCURVE",
"476 282 OFFCURVE",
"476 188 CURVE SMOOTH",
"476 100 OFFCURVE",
"406 42 OFFCURVE",
"301 42 CURVE SMOOTH",
"111 42 LINE SMOOTH",
"107 42 OFFCURVE",
"105 44 OFFCURVE",
"105 48 CURVE SMOOTH"
);
},
{
closed = 1;
nodes = (
"105 652 LINE SMOOTH",
"105 656 OFFCURVE",
"108 658 OFFCURVE",
"111 658 CURVE SMOOTH",
"271 658 LINE SMOOTH",
"364 658 OFFCURVE",
"426 604 OFFCURVE",
"426 522 CURVE SMOOTH",
"426 440 OFFCURVE",
"364 386 OFFCURVE",
"271 386 CURVE SMOOTH",
"111 386 LINE SMOOTH",
"107 386 OFFCURVE",
"105 388 OFFCURVE",
"105 392 CURVE SMOOTH"
);
}
);
width = 584;
},
{
associatedMasterId = "DBDE1730-7CB6-4711-8383-3CA3AF6893BF";
layerId = "8CDD808F-C7B6-46F6-8452-AD5354E60F0A";
name = "Apr 1 18, 02:06";
paths = (
{
closed = 1;
nodes = (
"393 344 OFFCURVE",
"474 415 OFFCURVE",
"474 522 CURVE SMOOTH",
"474 629 OFFCURVE",
"393 700 OFFCURVE",
"271 700 CURVE SMOOTH",
"81 700 LINE",
"81 658 LINE",
"271 658 LINE SMOOTH",
"364 658 OFFCURVE",
"426 604 OFFCURVE",
"426 522 CURVE SMOOTH",
"426 440 OFFCURVE",
"364 386 OFFCURVE",
"271 386 CURVE SMOOTH",
"81 386 LINE",
"81 344 LINE",
"271 344 LINE SMOOTH"
);
},
{
closed = 1;
nodes = (
"105 700 LINE",
"66 700 LINE SMOOTH",
"63 700 OFFCURVE",
"60 697 OFFCURVE",
"60 694 CURVE SMOOTH",
"60 6 LINE SMOOTH",
"60 3 OFFCURVE",
"63 0 OFFCURVE",
"66 0 CURVE",
"105 0 LINE"
);
},
{
closed = 1;
nodes = (
"435 0 OFFCURVE",
"524 75 OFFCURVE",
"524 188 CURVE SMOOTH",
"524 307 OFFCURVE",
"435 386 OFFCURVE",
"301 386 CURVE SMOOTH",
"81 386 LINE",
"81 344 LINE",
"301 344 LINE SMOOTH",
"406 344 OFFCURVE",
"476 282 OFFCURVE",
"476 188 CURVE SMOOTH",
"476 100 OFFCURVE",
"406 42 OFFCURVE",
"301 42 CURVE SMOOTH",
"81 42 LINE",
"81 0 LINE",
"301 0 LINE SMOOTH"
);
}
);
width = 584;
},
{
associatedMasterId = "644D3D1A-706E-4D36-8EE1-81638A7D248A";
layerId = "48C75E7C-99A2-43B6-A10C-F75644F96743";
name = "Apr 1 18, 12:03";
paths = (
{
closed = 1;
nodes = (
"202 685 LINE SMOOTH",
"202 693 OFFCURVE",
"195 700 OFFCURVE",
"187 700 CURVE SMOOTH",
"75 700 LINE SMOOTH",
"67 700 OFFCURVE",
"60 693 OFFCURVE",
"60 685 CURVE SMOOTH",
"60 15 LINE SMOOTH",
"60 7 OFFCURVE",
"67 0 OFFCURVE",
"75 0 CURVE SMOOTH",
"187 0 LINE SMOOTH",
"195 0 OFFCURVE",
"202 7 OFFCURVE",
"202 15 CURVE SMOOTH"
);
},
{
closed = 1;
nodes = (
"525 365 OFFCURVE",
"548 407 OFFCURVE",
"548 520 CURVE SMOOTH",
"548 651 OFFCURVE",
"494 700 OFFCURVE",
"349 700 CURVE",
"96 700 LINE",
"96 568 LINE",
"349 568 LINE",
"391 568 OFFCURVE",
"406 550 OFFCURVE",
"406 500 CURVE SMOOTH",
"406 450 OFFCURVE",
"391 432 OFFCURVE",
"349 432 CURVE",
"96 432 LINE",
"96 365 LINE",
"463 365 LINE"
);
},
{
closed = 1;
nodes = (
"551 0 OFFCURVE",
"605 53 OFFCURVE",
"605 196 CURVE SMOOTH",
"605 319 OFFCURVE",
"566 365 OFFCURVE",
"463 365 CURVE",
"153 365 LINE",
"153 300 LINE",
"406 300 LINE",
"448 300 OFFCURVE",
"463 277 OFFCURVE",
"463 216 CURVE SMOOTH",
"463 155 OFFCURVE",
"448 132 OFFCURVE",
"406 132 CURVE",
"153 132 LINE",
"153 0 LINE",
"406 0 LINE"
);
}
);
width = 655;
},
{
associatedMasterId = "644D3D1A-706E-4D36-8EE1-81638A7D248A";
layerId = "B7EF22D3-E260-49EC-A4DD-1D93C9782878";
name = "Apr 2 18, 18:49";
paths = (
{
closed = 1;
nodes = (
"60 7 OFFCURVE",
"67 0 OFFCURVE",
"75 0 CURVE SMOOTH",
"406 0 LINE SMOOTH",
"551 0 OFFCURVE",
"605 53 OFFCURVE",
"605 196 CURVE SMOOTH",
"605 319 OFFCURVE",
"566 365 OFFCURVE",
"463 365 CURVE",
"525 365 OFFCURVE",
"548 407 OFFCURVE",
"548 520 CURVE SMOOTH",
"548 651 OFFCURVE",
"494 700 OFFCURVE",
"349 700 CURVE SMOOTH",
"75 700 LINE SMOOTH",
"67 700 OFFCURVE",
"60 693 OFFCURVE",
"60 685 CURVE SMOOTH",
"60 15 LINE SMOOTH"
);
},
{
closed = 1;
nodes = (
"202 300 LINE",
"406 300 LINE SMOOTH",
"448 300 OFFCURVE",
"463 277 OFFCURVE",
"463 216 CURVE SMOOTH",
"463 155 OFFCURVE",
"448 132 OFFCURVE",
"406 132 CURVE SMOOTH",
"202 132 LINE"
);
},
{
closed = 1;
nodes = (
"202 568 LINE",
"349 568 LINE SMOOTH",
"391 568 OFFCURVE",
"406 550 OFFCURVE",
"406 500 CURVE SMOOTH",
"406 450 OFFCURVE",
"391 432 OFFCURVE",
"349 432 CURVE SMOOTH",
"202 432 LINE"
);
}
);
width = 655;
},
{
associatedMasterId = "DBDE1730-7CB6-4711-8383-3CA3AF6893BF";
layerId = "EC4B8F6D-175C-43D8-A291-D47DC2E210E5";
name = "Apr 2 18, 18:49";
paths = (
{
closed = 1;
nodes = (
"60 3 OFFCURVE",
"63 0 OFFCURVE",
"66 0 CURVE SMOOTH",
"301 0 LINE SMOOTH",
"435 0 OFFCURVE",
"524 75 OFFCURVE",
"524 188 CURVE SMOOTH",
"524 278.183 OFFCURVE",
"472.886 345.392 OFFCURVE",
"389.808 372.655 CURVE",
"442.739 402.949 OFFCURVE",
"474 455.528 OFFCURVE",
"474 522 CURVE SMOOTH",
"474 629 OFFCURVE",
"393 700 OFFCURVE",
"271 700 CURVE SMOOTH",
"66 700 LINE SMOOTH",
"63 700 OFFCURVE",
"60 697 OFFCURVE",
"60 694 CURVE SMOOTH",
"60 6 LINE SMOOTH"
);
},
{
closed = 1;
nodes = (
"105 344 LINE",
"301 344 LINE SMOOTH",
"406 344 OFFCURVE",
"476 282 OFFCURVE",
"476 188 CURVE SMOOTH",
"476 100 OFFCURVE",
"406 42 OFFCURVE",
"301 42 CURVE SMOOTH",
"105 42 LINE"
);
},
{
closed = 1;
nodes = (
"105 658 LINE",
"271 658 LINE SMOOTH",
"364 658 OFFCURVE",
"426 604 OFFCURVE",
"426 522 CURVE SMOOTH",
"426 440 OFFCURVE",
"364 386 OFFCURVE",
"271 386 CURVE SMOOTH",
"105 386 LINE"
);
}
);
width = 584;
}
);
unicode = 0042;
},
{
glyphname = C;
lastChange = "2018-04-01 14:32:31 +0000";
layers = (
{
layerId = "644D3D1A-706E-4D36-8EE1-81638A7D248A";
paths = (
{
closed = 1;
nodes = (
"50 62 OFFCURVE",
"97 -4 OFFCURVE",
"348 -4 CURVE SMOOTH",
"582 -4 OFFCURVE",
"641 37 OFFCURVE",
"641 216 CURVE SMOOTH",
"641 226 OFFCURVE",
"635 231 OFFCURVE",
"626 231 CURVE SMOOTH",
"510 231 LINE SMOOTH",
"501 231 OFFCURVE",
"495 226 OFFCURVE",
"495 216 CURVE SMOOTH",
"495 144 OFFCURVE",
"462 128 OFFCURVE",
"348 128 CURVE SMOOTH",
"213 128 OFFCURVE",
"192 170 OFFCURVE",
"192 354 CURVE SMOOTH",
"192 532 OFFCURVE",
"213 572 OFFCURVE",
"348 572 CURVE SMOOTH",
"464 572 OFFCURVE",
"491 556 OFFCURVE",
"498 484 CURVE SMOOTH",
"499 474 OFFCURVE",
"504 469 OFFCURVE",
"513 469 CURVE SMOOTH",
"628 469 LINE SMOOTH",
"637 469 OFFCURVE",
"643 474 OFFCURVE",
"643 484 CURVE SMOOTH",
"643 663 OFFCURVE",
"583 704 OFFCURVE",
"348 704 CURVE SMOOTH",
"97 704 OFFCURVE",
"50 639 OFFCURVE",
"50 354 CURVE SMOOTH"
);
}
);
width = 693;
},
{
layerId = "DBDE1730-7CB6-4711-8383-3CA3AF6893BF";
paths = (
{
closed = 1;
nodes = (
"60 136 OFFCURVE",
"182 -6 OFFCURVE",
"366 -6 CURVE SMOOTH",
"491 -6 OFFCURVE",
"595 74 OFFCURVE",
"625 194 CURVE SMOOTH",
"626 198 OFFCURVE",
"624 200 OFFCURVE",
"619 200 CURVE SMOOTH",
"586 200 LINE SMOOTH",
"583 200 OFFCURVE",
"581 198 OFFCURVE",
"580 194 CURVE SMOOTH",
"556 99 OFFCURVE",
"470 36 OFFCURVE",
"366 36 CURVE SMOOTH",
"211 36 OFFCURVE",
"108 162 OFFCURVE",
"108 350 CURVE SMOOTH",
"108 538 OFFCURVE",
"211 664 OFFCURVE",
"366 664 CURVE SMOOTH",
"470 664 OFFCURVE",
"556 601 OFFCURVE",
"580 506 CURVE SMOOTH",
"581 502 OFFCURVE",
"583 500 OFFCURVE",
"586 500 CURVE SMOOTH",
"619 500 LINE SMOOTH",
"623 500 OFFCURVE",
"625 502 OFFCURVE",
"625 506 CURVE",
"594 626 OFFCURVE",
"491 706 OFFCURVE",
"366 706 CURVE SMOOTH",
"182 706 OFFCURVE",
"60 564 OFFCURVE",
"60 350 CURVE SMOOTH"
);
}
);
width = 685;
}
);
unicode = 0043;
},
{
glyphname = D;
lastChange = "2018-04-01 00:10:19 +0000";
layers = (
{
layerId = "644D3D1A-706E-4D36-8EE1-81638A7D248A";
paths = (
{
closed = 1;
nodes = (
"212 685 LINE SMOOTH",
"212 693 OFFCURVE",
"205 700 OFFCURVE",
"197 700 CURVE SMOOTH",
"85 700 LINE SMOOTH",
"77 700 OFFCURVE",
"70 693 OFFCURVE",
"70 685 CURVE SMOOTH",
"70 15 LINE SMOOTH",
"70 7 OFFCURVE",
"77 0 OFFCURVE",
"85 0 CURVE SMOOTH",
"197 0 LINE SMOOTH",
"205 0 OFFCURVE",
"212 7 OFFCURVE",
"212 15 CURVE SMOOTH"
);
},
{
closed = 1;
nodes = (
"602 0 OFFCURVE",
"665 66 OFFCURVE",
"665 354 CURVE SMOOTH",
"665 636 OFFCURVE",
"602 700 OFFCURVE",
"327 700 CURVE",
"163 700 LINE",
"163 568 LINE",
"327 568 LINE",
"487 568 OFFCURVE",
"523 528 OFFCURVE",
"523 354 CURVE SMOOTH",
"523 173 OFFCURVE",
"487 132 OFFCURVE",
"327 132 CURVE",
"163 132 LINE",
"163 0 LINE",
"327 0 LINE"
);
}
);
width = 725;
},
{
layerId = "DBDE1730-7CB6-4711-8383-3CA3AF6893BF";
paths = (
{
closed = 1;
nodes = (
"105 694 LINE SMOOTH",
"105 697 OFFCURVE",
"102 700 OFFCURVE",
"99 700 CURVE SMOOTH",
"66 700 LINE SMOOTH",
"63 700 OFFCURVE",
"60 697 OFFCURVE",
"60 694 CURVE SMOOTH",
"60 6 LINE SMOOTH",
"60 3 OFFCURVE",
"63 0 OFFCURVE",
"66 0 CURVE SMOOTH",
"99 0 LINE SMOOTH",
"102 0 OFFCURVE",
"105 3 OFFCURVE",
"105 6 CURVE SMOOTH"
);
},
{
closed = 1;
nodes = (
"470 0 OFFCURVE",
"592 140 OFFCURVE",
"592 358 CURVE SMOOTH",
"592 567 OFFCURVE",
"470 700 OFFCURVE",
"286 700 CURVE",
"84 700 LINE",
"84 658 LINE",
"286 658 LINE",
"441 658 OFFCURVE",
"544 542 OFFCURVE",
"544 358 CURVE SMOOTH",
"544 165 OFFCURVE",
"441 42 OFFCURVE",
"286 42 CURVE",
"84 42 LINE",
"84 0 LINE",
"286 0 LINE"
);
}
);
width = 652;
}
);
unicode = 0044;
},
{
glyphname = E;
lastChange = "2018-03-31 23:43:20 +0000";
layers = (
{
layerId = "644D3D1A-706E-4D36-8EE1-81638A7D248A";
paths = (
{
closed = 1;
nodes = (
"212 685 LINE SMOOTH",
"212 693 OFFCURVE",
"205 700 OFFCURVE",
"197 700 CURVE SMOOTH",
"85 700 LINE SMOOTH",
"77 700 OFFCURVE",
"70 693 OFFCURVE",
"70 685 CURVE SMOOTH",
"70 15 LINE SMOOTH",
"70 7 OFFCURVE",
"77 0 OFFCURVE",
"85 0 CURVE SMOOTH",
"197 0 LINE SMOOTH",
"205 0 OFFCURVE",
"212 7 OFFCURVE",
"212 15 CURVE SMOOTH"
);
},
{
closed = 1;
nodes = (
"190 423 OFFCURVE",
"183 416 OFFCURVE",
"183 408 CURVE SMOOTH",
"183 306 LINE SMOOTH",
"183 298 OFFCURVE",
"190 291 OFFCURVE",
"198 291 CURVE SMOOTH",
"520 291 LINE SMOOTH",
"528 291 OFFCURVE",
"535 298 OFFCURVE",
"535 306 CURVE SMOOTH",
"535 408 LINE SMOOTH",
"535 416 OFFCURVE",
"528 423 OFFCURVE",
"520 423 CURVE SMOOTH",
"198 423 LINE SMOOTH"
);
},
{
closed = 1;
nodes = (
"190 132 OFFCURVE",
"183 125 OFFCURVE",
"183 117 CURVE SMOOTH",
"183 15 LINE SMOOTH",
"183 7 OFFCURVE",
"190 0 OFFCURVE",
"198 0 CURVE SMOOTH",
"570 0 LINE SMOOTH",
"578 0 OFFCURVE",
"585 7 OFFCURVE",
"585 15 CURVE SMOOTH",
"585 117 LINE SMOOTH",
"585 125 OFFCURVE",
"578 132 OFFCURVE",
"570 132 CURVE SMOOTH",
"198 132 LINE SMOOTH"
);
},
{
closed = 1;
nodes = (
"190 700 OFFCURVE",
"183 693 OFFCURVE",
"183 685 CURVE SMOOTH",
"183 583 LINE SMOOTH",
"183 575 OFFCURVE",
"190 568 OFFCURVE",
"198 568 CURVE SMOOTH",
"570 568 LINE SMOOTH",
"578 568 OFFCURVE",
"585 575 OFFCURVE",
"585 583 CURVE SMOOTH",
"585 685 LINE SMOOTH",
"585 693 OFFCURVE",
"578 700 OFFCURVE",
"570 700 CURVE SMOOTH",
"198 700 LINE SMOOTH"
);
}
);
width = 655;
},
{
layerId = "DBDE1730-7CB6-4711-8383-3CA3AF6893BF";
paths = (
{
closed = 1;
nodes = (
"105 694 LINE SMOOTH",
"105 697 OFFCURVE",
"102 700 OFFCURVE",
"99 700 CURVE SMOOTH",
"66 700 LINE SMOOTH",
"63 700 OFFCURVE",
"60 697 OFFCURVE",
"60 694 CURVE SMOOTH",
"60 6 LINE SMOOTH",
"60 3 OFFCURVE",
"63 0 OFFCURVE",
"66 0 CURVE SMOOTH",
"99 0 LINE SMOOTH",
"102 0 OFFCURVE",
"105 3 OFFCURVE",
"105 6 CURVE SMOOTH"
);
},
{
closed = 1;
nodes = (
"77 382 OFFCURVE",
"74 379 OFFCURVE",
"74 376 CURVE SMOOTH",
"73 346 LINE SMOOTH",
"73 343 OFFCURVE",
"76 340 OFFCURVE",
"79 340 CURVE SMOOTH",
"467 339 LINE SMOOTH",
"469 339 OFFCURVE",
"473 342 OFFCURVE",
"473 346 CURVE SMOOTH",
"472 375 LINE SMOOTH",
"472 378 OFFCURVE",
"470 381 OFFCURVE",
"467 381 CURVE SMOOTH",
"79 382 LINE SMOOTH"
);
},
{
closed = 1;
nodes = (
"77 43 OFFCURVE",
"74 40 OFFCURVE",
"74 37 CURVE SMOOTH",
"73 7 LINE SMOOTH",
"73 4 OFFCURVE",
"76 1 OFFCURVE",
"79 1 CURVE SMOOTH",
"507 0 LINE SMOOTH",
"509 0 OFFCURVE",
"513 3 OFFCURVE",
"513 7 CURVE SMOOTH",
"512 36 LINE SMOOTH",
"512 39 OFFCURVE",
"510 42 OFFCURVE",
"507 42 CURVE SMOOTH",
"79 43 LINE SMOOTH"
);
},
{
closed = 1;
nodes = (
"77 700 OFFCURVE",
"74 697 OFFCURVE",
"74 694 CURVE SMOOTH",
"73 664 LINE SMOOTH",
"73 661 OFFCURVE",
"76 658 OFFCURVE",
"79 658 CURVE SMOOTH",
"507 657 LINE SMOOTH",
"509 657 OFFCURVE",
"513 660 OFFCURVE",
"513 664 CURVE SMOOTH",
"512 693 LINE SMOOTH",
"512 696 OFFCURVE",
"510 699 OFFCURVE",
"507 699 CURVE SMOOTH",
"79 700 LINE SMOOTH"
);
}
);
width = 573;
}
);
unicode = 0045;
},
{
glyphname = F;
lastChange = "2018-04-01 00:14:48 +0000";
layers = (
{
layerId = "644D3D1A-706E-4D36-8EE1-81638A7D248A";
paths = (
{
closed = 1;
nodes = (
"202 685 LINE SMOOTH",
"202 693 OFFCURVE",
"195 700 OFFCURVE",
"187 700 CURVE SMOOTH",
"75 700 LINE SMOOTH",
"67 700 OFFCURVE",
"60 693 OFFCURVE",
"60 685 CURVE SMOOTH",
"60 15 LINE SMOOTH",
"60 7 OFFCURVE",
"67 0 OFFCURVE",
"75 0 CURVE SMOOTH",
"187 0 LINE SMOOTH",
"195 0 OFFCURVE",
"202 7 OFFCURVE",
"202 15 CURVE SMOOTH"
);
},
{
closed = 1;
nodes = (
"180 423 OFFCURVE",
"173 416 OFFCURVE",
"173 408 CURVE SMOOTH",
"173 306 LINE SMOOTH",
"173 298 OFFCURVE",
"180 291 OFFCURVE",
"188 291 CURVE SMOOTH",
"470 291 LINE SMOOTH",
"478 291 OFFCURVE",
"485 298 OFFCURVE",
"485 306 CURVE SMOOTH",
"485 408 LINE SMOOTH",
"485 416 OFFCURVE",
"478 423 OFFCURVE",
"470 423 CURVE SMOOTH",
"188 423 LINE SMOOTH"
);
},
{
closed = 1;
nodes = (
"180 700 OFFCURVE",
"173 693 OFFCURVE",
"173 685 CURVE SMOOTH",
"173 583 LINE SMOOTH",
"173 575 OFFCURVE",
"180 568 OFFCURVE",
"188 568 CURVE SMOOTH",
"520 568 LINE SMOOTH",
"528 568 OFFCURVE",
"535 575 OFFCURVE",
"535 583 CURVE SMOOTH",
"535 685 LINE SMOOTH",
"535 693 OFFCURVE",
"528 700 OFFCURVE",
"520 700 CURVE SMOOTH",
"188 700 LINE SMOOTH"
);
}
);
width = 595;
},
{
layerId = "DBDE1730-7CB6-4711-8383-3CA3AF6893BF";
paths = (
{
closed = 1;
nodes = (
"105 694 LINE SMOOTH",
"105 697 OFFCURVE",
"102 700 OFFCURVE",
"99 700 CURVE SMOOTH",
"66 700 LINE SMOOTH",
"63 700 OFFCURVE",
"60 697 OFFCURVE",
"60 694 CURVE SMOOTH",
"60 6 LINE SMOOTH",
"60 3 OFFCURVE",
"63 0 OFFCURVE",
"66 0 CURVE SMOOTH",
"99 0 LINE SMOOTH",
"102 0 OFFCURVE",
"105 3 OFFCURVE",
"105 6 CURVE SMOOTH"
);
},
{
closed = 1;
nodes = (
"77 382 OFFCURVE",
"74 379 OFFCURVE",
"74 376 CURVE SMOOTH",
"73 346 LINE SMOOTH",
"73 343 OFFCURVE",
"76 340 OFFCURVE",
"79 340 CURVE SMOOTH",
"407 339 LINE SMOOTH",
"409 339 OFFCURVE",
"413 342 OFFCURVE",
"413 346 CURVE SMOOTH",
"412 375 LINE SMOOTH",
"412 378 OFFCURVE",
"410 381 OFFCURVE",
"407 381 CURVE SMOOTH",
"79 382 LINE SMOOTH"
);
},
{
closed = 1;
nodes = (
"77 700 OFFCURVE",
"74 697 OFFCURVE",
"74 694 CURVE SMOOTH",
"73 664 LINE SMOOTH",
"73 661 OFFCURVE",
"76 658 OFFCURVE",
"79 658 CURVE SMOOTH",
"477 657 LINE SMOOTH",
"479 657 OFFCURVE",
"483 660 OFFCURVE",
"483 664 CURVE SMOOTH",
"482 693 LINE SMOOTH",
"482 696 OFFCURVE",
"480 699 OFFCURVE",
"477 699 CURVE SMOOTH",
"79 700 LINE SMOOTH"
);
}
);
width = 523;
}
);
unicode = 0046;
},
{
glyphname = G;
lastChange = "2018-04-04 19:58:54 +0000";
layers = (
{
layerId = "644D3D1A-706E-4D36-8EE1-81638A7D248A";
paths = (
{
closed = 1;
nodes = (
"587 -4 OFFCURVE",
"641 45 OFFCURVE",
"641 261 CURVE",
"510 261 LINE",
"510 141 OFFCURVE",
"494 128 OFFCURVE",
"348 128 CURVE SMOOTH",
"208 128 OFFCURVE",
"192 151 OFFCURVE",
"192 354 CURVE SMOOTH",
"192 550 OFFCURVE",
"208 572 OFFCURVE",
"348 572 CURVE SMOOTH",
"474 572 OFFCURVE",
"488 565 OFFCURVE",
"488 498 CURVE SMOOTH",
"488 488 OFFCURVE",
"494 483 OFFCURVE",
"503 483 CURVE SMOOTH",
"618 483 LINE SMOOTH",
"627 483 OFFCURVE",
"633 488 OFFCURVE",
"633 498 CURVE SMOOTH",
"633 666 OFFCURVE",
"580 704 OFFCURVE",
"348 704 CURVE SMOOTH",
"105 704 OFFCURVE",
"50 639 OFFCURVE",
"50 354 CURVE SMOOTH",
"50 62 OFFCURVE",
"105 -4 OFFCURVE",
"348 -4 CURVE SMOOTH"
);
},
{
closed = 1;
nodes = (
"320 393 OFFCURVE",
"313 386 OFFCURVE",
"313 378 CURVE SMOOTH",
"313 276 LINE SMOOTH",
"313 268 OFFCURVE",
"320 261 OFFCURVE",
"328 261 CURVE SMOOTH",
"641 261 LINE",
"641 336 LINE SMOOTH",
"641 382 OFFCURVE",
"630 393 OFFCURVE",
"582 393 CURVE SMOOTH",
"328 393 LINE SMOOTH"
);
}
);
width = 693;
},
{
layerId = "DBDE1730-7CB6-4711-8383-3CA3AF6893BF";
paths = (
{
closed = 1;
nodes = (
"544 -6 OFFCURVE",
"662 114 OFFCURVE",
"672 295 CURVE",
"624 295 LINE",
"614 140 OFFCURVE",
"515 36 OFFCURVE",
"376 36 CURVE SMOOTH",
"215 36 OFFCURVE",
"108 165 OFFCURVE",
"108 358 CURVE SMOOTH",
"108 542 OFFCURVE",
"215 664 OFFCURVE",
"376 664 CURVE SMOOTH",
"496 664 OFFCURVE",
"580 597 OFFCURVE",
"610 476 CURVE SMOOTH",
"611 472 OFFCURVE",
"613 470 OFFCURVE",
"616 470 CURVE SMOOTH",
"649 470 LINE SMOOTH",
"654 470 OFFCURVE",
"656 472 OFFCURVE",
"655 476 CURVE SMOOTH",
"617 624 OFFCURVE",
"518 706 OFFCURVE",
"376 706 CURVE SMOOTH",
"186 706 OFFCURVE",
"60 567 OFFCURVE",
"60 358 CURVE SMOOTH",
"60 140 OFFCURVE",
"186 -6 OFFCURVE",
"376 -6 CURVE SMOOTH"
);
},
{
closed = 1;
nodes = (
"406 338 OFFCURVE",
"404 336 OFFCURVE",
"404 332 CURVE SMOOTH",
"403 302 LINE SMOOTH",
"403 298 OFFCURVE",
"405 296 OFFCURVE",
"409 296 CURVE SMOOTH",
"672 295 LINE",
"672 331 LINE SMOOTH",
"672 335 OFFCURVE",
"670 337 OFFCURVE",
"667 337 CURVE SMOOTH",
"409 338 LINE SMOOTH"
);
}
);
width = 732;
}
);
unicode = 0047;
},
{
glyphname = H;
lastChange = "2018-03-31 23:29:59 +0000";
layers = (
{
layerId = "644D3D1A-706E-4D36-8EE1-81638A7D248A";
paths = (
{
closed = 1;
nodes = (
"202 685 LINE SMOOTH",
"202 693 OFFCURVE",
"195 700 OFFCURVE",
"187 700 CURVE SMOOTH",
"75 700 LINE SMOOTH",
"67 700 OFFCURVE",
"60 693 OFFCURVE",
"60 685 CURVE SMOOTH",
"60 15 LINE SMOOTH",
"60 7 OFFCURVE",
"67 0 OFFCURVE",
"75 0 CURVE SMOOTH",
"187 0 LINE SMOOTH",
"195 0 OFFCURVE",
"202 7 OFFCURVE",
"202 15 CURVE SMOOTH"
);
},
{
closed = 1;
nodes = (
"629 685 LINE SMOOTH",
"629 693 OFFCURVE",
"622 700 OFFCURVE",
"614 700 CURVE SMOOTH",
"502 700 LINE SMOOTH",
"494 700 OFFCURVE",
"487 693 OFFCURVE",
"487 685 CURVE SMOOTH",
"487 15 LINE SMOOTH",
"487 7 OFFCURVE",
"494 0 OFFCURVE",
"502 0 CURVE SMOOTH",
"614 0 LINE SMOOTH",
"622 0 OFFCURVE",
"629 7 OFFCURVE",
"629 15 CURVE SMOOTH"
);
},
{
closed = 1;
nodes = (
"180 423 OFFCURVE",
"173 416 OFFCURVE",
"173 408 CURVE SMOOTH",
"173 306 LINE SMOOTH",
"173 298 OFFCURVE",
"180 291 OFFCURVE",
"188 291 CURVE SMOOTH",
"510 291 LINE SMOOTH",
"518 291 OFFCURVE",
"525 298 OFFCURVE",
"525 306 CURVE SMOOTH",
"525 408 LINE SMOOTH",
"525 416 OFFCURVE",
"518 423 OFFCURVE",
"510 423 CURVE SMOOTH",
"188 423 LINE SMOOTH"
);
}
);
width = 689;
},
{
layerId = "DBDE1730-7CB6-4711-8383-3CA3AF6893BF";
paths = (
{
closed = 1;
nodes = (
"105 694 LINE SMOOTH",
"105 697 OFFCURVE",
"102 700 OFFCURVE",
"99 700 CURVE SMOOTH",
"66 700 LINE SMOOTH",
"63 700 OFFCURVE",
"60 697 OFFCURVE",
"60 694 CURVE SMOOTH",
"60 6 LINE SMOOTH",
"60 3 OFFCURVE",
"63 0 OFFCURVE",
"66 0 CURVE SMOOTH",
"99 0 LINE SMOOTH",
"102 0 OFFCURVE",
"105 3 OFFCURVE",
"105 6 CURVE SMOOTH"
);
},
{
closed = 1;
nodes = (
"555 694 LINE SMOOTH",
"555 697 OFFCURVE",
"552 700 OFFCURVE",
"549 700 CURVE SMOOTH",
"516 700 LINE SMOOTH",
"513 700 OFFCURVE",
"510 697 OFFCURVE",
"510 694 CURVE SMOOTH",
"510 6 LINE SMOOTH",
"510 3 OFFCURVE",
"513 0 OFFCURVE",
"516 0 CURVE SMOOTH",
"549 0 LINE SMOOTH",
"552 0 OFFCURVE",
"555 3 OFFCURVE",
"555 6 CURVE SMOOTH"
);
},
{
closed = 1;
nodes = (
"77 382 OFFCURVE",
"74 379 OFFCURVE",
"74 376 CURVE SMOOTH",
"73 346 LINE SMOOTH",
"73 343 OFFCURVE",
"76 340 OFFCURVE",
"79 340 CURVE SMOOTH",
"527 339 LINE SMOOTH",
"529 339 OFFCURVE",
"533 342 OFFCURVE",
"533 346 CURVE SMOOTH",
"532 375 LINE SMOOTH",
"532 378 OFFCURVE",
"530 381 OFFCURVE",
"527 381 CURVE SMOOTH",
"79 382 LINE SMOOTH"
);
}
);
width = 615;
}
);
unicode = 0048;
},
{
glyphname = I;
lastChange = "2018-03-31 23:17:48 +0000";
layers = (
{
layerId = "644D3D1A-706E-4D36-8EE1-81638A7D248A";
paths = (
{
closed = 1;
nodes = (
"202 685 LINE SMOOTH",
"202 693 OFFCURVE",
"195 700 OFFCURVE",
"187 700 CURVE SMOOTH",
"75 700 LINE SMOOTH",
"67 700 OFFCURVE",
"60 693 OFFCURVE",
"60 685 CURVE SMOOTH",
"60 15 LINE SMOOTH",
"60 7 OFFCURVE",
"67 0 OFFCURVE",
"75 0 CURVE SMOOTH",
"187 0 LINE SMOOTH",
"195 0 OFFCURVE",
"202 7 OFFCURVE",
"202 15 CURVE SMOOTH"
);
}
);
width = 262;
},
{
layerId = "DBDE1730-7CB6-4711-8383-3CA3AF6893BF";
paths = (
{
closed = 1;
nodes = (
"145 694 LINE SMOOTH",
"145 697 OFFCURVE",
"142 700 OFFCURVE",
"139 700 CURVE SMOOTH",
"106 700 LINE SMOOTH",
"103 700 OFFCURVE",
"100 697 OFFCURVE",
"100 694 CURVE SMOOTH",
"100 6 LINE SMOOTH",
"100 3 OFFCURVE",
"103 0 OFFCURVE",
"106 0 CURVE SMOOTH",
"139 0 LINE SMOOTH",
"142 0 OFFCURVE",
"145 3 OFFCURVE",
"145 6 CURVE SMOOTH"
);
}
);
width = 243;
}
);
unicode = 0049;
},
{
glyphname = J;
lastChange = "2018-04-01 01:36:54 +0000";
layers = (
{
layerId = "644D3D1A-706E-4D36-8EE1-81638A7D248A";
paths = (
{
closed = 1;
nodes = (
"464 -4 OFFCURVE",
"506 46 OFFCURVE",
"506 267 CURVE SMOOTH",
"506 685 LINE SMOOTH",
"506 694 OFFCURVE",
"500 700 OFFCURVE",
"491 700 CURVE SMOOTH",
"379 700 LINE SMOOTH",
"370 700 OFFCURVE",
"364 694 OFFCURVE",
"364 685 CURVE SMOOTH",
"364 267 LINE SMOOTH",
"364 154 OFFCURVE",
"348 128 OFFCURVE",
"278 128 CURVE SMOOTH",
"213 128 OFFCURVE",
"195 143 OFFCURVE",
"192 202 CURVE SMOOTH",
"192 212 OFFCURVE",
"186 217 OFFCURVE",
"177 217 CURVE SMOOTH",
"65 217 LINE SMOOTH",
"56 217 OFFCURVE",
"50 212 OFFCURVE",
"50 202 CURVE SMOOTH",
"53 35 OFFCURVE",
"97 -4 OFFCURVE",
"278 -4 CURVE SMOOTH"
);
}
);
width = 566;
},
{
layerId = "DBDE1730-7CB6-4711-8383-3CA3AF6893BF";
paths = (
{
closed = 1;
nodes = (
"275 -6 OFFCURVE",
"350 72 OFFCURVE",
"350 189 CURVE SMOOTH",
"350 694 LINE SMOOTH",
"350 697 OFFCURVE",
"347 700 OFFCURVE",
"344 700 CURVE SMOOTH",
"311 700 LINE SMOOTH",
"308 700 OFFCURVE",
"305 697 OFFCURVE",
"305 694 CURVE SMOOTH",
"305 189 LINE SMOOTH",
"305 97 OFFCURVE",
"248 36 OFFCURVE",
"162 36 CURVE SMOOTH",
"134 36 OFFCURVE",
"103 46 OFFCURVE",
"86 60 CURVE SMOOTH",
"83 63 OFFCURVE",
"81 64 OFFCURVE",
"78 61 CURVE SMOOTH",
"52 40 LINE SMOOTH",
"49 37 OFFCURVE",
"49 34 OFFCURVE",
"52 32 CURVE SMOOTH",
"77 9 OFFCURVE",
"121 -6 OFFCURVE",
"162 -6 CURVE SMOOTH"
);
}
);
width = 400;
},
{
associatedMasterId = "DBDE1730-7CB6-4711-8383-3CA3AF6893BF";
layerId = "DEF41218-F6F5-4C35-AE14-FB04D21C2C64";
name = "Apr 1 18, 03:29";
paths = (
{
closed = 1;
nodes = (
"411 -6 OFFCURVE",
"494 72 OFFCURVE",
"494 189 CURVE SMOOTH",
"494 694 LINE SMOOTH",
"494 697 OFFCURVE",
"491 700 OFFCURVE",
"488 700 CURVE SMOOTH",
"455 700 LINE SMOOTH",
"452 700 OFFCURVE",
"449 697 OFFCURVE",
"449 694 CURVE SMOOTH",
"449 189 LINE SMOOTH",
"449 97 OFFCURVE",
"384 36 OFFCURVE",
"286 36 CURVE SMOOTH",
"177 36 OFFCURVE",
"105 94 OFFCURVE",
"105 181 CURVE SMOOTH",
"105 186 OFFCURVE",
"101 189 OFFCURVE",
"97 189 CURVE SMOOTH",
"68 189 LINE SMOOTH",
"64 189 OFFCURVE",
"60 186 OFFCURVE",
"60 182 CURVE SMOOTH",
"60 69 OFFCURVE",
"150 -6 OFFCURVE",
"286 -6 CURVE SMOOTH"
);
}
);
width = 544;
}
);
unicode = 004A;
},
{
glyphname = K;
lastChange = "2018-04-04 20:15:09 +0000";
layers = (
{
layerId = "644D3D1A-706E-4D36-8EE1-81638A7D248A";
paths = (
{
closed = 1;
nodes = (
"202 685 LINE SMOOTH",
"202 693 OFFCURVE",
"195 700 OFFCURVE",
"187 700 CURVE SMOOTH",
"75 700 LINE SMOOTH",
"67 700 OFFCURVE",
"60 693 OFFCURVE",
"60 685 CURVE SMOOTH",
"60 15 LINE SMOOTH",
"60 7 OFFCURVE",
"67 0 OFFCURVE",
"75 0 CURVE SMOOTH",
"187 0 LINE SMOOTH",
"195 0 OFFCURVE",
"202 7 OFFCURVE",
"202 15 CURVE SMOOTH"
);
},
{
closed = 1;
nodes = (
"220 321 LINE SMOOTH",
"208 321 OFFCURVE",
"201 315 OFFCURVE",
"210 303 CURVE SMOOTH",
"441 10 LINE SMOOTH",
"445 4 OFFCURVE",
"451 0 OFFCURVE",
"459 0 CURVE SMOOTH",
"594 0 LINE SMOOTH",
"606 0 OFFCURVE",
"612 8 OFFCURVE",
"604 18 CURVE SMOOTH",
"367 311 LINE SMOOTH",
"362 318 OFFCURVE",
"357 321 OFFCURVE",
"349 321 CURVE SMOOTH"
);
},
{
closed = 1;
nodes = (
"244 260 LINE",
"577 682 LINE SMOOTH",
"586 694 OFFCURVE",
"579 700 OFFCURVE",
"567 700 CURVE SMOOTH",
"428 700 LINE SMOOTH",
"420 700 OFFCURVE",
"415 697 OFFCURVE",
"410 690 CURVE SMOOTH",
"166 358 LINE"
);
}
);
width = 640;
},
{
layerId = "DBDE1730-7CB6-4711-8383-3CA3AF6893BF";
paths = (
{
closed = 1;
nodes = (
"145 694 LINE SMOOTH",
"145 697 OFFCURVE",
"142 700 OFFCURVE",
"139 700 CURVE SMOOTH",
"106 700 LINE SMOOTH",
"103 700 OFFCURVE",
"100 697 OFFCURVE",
"100 694 CURVE SMOOTH",
"100 6 LINE SMOOTH",
"100 3 OFFCURVE",
"103 0 OFFCURVE",
"106 0 CURVE SMOOTH",
"139 0 LINE SMOOTH",
"142 0 OFFCURVE",
"145 3 OFFCURVE",
"145 6 CURVE SMOOTH"
);
},
{
closed = 1;
nodes = (
"156 339 LINE SMOOTH",
"151 339 OFFCURVE",
"152 332 OFFCURVE",
"156 328 CURVE SMOOTH",
"461 3 LINE SMOOTH",
"464 0 OFFCURVE",
"465 0 OFFCURVE",
"468 0 CURVE SMOOTH",
"512 0 LINE SMOOTH",
"517 0 OFFCURVE",
"520 3 OFFCURVE",
"516 7 CURVE SMOOTH",
"207 336 LINE SMOOTH",
"204 339 OFFCURVE",
"203 339 OFFCURVE",
"200 339 CURVE SMOOTH"
);
},
{
closed = 1;
nodes = (
"156 328 LINE",
"507 693 LINE",
"510 697 OFFCURVE",
"508 700 OFFCURVE",
"503 700 CURVE SMOOTH",
"459 700 LINE SMOOTH",
"456 700 OFFCURVE",
"454 700 OFFCURVE",
"452 697 CURVE",
"130 356 LINE"
);
}
);
width = 600;
}
);
unicode = 004B;
},
{
glyphname = L;
lastChange = "2018-04-01 13:55:05 +0000";
layers = (
{
layerId = "644D3D1A-706E-4D36-8EE1-81638A7D248A";
paths = (
{
closed = 1;
nodes = (
"212 685 LINE SMOOTH",
"212 693 OFFCURVE",
"205 700 OFFCURVE",
"197 700 CURVE SMOOTH",
"85 700 LINE SMOOTH",
"77 700 OFFCURVE",
"70 693 OFFCURVE",
"70 685 CURVE SMOOTH",
"70 15 LINE SMOOTH",
"70 7 OFFCURVE",
"77 0 OFFCURVE",
"85 0 CURVE SMOOTH",
"197 0 LINE SMOOTH",
"205 0 OFFCURVE",
"212 7 OFFCURVE",
"212 15 CURVE SMOOTH"
);
},
{
closed = 1;
nodes = (
"190 132 OFFCURVE",
"183 125 OFFCURVE",
"183 117 CURVE SMOOTH",
"183 15 LINE SMOOTH",
"183 7 OFFCURVE",
"190 0 OFFCURVE",
"198 0 CURVE SMOOTH",
"530 0 LINE SMOOTH",
"538 0 OFFCURVE",
"545 7 OFFCURVE",
"545 15 CURVE SMOOTH",
"545 117 LINE SMOOTH",
"545 125 OFFCURVE",
"538 132 OFFCURVE",
"530 132 CURVE SMOOTH",
"198 132 LINE SMOOTH"
);
}
);
width = 595;
},
{
layerId = "DBDE1730-7CB6-4711-8383-3CA3AF6893BF";
paths = (
{
closed = 1;
nodes = (
"105 694 LINE SMOOTH",
"105 697 OFFCURVE",
"102 700 OFFCURVE",
"99 700 CURVE SMOOTH",
"66 700 LINE SMOOTH",
"63 700 OFFCURVE",
"60 697 OFFCURVE",
"60 694 CURVE SMOOTH",
"60 6 LINE SMOOTH",
"60 3 OFFCURVE",
"63 0 OFFCURVE",
"66 0 CURVE SMOOTH",
"99 0 LINE SMOOTH",
"102 0 OFFCURVE",
"105 3 OFFCURVE",
"105 6 CURVE SMOOTH"
);
},
{
closed = 1;
nodes = (
"83 42 OFFCURVE",
"80 39 OFFCURVE",
"80 36 CURVE SMOOTH",
"80 6 LINE SMOOTH",
"80 3 OFFCURVE",
"83 0 OFFCURVE",
"86 0 CURVE SMOOTH",
"466 0 LINE SMOOTH",
"469 0 OFFCURVE",
"472 3 OFFCURVE",
"472 6 CURVE SMOOTH",
"472 36 LINE SMOOTH",
"472 39 OFFCURVE",
"469 42 OFFCURVE",
"466 42 CURVE SMOOTH",
"86 42 LINE SMOOTH"
);
}
);
width = 532;
}
);
unicode = 004C;
},
{
glyphname = M;
lastChange = "2018-04-01 13:58:18 +0000";
layers = (
{
layerId = "644D3D1A-706E-4D36-8EE1-81638A7D248A";
paths = (
{
closed = 1;
nodes = (
"202 700 LINE",
"75 700 LINE SMOOTH",
"67 700 OFFCURVE",
"60 693 OFFCURVE",
"60 685 CURVE SMOOTH",
"60 15 LINE SMOOTH",
"60 7 OFFCURVE",
"67 0 OFFCURVE",
"75 0 CURVE SMOOTH",
"187 0 LINE SMOOTH",
"195 0 OFFCURVE",
"202 7 OFFCURVE",
"202 15 CURVE SMOOTH"
);
},
{
closed = 1;
nodes = (
"202 700 LINE",
"202 540 LINE",
"350 11 LINE SMOOTH",
"352 4 OFFCURVE",
"359 0 OFFCURVE",
"367 0 CURVE SMOOTH",
"435 0 LINE",
"435 150 LINE",
"287 689 LINE SMOOTH",
"285 696 OFFCURVE",
"278 700 OFFCURVE",
"270 700 CURVE SMOOTH"
);
},
{
closed = 1;
nodes = (
"592 700 OFFCURVE",
"585 696 OFFCURVE",
"583 689 CURVE SMOOTH",
"435 150 LINE",
"435 0 LINE",
"503 0 LINE SMOOTH",
"511 0 OFFCURVE",
"518 4 OFFCURVE",
"520 11 CURVE SMOOTH",
"668 540 LINE",
"668 700 LINE",
"600 700 LINE SMOOTH"
);
},
{
closed = 1;
nodes = (
"668 7 OFFCURVE",
"675 0 OFFCURVE",
"683 0 CURVE SMOOTH",
"795 0 LINE SMOOTH",
"803 0 OFFCURVE",
"810 7 OFFCURVE",
"810 15 CURVE SMOOTH",
"810 685 LINE SMOOTH",
"810 693 OFFCURVE",
"803 700 OFFCURVE",
"795 700 CURVE SMOOTH",
"668 700 LINE",
"668 15 LINE SMOOTH"
);
}
);
width = 870;
},
{
layerId = "DBDE1730-7CB6-4711-8383-3CA3AF6893BF";
paths = (
{
closed = 1;
nodes = (
"105 700 LINE",
"66 700 LINE SMOOTH",
"63 700 OFFCURVE",
"60 697 OFFCURVE",
"60 694 CURVE SMOOTH",
"60 6 LINE SMOOTH",
"60 3 OFFCURVE",
"63 0 OFFCURVE",
"66 0 CURVE SMOOTH",
"99 0 LINE SMOOTH",
"102 0 OFFCURVE",
"105 3 OFFCURVE",
"105 6 CURVE SMOOTH"
);
},
{
closed = 1;
nodes = (
"105 700 LINE",
"105 654 LINE",
"344 4 LINE SMOOTH",
"345 1 OFFCURVE",
"348 0 OFFCURVE",
"351 0 CURVE SMOOTH",
"372 0 LINE",
"372 46 LINE",
"134 696 LINE SMOOTH",
"133 699 OFFCURVE",
"130 700 OFFCURVE",
"127 700 CURVE SMOOTH"
);
},
{
closed = 1;
nodes = (
"614 700 OFFCURVE",
"611 699 OFFCURVE",
"610 696 CURVE SMOOTH",
"372 46 LINE",
"372 0 LINE",
"393 0 LINE SMOOTH",
"396 0 OFFCURVE",
"399 1 OFFCURVE",
"400 4 CURVE SMOOTH",
"639 654 LINE",
"639 700 LINE",
"617 700 LINE SMOOTH"
);
},
{
closed = 1;
nodes = (
"639 3 OFFCURVE",
"642 0 OFFCURVE",
"645 0 CURVE SMOOTH",
"678 0 LINE SMOOTH",
"681 0 OFFCURVE",
"684 3 OFFCURVE",
"684 6 CURVE SMOOTH",
"684 694 LINE SMOOTH",
"684 697 OFFCURVE",
"681 700 OFFCURVE",
"678 700 CURVE SMOOTH",
"639 700 LINE",
"639 6 LINE SMOOTH"
);
}
);
width = 744;
}
);
unicode = 004D;
},
{
glyphname = N;
lastChange = "2018-03-31 23:53:59 +0000";
layers = (
{
layerId = "644D3D1A-706E-4D36-8EE1-81638A7D248A";
paths = (
{
closed = 1;
nodes = (
"212 700 LINE",
"85 700 LINE SMOOTH",
"77 700 OFFCURVE",
"70 693 OFFCURVE",
"70 685 CURVE SMOOTH",
"70 15 LINE SMOOTH",
"70 7 OFFCURVE",
"77 0 OFFCURVE",
"85 0 CURVE SMOOTH",
"197 0 LINE SMOOTH",
"205 0 OFFCURVE",
"212 7 OFFCURVE",
"212 15 CURVE SMOOTH"
);
},
{
closed = 1;
nodes = (
"687 685 LINE SMOOTH",
"687 693 OFFCURVE",
"680 700 OFFCURVE",
"672 700 CURVE SMOOTH",
"560 700 LINE SMOOTH",
"552 700 OFFCURVE",
"545 693 OFFCURVE",
"545 685 CURVE SMOOTH",
"545 0 LINE",
"672 0 LINE SMOOTH",
"680 0 OFFCURVE",
"687 7 OFFCURVE",
"687 15 CURVE SMOOTH"
);
},
{
closed = 1;
nodes = (
"212 700 LINE",
"212 540 LINE",
"460 11 LINE SMOOTH",
"463 4 OFFCURVE",
"469 0 OFFCURVE",
"477 0 CURVE SMOOTH",
"545 0 LINE",
"545 160 LINE",
"297 689 LINE SMOOTH",
"294 696 OFFCURVE",
"288 700 OFFCURVE",
"280 700 CURVE SMOOTH"
);
}
);
width = 757;
},
{
layerId = "DBDE1730-7CB6-4711-8383-3CA3AF6893BF";
paths = (
{
closed = 1;
nodes = (
"105 700 LINE",
"66 700 LINE SMOOTH",
"63 700 OFFCURVE",
"60 697 OFFCURVE",
"60 694 CURVE SMOOTH",
"60 6 LINE SMOOTH",
"60 3 OFFCURVE",
"63 0 OFFCURVE",
"66 0 CURVE SMOOTH",
"99 0 LINE SMOOTH",
"102 0 OFFCURVE",
"105 3 OFFCURVE",
"105 6 CURVE SMOOTH"
);
},
{
closed = 1;
nodes = (
"555 694 LINE SMOOTH",
"555 697 OFFCURVE",
"552 700 OFFCURVE",
"549 700 CURVE SMOOTH",
"516 700 LINE SMOOTH",
"513 700 OFFCURVE",
"510 697 OFFCURVE",
"510 694 CURVE SMOOTH",
"510 0 LINE",
"549 0 LINE SMOOTH",
"552 0 OFFCURVE",
"555 3 OFFCURVE",
"555 6 CURVE SMOOTH"
);
},
{
closed = 1;
nodes = (
"105 700 LINE",
"105 654 LINE",
"482 4 LINE SMOOTH",
"483 1 OFFCURVE",
"486 0 OFFCURVE",
"489 0 CURVE SMOOTH",
"510 0 LINE",
"510 46 LINE",
"134 696 LINE SMOOTH",
"133 699 OFFCURVE",
"130 700 OFFCURVE",
"127 700 CURVE SMOOTH"
);
}
);
width = 615;
},
{
associatedMasterId = "644D3D1A-706E-4D36-8EE1-81638A7D248A";
layerId = "E5A0C081-8017-423B-A61D-4D4A16CF4E41";
name = "Mar 31 18, 21:35";
paths = (
{
closed = 1;
nodes = (
"202 700 LINE",
"75 700 LINE",
"67 700 OFFCURVE",
"60 693 OFFCURVE",
"60 685 CURVE SMOOTH",
"60 15 LINE SMOOTH",
"60 7 OFFCURVE",
"67 0 OFFCURVE",
"75 0 CURVE SMOOTH",
"187 0 LINE SMOOTH",
"195 0 OFFCURVE",
"202 7 OFFCURVE",
"202 15 CURVE SMOOTH"
);
},
{
closed = 1;
nodes = (
"677 685 LINE SMOOTH",
"677 693 OFFCURVE",
"670 700 OFFCURVE",
"662 700 CURVE SMOOTH",
"550 700 LINE SMOOTH",
"542 700 OFFCURVE",
"535 693 OFFCURVE",
"535 685 CURVE SMOOTH",
"535 0 LINE",
"662 0 LINE",
"670 0 OFFCURVE",
"677 7 OFFCURVE",
"677 15 CURVE SMOOTH"
);
},
{
closed = 1;
nodes = (
"202 700 LINE",
"202 530 LINE",
"465 0 LINE",
"535 0 LINE",
"535 170 LINE",
"272 700 LINE"
);
}
);
width = 739;
}
);
unicode = 004E;
},
{
glyphname = O;
lastChange = "2018-03-31 23:27:33 +0000";
layers = (
{
layerId = "644D3D1A-706E-4D36-8EE1-81638A7D248A";
paths = (
{
closed = 1;
nodes = (
"619 -4 OFFCURVE",
"676 62 OFFCURVE",
"676 354 CURVE SMOOTH",
"676 639 OFFCURVE",
"619 704 OFFCURVE",
"368 704 CURVE SMOOTH",
"117 704 OFFCURVE",
"60 639 OFFCURVE",
"60 354 CURVE SMOOTH",
"60 62 OFFCURVE",
"117 -4 OFFCURVE",
"368 -4 CURVE SMOOTH"
);
},
{
closed = 1;
nodes = (
"233 128 OFFCURVE",
"202 170 OFFCURVE",
"202 354 CURVE SMOOTH",
"202 532 OFFCURVE",
"233 572 OFFCURVE",
"368 572 CURVE SMOOTH",
"503 572 OFFCURVE",
"534 532 OFFCURVE",
"534 354 CURVE SMOOTH",
"534 170 OFFCURVE",
"503 128 OFFCURVE",
"368 128 CURVE SMOOTH"
);
}
);
width = 736;
},
{
layerId = "DBDE1730-7CB6-4711-8383-3CA3AF6893BF";
paths = (
{
closed = 1;
nodes = (
"550 -6 OFFCURVE",
"672 140 OFFCURVE",
"672 358 CURVE SMOOTH",
"672 567 OFFCURVE",
"550 706 OFFCURVE",
"366 706 CURVE SMOOTH",
"182 706 OFFCURVE",
"60 567 OFFCURVE",
"60 358 CURVE SMOOTH",
"60 140 OFFCURVE",
"182 -6 OFFCURVE",
"366 -6 CURVE SMOOTH"
);
},
{
closed = 1;
nodes = (
"211 36 OFFCURVE",
"108 165 OFFCURVE",
"108 358 CURVE SMOOTH",
"108 542 OFFCURVE",
"211 664 OFFCURVE",
"366 664 CURVE SMOOTH",
"521 664 OFFCURVE",
"624 542 OFFCURVE",
"624 358 CURVE SMOOTH",
"624 165 OFFCURVE",
"521 36 OFFCURVE",
"366 36 CURVE SMOOTH"
);
}
);
width = 732;
}
);
unicode = 004F;
},
{
glyphname = P;
lastChange = "2018-04-04 19:55:38 +0000";
layers = (
{
layerId = "644D3D1A-706E-4D36-8EE1-81638A7D248A";
paths = (
{
closed = 1;
nodes = (
"571 240 OFFCURVE",
"608 283 OFFCURVE",
"608 470 CURVE SMOOTH",
"608 657 OFFCURVE",
"571 700 OFFCURVE",
"409 700 CURVE SMOOTH",
"106 700 LINE",
"106 568 LINE",
"409 568 LINE SMOOTH",
"460 568 OFFCURVE",
"466 558 OFFCURVE",
"466 470 CURVE SMOOTH",
"466 382 OFFCURVE",
"460 372 OFFCURVE",
"409 372 CURVE SMOOTH",
"106 372 LINE",
"106 240 LINE",
"409 240 LINE SMOOTH"
);
},
{
closed = 1;
nodes = (
"212 685 LINE SMOOTH",
"212 693 OFFCURVE",
"205 700 OFFCURVE",
"197 700 CURVE SMOOTH",
"85 700 LINE SMOOTH",
"77 700 OFFCURVE",
"70 693 OFFCURVE",
"70 685 CURVE SMOOTH",
"70 15 LINE SMOOTH",
"70 7 OFFCURVE",
"77 0 OFFCURVE",
"85 0 CURVE SMOOTH",
"197 0 LINE SMOOTH",
"205 0 OFFCURVE",
"212 7 OFFCURVE",
"212 15 CURVE SMOOTH"
);
}
);
width = 658;
},
{
layerId = "DBDE1730-7CB6-4711-8383-3CA3AF6893BF";
paths = (
{
closed = 1;
nodes = (
"435 304 OFFCURVE",
"524 383 OFFCURVE",
"524 502 CURVE SMOOTH",
"524 621 OFFCURVE",
"435 700 OFFCURVE",
"301 700 CURVE SMOOTH",
"81 700 LINE",
"81 658 LINE",
"301 658 LINE SMOOTH",
"406 658 OFFCURVE",
"476 596 OFFCURVE",
"476 502 CURVE SMOOTH",
"476 408 OFFCURVE",
"406 346 OFFCURVE",
"301 346 CURVE SMOOTH",
"81 346 LINE",
"81 304 LINE",
"301 304 LINE SMOOTH"
);
},
{
closed = 1;
nodes = (
"105 694 LINE SMOOTH",
"105 697 OFFCURVE",
"102 700 OFFCURVE",
"99 700 CURVE SMOOTH",
"66 700 LINE SMOOTH",
"63 700 OFFCURVE",
"60 697 OFFCURVE",
"60 694 CURVE SMOOTH",
"60 6 LINE SMOOTH",
"60 3 OFFCURVE",
"63 0 OFFCURVE",
"66 0 CURVE SMOOTH",
"99 0 LINE SMOOTH",
"102 0 OFFCURVE",
"105 3 OFFCURVE",
"105 6 CURVE SMOOTH"
);
}
);
width = 600;
}
);
unicode = 0050;
},
{
glyphname = Q;
lastChange = "2018-04-01 13:56:49 +0000";
layers = (
{
layerId = "644D3D1A-706E-4D36-8EE1-81638A7D248A";
paths = (
{
closed = 1;
nodes = (
"619 -4 OFFCURVE",
"666 62 OFFCURVE",
"666 354 CURVE SMOOTH",
"666 639 OFFCURVE",
"609 704 OFFCURVE",
"358 704 CURVE SMOOTH",
"107 704 OFFCURVE",
"50 639 OFFCURVE",
"50 354 CURVE SMOOTH",
"50 62 OFFCURVE",
"107 -4 OFFCURVE",
"358 -4 CURVE SMOOTH"
);
},
{
closed = 1;
nodes = (
"223 128 OFFCURVE",
"192 170 OFFCURVE",
"192 354 CURVE SMOOTH",
"192 532 OFFCURVE",
"223 572 OFFCURVE",
"358 572 CURVE SMOOTH",
"493 572 OFFCURVE",
"524 532 OFFCURVE",
"524 354 CURVE SMOOTH",
"524 170 OFFCURVE",
"493 128 OFFCURVE",
"358 128 CURVE SMOOTH"
);
},
{
closed = 1;
nodes = (
"463 313 OFFCURVE",
"454 313 OFFCURVE",
"448 307 CURVE SMOOTH",
"376 235 LINE SMOOTH",
"370 229 OFFCURVE",
"370 220 OFFCURVE",
"376 214 CURVE SMOOTH",
"609 1 LINE SMOOTH",
"615 -6 OFFCURVE",
"624 -6 OFFCURVE",
"630 1 CURVE SMOOTH",
"692 73 LINE SMOOTH",
"698 79 OFFCURVE",
"698 88 OFFCURVE",
"692 94 CURVE SMOOTH",
"469 307 LINE SMOOTH"
);
}
);
width = 726;
},
{
associatedMasterId = "DBDE1730-7CB6-4711-8383-3CA3AF6893BF";
layerId = "F7686B81-D4EF-41BC-9EB9-A00460C39321";
name = "Apr 1 18, 15:56";
paths = (
{
closed = 1;
nodes = (
"550 -6 OFFCURVE",
"672 140 OFFCURVE",
"672 358 CURVE SMOOTH",
"672 567 OFFCURVE",
"550 706 OFFCURVE",
"366 706 CURVE SMOOTH",
"182 706 OFFCURVE",
"60 567 OFFCURVE",
"60 358 CURVE SMOOTH",
"60 140 OFFCURVE",
"182 -6 OFFCURVE",
"366 -6 CURVE SMOOTH"
);
},
{
closed = 1;
nodes = (
"211 36 OFFCURVE",
"108 165 OFFCURVE",
"108 358 CURVE SMOOTH",
"108 542 OFFCURVE",
"211 664 OFFCURVE",
"366 664 CURVE SMOOTH",
"521 664 OFFCURVE",
"624 542 OFFCURVE",
"624 358 CURVE SMOOTH",
"624 165 OFFCURVE",
"521 36 OFFCURVE",
"366 36 CURVE SMOOTH"
);
},
{
closed = 1;
nodes = (
"649 -6 OFFCURVE",
"690 13 OFFCURVE",
"718 32 CURVE SMOOTH",
"721 34 OFFCURVE",
"721 37 OFFCURVE",
"718 40 CURVE SMOOTH",
"692 61 LINE SMOOTH",
"689 64 OFFCURVE",
"687 63 OFFCURVE",
"684 60 CURVE SMOOTH",
"668 44 OFFCURVE",
"636 36 OFFCURVE",
"608 36 CURVE SMOOTH",
"522 36 OFFCURVE",
"465 97 OFFCURVE",
"465 189 CURVE",
"420 189 LINE",
"420 72 OFFCURVE",
"495 -6 OFFCURVE",
"608 -6 CURVE SMOOTH"
);
}
);
width = 732;
},
{
layerId = "DBDE1730-7CB6-4711-8383-3CA3AF6893BF";
paths = (
{
closed = 1;
nodes = (
"550 -6 OFFCURVE",
"672 140 OFFCURVE",
"672 358 CURVE SMOOTH",
"672 567 OFFCURVE",
"550 706 OFFCURVE",
"366 706 CURVE SMOOTH",
"182 706 OFFCURVE",
"60 567 OFFCURVE",
"60 358 CURVE SMOOTH",
"60 140 OFFCURVE",
"182 -6 OFFCURVE",
"366 -6 CURVE SMOOTH"
);
},
{
closed = 1;
nodes = (
"211 36 OFFCURVE",
"108 165 OFFCURVE",
"108 358 CURVE SMOOTH",
"108 542 OFFCURVE",
"211 664 OFFCURVE",
"366 664 CURVE SMOOTH",
"521 664 OFFCURVE",
"624 542 OFFCURVE",
"624 358 CURVE SMOOTH",
"624 165 OFFCURVE",
"521 36 OFFCURVE",
"366 36 CURVE SMOOTH"
);
},
{
closed = 1;
nodes = (
"480 222 OFFCURVE",
"476 222 OFFCURVE",
"474 220 CURVE SMOOTH",
"449 195 LINE SMOOTH",
"447 193 OFFCURVE",
"447 189 OFFCURVE",
"449 187 CURVE SMOOTH",
"641 -5 LINE SMOOTH",
"643 -7 OFFCURVE",
"647 -7 OFFCURVE",
"649 -5 CURVE SMOOTH",
"674 21 LINE SMOOTH",
"676 23 OFFCURVE",
"676 27 OFFCURVE",
"674 29 CURVE SMOOTH",
"482 220 LINE"
);
}
);
width = 732;
}
);
unicode = 0051;
},
{
glyphname = R;
lastChange = "2018-04-04 19:55:25 +0000";
layers = (
{
layerId = "644D3D1A-706E-4D36-8EE1-81638A7D248A";
paths = (
{
closed = 1;
nodes = (
"60 7 OFFCURVE",
"67 0 OFFCURVE",
"75 0 CURVE SMOOTH",
"187 0 LINE SMOOTH",
"195 0 OFFCURVE",
"202 7 OFFCURVE",
"202 15 CURVE SMOOTH",
"202 225 LINE SMOOTH",
"202 234 OFFCURVE",
"208 240 OFFCURVE",
"217 240 CURVE SMOOTH",
"399 240 LINE SMOOTH",
"450 240 OFFCURVE",
"456 230 OFFCURVE",
"456 142 CURVE SMOOTH",
"456 15 LINE SMOOTH",
"456 6 OFFCURVE",
"462 0 OFFCURVE",
"471 0 CURVE SMOOTH",
"583 0 LINE SMOOTH",
"592 0 OFFCURVE",
"598 6 OFFCURVE",
"598 15 CURVE SMOOTH",
"598 142 LINE SMOOTH",
"598 243 OFFCURVE",
"549 299 OFFCURVE",
"462 299 CURVE",
"455 316 LINE",
"547 316 OFFCURVE",
"598 371 OFFCURVE",
"598 470 CURVE SMOOTH",
"598 647 OFFCURVE",
"553 700 OFFCURVE",
"399 700 CURVE SMOOTH",
"75 700 LINE SMOOTH",
"67 700 OFFCURVE",
"60 693 OFFCURVE",
"60 685 CURVE SMOOTH",
"60 15 LINE SMOOTH"
);
},
{
closed = 1;
nodes = (
"202 553 LINE SMOOTH",
"202 562 OFFCURVE",
"208 568 OFFCURVE",
"217 568 CURVE SMOOTH",
"399 568 LINE SMOOTH",
"450 568 OFFCURVE",
"456 558 OFFCURVE",
"456 470 CURVE SMOOTH",
"456 383 OFFCURVE",
"450 375 OFFCURVE",
"399 372 CURVE",
"217 372 LINE SMOOTH",
"208 372 OFFCURVE",
"202 378 OFFCURVE",
"202 387 CURVE SMOOTH"
);
}
);
width = 648;
},
{
layerId = "DBDE1730-7CB6-4711-8383-3CA3AF6893BF";
paths = (
{
closed = 1;
nodes = (
"60 3 OFFCURVE",
"63 0 OFFCURVE",
"66 0 CURVE SMOOTH",
"99 0 LINE SMOOTH",
"102 0 OFFCURVE",
"105 3 OFFCURVE",
"105 6 CURVE SMOOTH",
"105 298 LINE SMOOTH",
"105 302 OFFCURVE",
"107 304 OFFCURVE",
"111 304 CURVE SMOOTH",
"345 304 LINE SMOOTH",
"371 304 OFFCURVE",
"390 272 OFFCURVE",
"421 178 CURVE SMOOTH",
"478 5 LINE",
"479 1 OFFCURVE",
"482 0 OFFCURVE",
"485 0 CURVE SMOOTH",
"521 0 LINE SMOOTH",
"525 0 OFFCURVE",
"527 3 OFFCURVE",
"526 7 CURVE",
"469 178 LINE SMOOTH",
"431 293 OFFCURVE",
"422 307 OFFCURVE",
"395 317 CURVE",
"392 325 LINE",
"465 356 OFFCURVE",
"514 427 OFFCURVE",
"514 502 CURVE SMOOTH",
"514 621 OFFCURVE",
"429 700 OFFCURVE",
"301 700 CURVE SMOOTH",
"66 700 LINE SMOOTH",
"63 700 OFFCURVE",
"60 697 OFFCURVE",
"60 694 CURVE SMOOTH",
"60 6 LINE SMOOTH"
);
},
{
closed = 1;
nodes = (
"105 652 LINE SMOOTH",
"105 656 OFFCURVE",
"107 658 OFFCURVE",
"111 658 CURVE SMOOTH",
"301 658 LINE SMOOTH",
"400 658 OFFCURVE",
"466 596 OFFCURVE",
"466 502 CURVE SMOOTH",
"466 408 OFFCURVE",
"400 346 OFFCURVE",
"301 346 CURVE SMOOTH",
"111 346 LINE SMOOTH",
"107 346 OFFCURVE",
"105 348 OFFCURVE",
"105 352 CURVE SMOOTH"
);
}
);
width = 586;
},
{
associatedMasterId = "644D3D1A-706E-4D36-8EE1-81638A7D248A";
layerId = "65CEEDF1-BD89-4DBC-9947-5241A9BF8B6A";
name = "Apr 1 18, 12:04";
paths = (
{
closed = 1;
nodes = (
"202 685 LINE SMOOTH",
"202 693 OFFCURVE",
"195 700 OFFCURVE",
"187 700 CURVE SMOOTH",
"75 700 LINE SMOOTH",
"67 700 OFFCURVE",
"60 693 OFFCURVE",
"60 685 CURVE SMOOTH",
"60 15 LINE SMOOTH",
"60 7 OFFCURVE",
"67 0 OFFCURVE",
"75 0 CURVE SMOOTH",
"187 0 LINE SMOOTH",
"195 0 OFFCURVE",
"202 7 OFFCURVE",
"202 15 CURVE SMOOTH"
);
},
{
closed = 1;
nodes = (
"571 306 OFFCURVE",
"598 336 OFFCURVE",
"598 470 CURVE SMOOTH",
"598 657 OFFCURVE",
"561 700 OFFCURVE",
"399 700 CURVE",
"96 700 LINE",
"96 568 LINE",
"399 568 LINE",
"450 568 OFFCURVE",
"456 558 OFFCURVE",
"456 470 CURVE SMOOTH",
"456 383 OFFCURVE",
"450 375 OFFCURVE",
"399 372 CURVE",
"96 372 LINE",
"96 306 LINE",
"450 306 LINE"
);
},
{
closed = 1;
nodes = (
"598 142 LINE",
"598 276 OFFCURVE",
"571 306 OFFCURVE",
"450 306 CURVE",
"96 306 LINE",
"96 240 LINE",
"399 240 LINE",
"450 240 OFFCURVE",
"456 230 OFFCURVE",
"456 142 CURVE",
"456 0 LINE",
"598 0 LINE"
);
}
);
width = 648;
},
{
associatedMasterId = "DBDE1730-7CB6-4711-8383-3CA3AF6893BF";
layerId = "6DD9F776-564A-4895-9C9F-DF9694ACDEE0";
name = "Apr 1 18, 12:04";
paths = (
{
closed = 1;
nodes = (
"435 304 OFFCURVE",
"524 384 OFFCURVE",
"524 502 CURVE SMOOTH",
"524 621 OFFCURVE",
"435 700 OFFCURVE",
"301 700 CURVE SMOOTH",
"81 700 LINE",
"81 658 LINE",
"301 658 LINE SMOOTH",
"406 658 OFFCURVE",
"476 596 OFFCURVE",
"476 502 CURVE SMOOTH",
"476 408 OFFCURVE",
"406 346 OFFCURVE",
"301 346 CURVE SMOOTH",
"81 346 LINE",
"81 304 LINE",
"301 304 LINE SMOOTH"
);
},
{
closed = 1;
nodes = (
"105 694 LINE SMOOTH",
"105 697 OFFCURVE",
"102 700 OFFCURVE",
"99 700 CURVE SMOOTH",
"66 700 LINE SMOOTH",
"63 700 OFFCURVE",
"60 697 OFFCURVE",
"60 694 CURVE SMOOTH",
"60 6 LINE SMOOTH",
"60 3 OFFCURVE",
"63 0 OFFCURVE",
"66 0 CURVE SMOOTH",
"99 0 LINE SMOOTH",
"102 0 OFFCURVE",
"105 3 OFFCURVE",
"105 6 CURVE SMOOTH"
);
},
{
closed = 1;
nodes = (
"518 148 LINE",
"518 267 OFFCURVE",
"429 346 OFFCURVE",
"295 346 CURVE SMOOTH",
"205 346 LINE",
"205 304 LINE",
"295 304 LINE SMOOTH",
"400 304 OFFCURVE",
"470 242 OFFCURVE",
"470 148 CURVE",
"470 0 LINE",
"518 0 LINE"
);
}
);
width = 600;
},
{
associatedMasterId = "DBDE1730-7CB6-4711-8383-3CA3AF6893BF";
layerId = "3D481D45-8F6D-4885-82B6-C2424DFF0628";
name = "Apr 1 18, 12:08";
paths = (
{
closed = 1;
nodes = (
"433 304 OFFCURVE",
"524 384 OFFCURVE",
"524 502 CURVE SMOOTH",
"524 621 OFFCURVE",
"435 700 OFFCURVE",
"301 700 CURVE SMOOTH",
"81 700 LINE",
"81 658 LINE",
"301 658 LINE SMOOTH",
"406 658 OFFCURVE",
"476 596 OFFCURVE",
"476 502 CURVE SMOOTH",
"476 408 OFFCURVE",
"406 346 OFFCURVE",
"301 346 CURVE SMOOTH",
"81 346 LINE",
"81 304 LINE",
"301 304 LINE SMOOTH"
);
},
{
closed = 1;
nodes = (
"105 694 LINE SMOOTH",
"105 697 OFFCURVE",
"102 700 OFFCURVE",
"99 700 CURVE SMOOTH",
"66 700 LINE SMOOTH",
"63 700 OFFCURVE",
"60 697 OFFCURVE",
"60 694 CURVE SMOOTH",
"60 6 LINE SMOOTH",
"60 3 OFFCURVE",
"63 0 OFFCURVE",
"66 0 CURVE SMOOTH",
"99 0 LINE SMOOTH",
"102 0 OFFCURVE",
"105 3 OFFCURVE",
"105 6 CURVE SMOOTH"
);
},
{
closed = 1;
nodes = (
"469 178 LINE",
"425 306 OFFCURVE",
"413 322 OFFCURVE",
"345 346 CURVE",
"185 346 LINE",
"185 304 LINE",
"345 304 LINE",
"371 304 OFFCURVE",
"388 271 OFFCURVE",
"421 178 CURVE",
"480 0 LINE",
"528 0 LINE"
);
}
);
width = 600;
},
{
associatedMasterId = "644D3D1A-706E-4D36-8EE1-81638A7D248A";
layerId = "EAB275BC-7B34-4BDD-AA87-986CC12E6F8F";
name = "Apr 2 18, 18:41";
paths = (
{
closed = 1;
nodes = (
"60 7 OFFCURVE",
"67 0 OFFCURVE",
"75 0 CURVE SMOOTH",
"187 0 LINE SMOOTH",
"195 0 OFFCURVE",
"202 7 OFFCURVE",
"202 15 CURVE SMOOTH",
"202 240 LINE",
"399 240 LINE SMOOTH",
"450 240 OFFCURVE",
"456 230 OFFCURVE",
"456 142 CURVE SMOOTH",
"456 15 LINE SMOOTH",
"456 6 OFFCURVE",
"462 0 OFFCURVE",
"471 0 CURVE SMOOTH",
"583 0 LINE SMOOTH",
"592 0 OFFCURVE",
"598 6 OFFCURVE",
"598 15 CURVE SMOOTH",
"598 142 LINE SMOOTH",
"598 276 OFFCURVE",
"571 306 OFFCURVE",
"450 306 CURVE",
"571 306 OFFCURVE",
"598 336 OFFCURVE",
"598 470 CURVE SMOOTH",
"598 657 OFFCURVE",
"561 700 OFFCURVE",
"399 700 CURVE SMOOTH",
"75 700 LINE SMOOTH",
"67 700 OFFCURVE",
"60 693 OFFCURVE",
"60 685 CURVE SMOOTH",
"60 15 LINE SMOOTH"
);
},
{
closed = 1;
nodes = (
"202 568 LINE",
"399 568 LINE SMOOTH",
"450 568 OFFCURVE",
"456 558 OFFCURVE",
"456 470 CURVE SMOOTH",
"456 383 OFFCURVE",
"450 375 OFFCURVE",
"399 372 CURVE",
"202 372 LINE"
);
}
);
width = 648;
}
);
unicode = 0052;
},
{
glyphname = S;
lastChange = "2018-04-01 13:57:16 +0000";
layers = (
{
layerId = "644D3D1A-706E-4D36-8EE1-81638A7D248A";
paths = (
{
closed = 1;
nodes = (
"98 704 OFFCURVE",
"33 655 OFFCURVE",
"33 489 CURVE",
"175 489 LINE",
"175 553 OFFCURVE",
"207 572 OFFCURVE",
"317 572 CURVE SMOOTH",
"424 572 OFFCURVE",
"456 552 OFFCURVE",
"456 484 CURVE SMOOTH",
"456 473 OFFCURVE",
"464 464 OFFCURVE",
"476 464 CURVE SMOOTH",
"577 464 LINE SMOOTH",
"589 464 OFFCURVE",
"598 474 OFFCURVE",
"598 487 CURVE SMOOTH",
"598 654 OFFCURVE",
"534 704 OFFCURVE",
"317 704 CURVE SMOOTH"
);
},
{
closed = 1;
nodes = (
"33 190 OFFCURVE",
"463 366 OFFCURVE",
"463 219 CURVE",
"605 219 LINE",
"600 528 OFFCURVE",
"175 352 OFFCURVE",
"175 489 CURVE",
"33 489 LINE"
);
},
{
closed = 1;
nodes = (
"539 -4 OFFCURVE",
"605 47 OFFCURVE",
"605 219 CURVE",
"463 219 LINE",
"463 149 OFFCURVE",
"429 128 OFFCURVE",
"316 128 CURVE SMOOTH",
"205 128 OFFCURVE",
"172 148 OFFCURVE",
"172 214 CURVE SMOOTH",
"172 225 OFFCURVE",
"163 234 OFFCURVE",
"151 234 CURVE SMOOTH",
"50 234 LINE SMOOTH",
"38 234 OFFCURVE",
"30 224 OFFCURVE",
"30 211 CURVE SMOOTH",
"30 45 OFFCURVE",
"95 -4 OFFCURVE",
"316 -4 CURVE SMOOTH"
);
}
);
width = 635;
},
{
layerId = "DBDE1730-7CB6-4711-8383-3CA3AF6893BF";
paths = (
{
closed = 1;
nodes = (
"175 706 OFFCURVE",
"81 634 OFFCURVE",
"80 525 CURVE",
"126 525 LINE",
"127 608 OFFCURVE",
"203 664 OFFCURVE",
"316 664 CURVE SMOOTH",
"432 664 OFFCURVE",
"496 613 OFFCURVE",
"496 519 CURVE SMOOTH",
"496 514 OFFCURVE",
"500 511 OFFCURVE",
"504 511 CURVE SMOOTH",
"533 511 LINE SMOOTH",
"537 511 OFFCURVE",
"541 514 OFFCURVE",
"541 518 CURVE SMOOTH",
"541 639 OFFCURVE",
"461 706 OFFCURVE",
"316 706 CURVE SMOOTH"
);
},
{
closed = 1;
nodes = (
"80 249 OFFCURVE",
"518 402 OFFCURVE",
"518 189 CURVE",
"564 189 LINE",
"564 455 OFFCURVE",
"126 297 OFFCURVE",
"126 525 CURVE",
"80 525 LINE"
);
},
{
closed = 1;
nodes = (
"465 -6 OFFCURVE",
"564 72 OFFCURVE",
"564 189 CURVE",
"518 189 LINE",
"518 97 OFFCURVE",
"437 36 OFFCURVE",
"316 36 CURVE SMOOTH",
"174 36 OFFCURVE",
"95 102 OFFCURVE",
"95 221 CURVE SMOOTH",
"95 226 OFFCURVE",
"91 229 OFFCURVE",
"87 229 CURVE SMOOTH",
"58 229 LINE SMOOTH",
"54 229 OFFCURVE",
"50 226 OFFCURVE",
"50 222 CURVE SMOOTH",
"50 75 OFFCURVE",
"145 -6 OFFCURVE",
"316 -6 CURVE SMOOTH"
);
}
);
width = 614;
}
);
unicode = 0053;
},
{
glyphname = T;
lastChange = "2018-03-31 23:18:08 +0000";
layers = (
{
layerId = "644D3D1A-706E-4D36-8EE1-81638A7D248A";
paths = (
{
closed = 1;
nodes = (
"377 685 LINE SMOOTH",
"377 693 OFFCURVE",
"370 700 OFFCURVE",
"362 700 CURVE SMOOTH",
"250 700 LINE SMOOTH",
"242 700 OFFCURVE",
"235 693 OFFCURVE",
"235 685 CURVE SMOOTH",
"235 15 LINE SMOOTH",
"235 7 OFFCURVE",
"242 0 OFFCURVE",
"250 0 CURVE SMOOTH",
"362 0 LINE SMOOTH",
"370 0 OFFCURVE",
"377 7 OFFCURVE",
"377 15 CURVE SMOOTH"
);
},
{
closed = 1;
nodes = (
"557 568 LINE SMOOTH",
"565 568 OFFCURVE",
"572 575 OFFCURVE",
"572 583 CURVE SMOOTH",
"572 685 LINE SMOOTH",
"572 693 OFFCURVE",
"565 700 OFFCURVE",
"557 700 CURVE SMOOTH",
"45 700 LINE SMOOTH",
"37 700 OFFCURVE",
"30 693 OFFCURVE",
"30 685 CURVE SMOOTH",
"30 583 LINE SMOOTH",
"30 575 OFFCURVE",
"37 568 OFFCURVE",
"45 568 CURVE SMOOTH"
);
}
);
width = 602;
},
{
layerId = "DBDE1730-7CB6-4711-8383-3CA3AF6893BF";
paths = (
{
closed = 1;
nodes = (
"319 694 LINE SMOOTH",
"319 697 OFFCURVE",
"316 700 OFFCURVE",
"313 700 CURVE SMOOTH",
"280 700 LINE SMOOTH",
"277 700 OFFCURVE",
"274 697 OFFCURVE",
"274 694 CURVE SMOOTH",
"274 6 LINE SMOOTH",
"274 3 OFFCURVE",
"277 0 OFFCURVE",
"280 0 CURVE SMOOTH",
"313 0 LINE SMOOTH",
"316 0 OFFCURVE",
"319 3 OFFCURVE",
"319 6 CURVE SMOOTH"
);
},
{
closed = 1;
nodes = (
"546 658 LINE SMOOTH",
"549 658 OFFCURVE",
"552 661 OFFCURVE",
"552 664 CURVE SMOOTH",
"552 694 LINE SMOOTH",
"552 697 OFFCURVE",
"549 700 OFFCURVE",
"546 700 CURVE SMOOTH",
"46 700 LINE SMOOTH",
"43 700 OFFCURVE",
"40 697 OFFCURVE",
"40 694 CURVE SMOOTH",
"40 664 LINE SMOOTH",
"40 661 OFFCURVE",
"43 658 OFFCURVE",
"46 658 CURVE SMOOTH"
);
}
);
width = 592;
}
);
unicode = 0054;
},
{
glyphname = U;
lastChange = "2018-04-01 00:14:17 +0000";
layers = (
{
layerId = "644D3D1A-706E-4D36-8EE1-81638A7D248A";
paths = (
{
closed = 1;
nodes = (
"519 700 LINE SMOOTH",
"510 700 OFFCURVE",
"504 694 OFFCURVE",
"504 685 CURVE SMOOTH",
"504 267 LINE SMOOTH",
"504 154 OFFCURVE",
"475 128 OFFCURVE",
"348 128 CURVE SMOOTH",
"221 128 OFFCURVE",
"192 154 OFFCURVE",
"192 267 CURVE SMOOTH",
"192 685 LINE SMOOTH",
"192 694 OFFCURVE",
"186 700 OFFCURVE",
"177 700 CURVE SMOOTH",
"65 700 LINE SMOOTH",
"56 700 OFFCURVE",
"50 694 OFFCURVE",
"50 685 CURVE SMOOTH",
"50 267 LINE SMOOTH",
"50 46 OFFCURVE",
"105 -4 OFFCURVE",
"348 -4 CURVE SMOOTH",
"591 -4 OFFCURVE",
"646 46 OFFCURVE",
"646 267 CURVE SMOOTH",
"646 685 LINE SMOOTH",
"646 694 OFFCURVE",
"640 700 OFFCURVE",
"631 700 CURVE SMOOTH"
);
}
);
width = 696;
},
{
layerId = "DBDE1730-7CB6-4711-8383-3CA3AF6893BF";
paths = (
{
closed = 1;
nodes = (
"603 700 LINE SMOOTH",
"599 700 OFFCURVE",
"597 698 OFFCURVE",
"597 694 CURVE SMOOTH",
"597 288 LINE SMOOTH",
"597 137 OFFCURVE",
"503 36 OFFCURVE",
"366 36 CURVE SMOOTH",
"235 36 OFFCURVE",
"145 137 OFFCURVE",
"145 288 CURVE SMOOTH",
"145 694 LINE SMOOTH",
"145 698 OFFCURVE",
"143 700 OFFCURVE",
"139 700 CURVE SMOOTH",
"106 700 LINE SMOOTH",
"102 700 OFFCURVE",
"100 698 OFFCURVE",
"100 694 CURVE SMOOTH",
"100 288 LINE SMOOTH",
"100 112 OFFCURVE",
"206 -6 OFFCURVE",
"366 -6 CURVE SMOOTH",
"532 -6 OFFCURVE",
"642 112 OFFCURVE",
"642 288 CURVE SMOOTH",
"642 694 LINE SMOOTH",
"642 698 OFFCURVE",
"640 700 OFFCURVE",
"636 700 CURVE SMOOTH"
);
}
);
width = 732;
}
);
unicode = 0055;
},
{
glyphname = V;
lastChange = "2018-03-31 23:53:07 +0000";
layers = (
{
layerId = "644D3D1A-706E-4D36-8EE1-81638A7D248A";
paths = (
{
closed = 1;
nodes = (
"251 15 LINE",
"253 7 OFFCURVE",
"258 0 OFFCURVE",
"266 0 CURVE SMOOTH",
"435 0 LINE SMOOTH",
"443 0 OFFCURVE",
"448 7 OFFCURVE",
"450 15 CURVE",
"660 685 LINE",
"663 697 OFFCURVE",
"660 700 OFFCURVE",
"645 700 CURVE SMOOTH",
"543 700 LINE SMOOTH",
"525 700 OFFCURVE",
"521 697 OFFCURVE",
"518 685 CURVE",
"359 163 LINE SMOOTH",
"350 133 OFFCURVE",
"349 133 OFFCURVE",
"340 163 CURVE SMOOTH",
"173 685 LINE",
"170 697 OFFCURVE",
"166 700 OFFCURVE",
"148 700 CURVE SMOOTH",
"46 700 LINE SMOOTH",
"31 700 OFFCURVE",
"28 697 OFFCURVE",
"31 685 CURVE"
);
}
);
width = 691;
},
{
layerId = "DBDE1730-7CB6-4711-8383-3CA3AF6893BF";
paths = (
{
closed = 1;
nodes = (
"291 4 LINE SMOOTH",
"292 1 OFFCURVE",
"295 0 OFFCURVE",
"298 0 CURVE SMOOTH",
"340 0 LINE SMOOTH",
"343 0 OFFCURVE",
"346 1 OFFCURVE",
"347 4 CURVE SMOOTH",
"598 693 LINE",
"599 697 OFFCURVE",
"598 700 OFFCURVE",
"594 700 CURVE SMOOTH",
"562 700 LINE SMOOTH",
"559 700 OFFCURVE",
"556 699 OFFCURVE",
"555 695 CURVE",
"323 57 LINE SMOOTH",
"321 51 OFFCURVE",
"317 51 OFFCURVE",
"315 57 CURVE SMOOTH",
"83 695 LINE",
"82 699 OFFCURVE",
"79 700 OFFCURVE",
"76 700 CURVE SMOOTH",
"44 700 LINE SMOOTH",
"40 700 OFFCURVE",
"39 697 OFFCURVE",
"40 693 CURVE"
);
}
);
width = 638;
}
);
unicode = 0056;
},
{
glyphname = W;
lastChange = "2018-04-01 00:30:37 +0000";
layers = (
{
layerId = "644D3D1A-706E-4D36-8EE1-81638A7D248A";
paths = (
{
closed = 1;
nodes = (
"221 15 LINE",
"223 7 OFFCURVE",
"228 0 OFFCURVE",
"236 0 CURVE SMOOTH",
"405 0 LINE SMOOTH",
"413 0 OFFCURVE",
"418 7 OFFCURVE",
"420 15 CURVE",
"559 526 LINE SMOOTH",
"567 556 OFFCURVE",
"569 556 OFFCURVE",
"578 526 CURVE SMOOTH",
"725 15 LINE",
"727 7 OFFCURVE",
"732 0 OFFCURVE",
"740 0 CURVE SMOOTH",
"909 0 LINE SMOOTH",
"917 0 OFFCURVE",
"922 7 OFFCURVE",
"924 15 CURVE SMOOTH",
"1104 685 LINE SMOOTH",
"1107 697 OFFCURVE",
"1104 700 OFFCURVE",
"1089 700 CURVE SMOOTH",
"987 700 LINE SMOOTH",
"969 700 OFFCURVE",
"965 697 OFFCURVE",
"962 685 CURVE SMOOTH",
"833 163 LINE SMOOTH",
"826 133 OFFCURVE",
"822 133 OFFCURVE",
"814 163 CURVE SMOOTH",
"677 685 LINE SMOOTH",
"674 697 OFFCURVE",
"670 700 OFFCURVE",
"652 700 CURVE SMOOTH",
"483 700 LINE SMOOTH",
"465 700 OFFCURVE",
"461 697 OFFCURVE",
"458 685 CURVE SMOOTH",
"329 163 LINE SMOOTH",
"322 133 OFFCURVE",
"318 133 OFFCURVE",
"310 163 CURVE SMOOTH",
"173 685 LINE SMOOTH",
"170 697 OFFCURVE",
"166 700 OFFCURVE",
"148 700 CURVE SMOOTH",
"46 700 LINE SMOOTH",
"31 700 OFFCURVE",
"28 697 OFFCURVE",
"31 685 CURVE"
);
}
);
width = 1135;
},
{
layerId = "DBDE1730-7CB6-4711-8383-3CA3AF6893BF";
paths = (
{
closed = 1;
nodes = (
"281 4 LINE SMOOTH",
"282 1 OFFCURVE",
"285 0 OFFCURVE",
"288 0 CURVE SMOOTH",
"330 0 LINE SMOOTH",
"333 0 OFFCURVE",
"336 1 OFFCURVE",
"337 4 CURVE SMOOTH",
"534 638 LINE SMOOTH",
"536 644 OFFCURVE",
"540 644 OFFCURVE",
"542 638 CURVE SMOOTH",
"739 4 LINE SMOOTH",
"740 1 OFFCURVE",
"743 0 OFFCURVE",
"746 0 CURVE SMOOTH",
"788 0 LINE SMOOTH",
"791 0 OFFCURVE",
"794 1 OFFCURVE",
"795 4 CURVE SMOOTH",
"1016 693 LINE",
"1017 697 OFFCURVE",
"1016 700 OFFCURVE",
"1012 700 CURVE SMOOTH",
"980 700 LINE SMOOTH",
"977 700 OFFCURVE",
"974 699 OFFCURVE",
"973 695 CURVE",
"771 57 LINE SMOOTH",
"769 51 OFFCURVE",
"765 51 OFFCURVE",
"763 57 CURVE SMOOTH",
"571 695 LINE",
"570 699 OFFCURVE",
"567 700 OFFCURVE",
"564 700 CURVE SMOOTH",
"512 700 LINE SMOOTH",
"509 700 OFFCURVE",
"506 699 OFFCURVE",
"505 695 CURVE",
"313 57 LINE SMOOTH",
"311 51 OFFCURVE",
"307 51 OFFCURVE",
"305 57 CURVE SMOOTH",
"103 695 LINE",
"102 699 OFFCURVE",
"99 700 OFFCURVE",
"96 700 CURVE SMOOTH",
"64 700 LINE SMOOTH",
"60 700 OFFCURVE",
"59 697 OFFCURVE",
"60 693 CURVE"
);
}
);
width = 1076;
}
);
unicode = 0057;
},
{
glyphname = X;
lastChange = "2018-04-01 00:38:04 +0000";
layers = (
{
layerId = "644D3D1A-706E-4D36-8EE1-81638A7D248A";
paths = (
{
closed = 1;
nodes = (
"27 8 OFFCURVE",
"31 0 OFFCURVE",
"43 0 CURVE SMOOTH",
"151 0 LINE SMOOTH",
"159 0 OFFCURVE",
"165 4 OFFCURVE",
"169 10 CURVE SMOOTH",
"336 279 LINE",
"502 10 LINE SMOOTH",
"506 4 OFFCURVE",
"512 0 OFFCURVE",
"520 0 CURVE SMOOTH",
"628 0 LINE SMOOTH",
"640 0 OFFCURVE",
"644 8 OFFCURVE",
"638 18 CURVE",
"419 369 LINE",
"618 682 LINE SMOOTH",
"625 693 OFFCURVE",
"620 700 OFFCURVE",
"608 700 CURVE SMOOTH",
"489 700 LINE SMOOTH",
"481 700 OFFCURVE",
"475 697 OFFCURVE",
"471 690 CURVE",
"335 462 LINE",
"200 690 LINE",
"196 697 OFFCURVE",
"190 700 OFFCURVE",
"182 700 CURVE SMOOTH",
"63 700 LINE SMOOTH",
"51 700 OFFCURVE",
"46 693 OFFCURVE",
"53 682 CURVE SMOOTH",
"252 369 LINE",
"33 18 LINE"
);
}
);
width = 671;
},
{
layerId = "DBDE1730-7CB6-4711-8383-3CA3AF6893BF";
paths = (
{
closed = 1;
nodes = (
"63 3 OFFCURVE",
"64 0 OFFCURVE",
"69 0 CURVE SMOOTH",
"102 0 LINE SMOOTH",
"105 0 OFFCURVE",
"108 2 OFFCURVE",
"110 4 CURVE",
"322 332 LINE",
"534 4 LINE",
"536 2 OFFCURVE",
"539 0 OFFCURVE",
"542 0 CURVE SMOOTH",
"575 0 LINE SMOOTH",
"580 0 OFFCURVE",
"581 3 OFFCURVE",
"579 7 CURVE",
"345.478 365.345 LINE",
"559 693 LINE",
"561 697 OFFCURVE",
"560 700 OFFCURVE",
"555 700 CURVE SMOOTH",
"522 700 LINE SMOOTH",
"519 700 OFFCURVE",
"516 698 OFFCURVE",
"514 696 CURVE",
"322 398 LINE",
"130 696 LINE",
"128 698 OFFCURVE",
"125 700 OFFCURVE",
"122 700 CURVE SMOOTH",
"89 700 LINE SMOOTH",
"84 700 OFFCURVE",
"83 697 OFFCURVE",
"85 693 CURVE",
"298.522 365.345 LINE",
"65 7 LINE"
);
}
);
width = 654;
},
{
associatedMasterId = "DBDE1730-7CB6-4711-8383-3CA3AF6893BF";
layerId = "C2267AB3-76F4-4098-92D7-DE73425A27C2";
name = "Apr 1 18, 02:36";
paths = (
{
closed = 1;
nodes = (
"89 700 LINE SMOOTH",
"84 700 OFFCURVE",
"83 697 OFFCURVE",
"85 693 CURVE SMOOTH",
"534 4 LINE SMOOTH",
"536 2 OFFCURVE",
"539 0 OFFCURVE",
"542 0 CURVE SMOOTH",
"575 0 LINE SMOOTH",
"580 0 OFFCURVE",
"581 3 OFFCURVE",
"579 7 CURVE SMOOTH",
"130 696 LINE SMOOTH",
"128 698 OFFCURVE",
"125 700 OFFCURVE",
"122 700 CURVE SMOOTH"
);
},
{
closed = 1;
nodes = (
"65 7 LINE SMOOTH",
"63 3 OFFCURVE",
"64 0 OFFCURVE",
"69 0 CURVE SMOOTH",
"102 0 LINE SMOOTH",
"105 0 OFFCURVE",
"108 2 OFFCURVE",
"110 4 CURVE SMOOTH",
"559 693 LINE SMOOTH",
"561 697 OFFCURVE",
"560 700 OFFCURVE",
"555 700 CURVE SMOOTH",
"522 700 LINE SMOOTH",
"519 700 OFFCURVE",
"516 698 OFFCURVE",
"514 696 CURVE SMOOTH"
);
}
);
width = 654;
},
{
associatedMasterId = "644D3D1A-706E-4D36-8EE1-81638A7D248A";
layerId = "A76C4530-942D-4154-A43B-6AE34C98C95C";
name = "Apr 1 18, 02:36";
paths = (
{
closed = 1;
nodes = (
"63 700 LINE SMOOTH",
"51 700 OFFCURVE",
"46 693 OFFCURVE",
"53 682 CURVE SMOOTH",
"502 10 LINE SMOOTH",
"506 4 OFFCURVE",
"512 0 OFFCURVE",
"520 0 CURVE SMOOTH",
"628 0 LINE SMOOTH",
"640 0 OFFCURVE",
"644 8 OFFCURVE",
"638 18 CURVE SMOOTH",
"200 690 LINE SMOOTH",
"196 697 OFFCURVE",
"190 700 OFFCURVE",
"182 700 CURVE SMOOTH"
);
},
{
closed = 1;
nodes = (
"33 18 LINE SMOOTH",
"27 8 OFFCURVE",
"31 0 OFFCURVE",
"43 0 CURVE SMOOTH",
"151 0 LINE SMOOTH",
"159 0 OFFCURVE",
"165 4 OFFCURVE",
"169 10 CURVE SMOOTH",
"618 682 LINE SMOOTH",
"625 693 OFFCURVE",
"620 700 OFFCURVE",
"608 700 CURVE SMOOTH",
"489 700 LINE SMOOTH",
"481 700 OFFCURVE",
"475 697 OFFCURVE",
"471 690 CURVE SMOOTH"
);
}
);
width = 671;
}
);
unicode = 0058;
},
{
glyphname = Y;
lastChange = "2018-04-01 01:40:06 +0000";
layers = (
{
layerId = "644D3D1A-706E-4D36-8EE1-81638A7D248A";
paths = (
{
closed = 1;
nodes = (
"422 385 LINE SMOOTH",
"422 393 OFFCURVE",
"415 400 OFFCURVE",
"407 400 CURVE SMOOTH",
"295 400 LINE SMOOTH",
"287 400 OFFCURVE",
"280 393 OFFCURVE",
"280 385 CURVE SMOOTH",
"280 15 LINE SMOOTH",
"280 7 OFFCURVE",
"287 0 OFFCURVE",
"295 0 CURVE SMOOTH",
"407 0 LINE SMOOTH",
"415 0 OFFCURVE",
"422 7 OFFCURVE",
"422 15 CURVE SMOOTH"
);
},
{
closed = 1;
nodes = (
"395 362 LINE",
"181 690 LINE SMOOTH",
"177 697 OFFCURVE",
"171 700 OFFCURVE",
"163 700 CURVE SMOOTH",
"44 700 LINE SMOOTH",
"32 700 OFFCURVE",
"26 693 OFFCURVE",
"34 682 CURVE SMOOTH",
"318 257 LINE"
);
},
{
closed = 1;
nodes = (
"668 682 LINE SMOOTH",
"675 693 OFFCURVE",
"670 700 OFFCURVE",
"658 700 CURVE SMOOTH",
"539 700 LINE SMOOTH",
"531 700 OFFCURVE",
"525 697 OFFCURVE",
"521 690 CURVE SMOOTH",
"307 362 LINE",
"384 257 LINE"
);
}
);
width = 701;
},
{
layerId = "DBDE1730-7CB6-4711-8383-3CA3AF6893BF";
paths = (
{
closed = 1;
nodes = (
"320 392 LINE SMOOTH",
"320 395 OFFCURVE",
"317 398 OFFCURVE",
"314 398 CURVE SMOOTH",
"281 398 LINE SMOOTH",
"278 398 OFFCURVE",
"275 395 OFFCURVE",
"275 392 CURVE SMOOTH",
"275 6 LINE SMOOTH",
"275 3 OFFCURVE",
"278 0 OFFCURVE",
"281 0 CURVE SMOOTH",
"314 0 LINE SMOOTH",
"317 0 OFFCURVE",
"320 3 OFFCURVE",
"320 6 CURVE SMOOTH"
);
},
{
closed = 1;
nodes = (
"298 398 LINE",
"106 696 LINE",
"104 698 OFFCURVE",
"101 700 OFFCURVE",
"98 700 CURVE SMOOTH",
"65 700 LINE SMOOTH",
"60 700 OFFCURVE",
"59 697 OFFCURVE",
"61 693 CURVE",
"275 365 LINE"
);
},
{
closed = 1;
nodes = (
"533 693 LINE",
"535 697 OFFCURVE",
"534 700 OFFCURVE",
"529 700 CURVE SMOOTH",
"496 700 LINE SMOOTH",
"493 700 OFFCURVE",
"490 698 OFFCURVE",
"488 696 CURVE",
"296 398 LINE",
"320 365 LINE"
);
}
);
width = 594;
}
);
unicode = 0059;
},
{
glyphname = Z;
lastChange = "2018-03-31 23:52:01 +0000";
layers = (
{
layerId = "644D3D1A-706E-4D36-8EE1-81638A7D248A";
paths = (
{
closed = 1;
nodes = (
"60 583 LINE SMOOTH",
"60 574 OFFCURVE",
"66 568 OFFCURVE",
"75 568 CURVE SMOOTH",
"375 568 LINE SMOOTH",
"398 568 OFFCURVE",
"398 569 OFFCURVE",
"383 550 CURVE SMOOTH",
"78 159 LINE SMOOTH",
"56 131 OFFCURVE",
"50 127 OFFCURVE",
"50 96 CURVE SMOOTH",
"50 15 LINE SMOOTH",
"50 6 OFFCURVE",
"56 0 OFFCURVE",
"65 0 CURVE SMOOTH",
"563 0 LINE SMOOTH",
"572 0 OFFCURVE",
"578 6 OFFCURVE",
"578 15 CURVE SMOOTH",
"578 117 LINE SMOOTH",
"578 126 OFFCURVE",
"572 132 OFFCURVE",
"563 132 CURVE SMOOTH",
"254 132 LINE SMOOTH",
"231 132 OFFCURVE",
"232 132 OFFCURVE",
"246 150 CURVE SMOOTH",
"550 541 LINE SMOOTH",
"572 570 OFFCURVE",
"578 571 OFFCURVE",
"578 593 CURVE SMOOTH",
"578 685 LINE SMOOTH",
"578 694 OFFCURVE",
"572 700 OFFCURVE",
"563 700 CURVE SMOOTH",
"75 700 LINE SMOOTH",
"66 700 OFFCURVE",
"60 694 OFFCURVE",
"60 685 CURVE SMOOTH"
);
}
);
width = 628;
},
{
layerId = "DBDE1730-7CB6-4711-8383-3CA3AF6893BF";
paths = (
{
closed = 1;
nodes = (
"80 664 LINE SMOOTH",
"80 660 OFFCURVE",
"82 658 OFFCURVE",
"86 658 CURVE SMOOTH",
"475 658 LINE SMOOTH",
"480 658 OFFCURVE",
"481 655 OFFCURVE",
"478 651 CURVE SMOOTH",
"63 45 LINE SMOOTH",
"61 42 OFFCURVE",
"60 41 OFFCURVE",
"60 38 CURVE SMOOTH",
"60 6 LINE SMOOTH",
"60 2 OFFCURVE",
"63 0 OFFCURVE",
"66 0 CURVE SMOOTH",
"532 0 LINE SMOOTH",
"536 0 OFFCURVE",
"538 2 OFFCURVE",
"538 6 CURVE SMOOTH",
"538 36 LINE SMOOTH",
"538 40 OFFCURVE",
"536 42 OFFCURVE",
"532 42 CURVE SMOOTH",
"123 42 LINE SMOOTH",
"118 42 OFFCURVE",
"117 45 OFFCURVE",
"120 49 CURVE SMOOTH",
"535 655 LINE SMOOTH",
"537 658 OFFCURVE",
"538 659 OFFCURVE",
"538 662 CURVE SMOOTH",
"538 694 LINE SMOOTH",
"538 698 OFFCURVE",
"536 700 OFFCURVE",
"532 700 CURVE SMOOTH",
"86 700 LINE SMOOTH",
"82 700 OFFCURVE",
"80 698 OFFCURVE",
"80 694 CURVE SMOOTH"
);
}
);
width = 600;
}
);
unicode = 005A;
},
{
glyphname = a;
lastChange = "2018-04-01 16:26:58 +0000";
layers = (
{
layerId = "644D3D1A-706E-4D36-8EE1-81638A7D248A";
paths = (
{
closed = 1;
nodes = (
"333 -4 OFFCURVE",
"365 11 OFFCURVE",
"385 69 CURVE",
"391 72 LINE",
"391 149 LINE",
"391 111 OFFCURVE",
"380 107 OFFCURVE",
"280 107 CURVE SMOOTH",
"185 107 OFFCURVE",
"174 111 OFFCURVE",
"174 149 CURVE SMOOTH",
"174 189 OFFCURVE",
"185 193 OFFCURVE",
"280 193 CURVE SMOOTH",
"380 193 OFFCURVE",
"391 189 OFFCURVE",
"391 149 CURVE",
"391 246 LINE",
"370 287 OFFCURVE",
"334 297 OFFCURVE",
"216 297 CURVE SMOOTH",
"103 297 OFFCURVE",
"50 251 OFFCURVE",
"50 142 CURVE SMOOTH",
"50 33 OFFCURVE",
"103 -4 OFFCURVE",
"216 -4 CURVE SMOOTH"
);
},
{
closed = 1;
nodes = (
"132 504 OFFCURVE",
"62 455 OFFCURVE",
"62 349 CURVE SMOOTH",
"62 340 OFFCURVE",
"69 333 OFFCURVE",
"78 333 CURVE SMOOTH",
"174 333 LINE SMOOTH",
"180 333 OFFCURVE",
"186 337 OFFCURVE",
"186 342 CURVE SMOOTH",
"186 377 OFFCURVE",
"199 383 OFFCURVE",
"287 383 CURVE SMOOTH",
"381 383 OFFCURVE",
"391 370 OFFCURVE",
"391 256 CURVE SMOOTH",
"391 72 LINE",
"401 78 LINE",
"391 15 LINE SMOOTH",
"390 7 OFFCURVE",
"398 0 OFFCURVE",
"406 0 CURVE SMOOTH",
"508 0 LINE SMOOTH",
"516 0 OFFCURVE",
"523 7 OFFCURVE",
"523 15 CURVE SMOOTH",
"523 250 LINE SMOOTH",
"523 457 OFFCURVE",
"479 504 OFFCURVE",
"287 504 CURVE SMOOTH"
);
}
);
width = 583;
},
{
layerId = "DBDE1730-7CB6-4711-8383-3CA3AF6893BF";
paths = (
{
closed = 1;
nodes = (
"351 -6 OFFCURVE",
"402 18 OFFCURVE",
"418 70 CURVE",
"422 72 LINE",
"422 158 LINE",
"422 73 OFFCURVE",
"370 34 OFFCURVE",
"241 34 CURVE SMOOTH",
"160 34 OFFCURVE",
"106 80 OFFCURVE",
"106 148 CURVE SMOOTH",
"106 228 OFFCURVE",
"160 281 OFFCURVE",
"241 281 CURVE SMOOTH",
"370 281 OFFCURVE",
"422 242 OFFCURVE",
"422 158 CURVE",
"422 233 LINE",
"403 293 OFFCURVE",
"351 321 OFFCURVE",
"241 321 CURVE SMOOTH",
"132 321 OFFCURVE",
"60 252 OFFCURVE",
"60 148 CURVE SMOOTH",
"60 56 OFFCURVE",
"132 -6 OFFCURVE",
"241 -6 CURVE SMOOTH"
);
},
{
closed = 1;
nodes = (
"149 526 OFFCURVE",
"80 473 OFFCURVE",
"80 377 CURVE SMOOTH",
"80 374 OFFCURVE",
"83 371 OFFCURVE",
"86 371 CURVE SMOOTH",
"117 371 LINE SMOOTH",
"120 371 OFFCURVE",
"123 373 OFFCURVE",
"123 377 CURVE SMOOTH",
"123 447 OFFCURVE",
"177 486 OFFCURVE",
"273 486 CURVE SMOOTH",
"371 486 OFFCURVE",
"422 435 OFFCURVE",
"422 324 CURVE SMOOTH",
"422 72 LINE",
"426 74 LINE",
"422 7 LINE SMOOTH",
"422 3 OFFCURVE",
"424 0 OFFCURVE",
"428 0 CURVE SMOOTH",
"458 0 LINE SMOOTH",
"461 0 OFFCURVE",
"464 3 OFFCURVE",
"464 6 CURVE SMOOTH",
"464 324 LINE SMOOTH",
"464 463 OFFCURVE",
"400 526 OFFCURVE",
"273 526 CURVE SMOOTH"
);
}
);
width = 544;
},
{
associatedMasterId = "644D3D1A-706E-4D36-8EE1-81638A7D248A";
layerId = "03C5437C-E1B1-4AC3-B9BA-C8C739DE5D17";
name = "Primo Draft";
paths = (
{
closed = 1;
nodes = (
"103 388 OFFCURVE",
"109 383 OFFCURVE",
"119 383 CURVE",
"341 383 LINE SMOOTH",
"377 383 OFFCURVE",
"396 360 OFFCURVE",
"396 324 CURVE",
"396 238 OFFCURVE",
"396 151 OFFCURVE",
"396 65 CURVE",
"406 70 LINE",
"403 61 OFFCURVE",
"396 41 OFFCURVE",
"396 32 CURVE",
"396 20 LINE SMOOTH",
"396 8 OFFCURVE",
"404 0 OFFCURVE",
"416 0 CURVE SMOOTH",
"508 0 LINE SMOOTH",
"520 0 OFFCURVE",
"528 8 OFFCURVE",
"528 20 CURVE SMOOTH",
"528 304 LINE SMOOTH",
"528 435 OFFCURVE",
"477 504 OFFCURVE",
"330 504 CURVE SMOOTH",
"241 504 LINE SMOOTH",
"153 504 OFFCURVE",
"109 435 OFFCURVE",
"103 398 CURVE"
);
},
{
closed = 1;
nodes = (
"359 -4 OFFCURVE",
"382 34 OFFCURVE",
"396 65 CURVE",
"396 187 LINE",
"396 156 OFFCURVE",
"376 103 OFFCURVE",
"321 103 CURVE",
"232 103 LINE",
"207 103 OFFCURVE",
"191 123 OFFCURVE",
"191 149 CURVE SMOOTH",
"191 149 OFFCURVE",
"191 149 OFFCURVE",
"191 150 CURVE SMOOTH",
"191 175 OFFCURVE",
"207 197 OFFCURVE",
"232 197 CURVE",
"343 197 LINE",
"361 197 OFFCURVE",
"378 197 OFFCURVE",
"396 197 CURVE",
"396 324 LINE",
"396 304 OFFCURVE",
"388 304 OFFCURVE",
"376 304 CURVE",
"200 304 LINE SMOOTH",
"139 304 OFFCURVE",
"70 257 OFFCURVE",
"70 181 CURVE",
"70 119 LINE",
"70 46 OFFCURVE",
"140 -4 OFFCURVE",
"201 -4 CURVE",
"321 -4 LINE"
);
}
);
width = 583;
},
{
associatedMasterId = "644D3D1A-706E-4D36-8EE1-81638A7D248A";
layerId = "824630DB-A873-4655-AA56-1D0E9A87F7D7";
name = "Altra Forma";
paths = (
{
closed = 1;
nodes = (
"294 -4 OFFCURVE",
"373 -8 OFFCURVE",
"385 69 CURVE",
"391 72 LINE",
"391 166 LINE",
"391 119 OFFCURVE",
"365 98 OFFCURVE",
"278 98 CURVE SMOOTH",
"199 98 OFFCURVE",
"174 111 OFFCURVE",
"174 152 CURVE SMOOTH",
"174 192 OFFCURVE",
"199 206 OFFCURVE",
"278 206 CURVE",
"391 205 LINE",
"391 294 LINE",
"391 309 OFFCURVE",
"274 308 OFFCURVE",
"216 308 CURVE SMOOTH",
"103 308 OFFCURVE",
"50 261 OFFCURVE",
"50 152 CURVE SMOOTH",
"50 43 OFFCURVE",
"103 -4 OFFCURVE",
"216 -4 CURVE SMOOTH"
);
},
{
closed = 1;
nodes = (
"516 0 OFFCURVE",
"523 7 OFFCURVE",
"523 15 CURVE SMOOTH",
"523 250 LINE SMOOTH",
"523 457 OFFCURVE",
"479 504 OFFCURVE",
"287 504 CURVE SMOOTH",
"173 504 OFFCURVE",
"82 454 OFFCURVE",
"82 369 CURVE SMOOTH",
"82 360 OFFCURVE",
"89 353 OFFCURVE",
"98 353 CURVE SMOOTH",
"194 353 LINE SMOOTH",
"200 353 OFFCURVE",
"206 357 OFFCURVE",
"206 362 CURVE SMOOTH",
"206 379 OFFCURVE",
"241 383 OFFCURVE",
"287 383 CURVE SMOOTH",
"381 383 OFFCURVE",
"391 370 OFFCURVE",
"391 250 CURVE SMOOTH",
"391 72 LINE",
"401 78 LINE",
"391 15 LINE SMOOTH",
"390 7 OFFCURVE",
"398 0 OFFCURVE",
"406 0 CURVE SMOOTH",
"508 0 LINE SMOOTH"
);
}
);
width = 583;
},
{
associatedMasterId = "DBDE1730-7CB6-4711-8383-3CA3AF6893BF";
layerId = "479703A2-EB81-4911-9EBE-EA444E491B61";
name = "Mar 20 18, 20:27";
paths = (
{
closed = 1;
nodes = (
"334 -6 OFFCURVE",
"390 31 OFFCURVE",
"402 70 CURVE",
"406 72 LINE",
"406 119 LINE",
"390 73 OFFCURVE",
"324 34 OFFCURVE",
"251 34 CURVE SMOOTH",
"148 34 OFFCURVE",
"106 83 OFFCURVE",
"106 154 CURVE SMOOTH",
"106 225 OFFCURVE",
"154 273 OFFCURVE",
"251 273 CURVE SMOOTH",
"369 273 OFFCURVE",
"402 273 OFFCURVE",
"413 306 CURVE",
"413 349 LINE",
"402 313 OFFCURVE",
"369 313 OFFCURVE",
"251 313 CURVE SMOOTH",
"127 313 OFFCURVE",
"60 249 OFFCURVE",
"60 154 CURVE SMOOTH",
"60 58 OFFCURVE",
"118 -6 OFFCURVE",
"251 -6 CURVE SMOOTH"
);
},
{
closed = 1;
nodes = (
"165 556 OFFCURVE",
"101 484 OFFCURVE",
"101 407 CURVE SMOOTH",
"101 404 OFFCURVE",
"104 401 OFFCURVE",
"107 401 CURVE SMOOTH",
"138 401 LINE SMOOTH",
"141 401 OFFCURVE",
"144 403 OFFCURVE",
"144 407 CURVE SMOOTH",
"144 460 OFFCURVE",
"191 516 OFFCURVE",
"277 516 CURVE SMOOTH",
"360 516 OFFCURVE",
"406 458 OFFCURVE",
"406 354 CURVE SMOOTH",
"406 72 LINE",
"410 74 LINE",
"406 7 LINE SMOOTH",
"406 3 OFFCURVE",
"408 0 OFFCURVE",
"412 0 CURVE SMOOTH",
"442 0 LINE SMOOTH",
"445 0 OFFCURVE",
"448 3 OFFCURVE",
"448 6 CURVE SMOOTH",
"448 354 LINE SMOOTH",
"448 484 OFFCURVE",
"387 556 OFFCURVE",
"277 556 CURVE SMOOTH"
);
}
);
width = 518;
},
{
associatedMasterId = "644D3D1A-706E-4D36-8EE1-81638A7D248A";
layerId = "E575D017-3B01-4111-AA7D-8BAD211B94F2";
name = "Mar 27 18, 22:14";
paths = (
{
closed = 1;
nodes = (
"323 -4 OFFCURVE",
"355 11 OFFCURVE",
"375 69 CURVE",
"381 72 LINE",
"381 215 LINE",
"382 168 OFFCURVE",
"355 107 OFFCURVE",
"268 107 CURVE SMOOTH",
"189 107 OFFCURVE",
"164 108 OFFCURVE",
"164 149 CURVE SMOOTH",
"164 184 OFFCURVE",
"178 193 OFFCURVE",
"268 193 CURVE SMOOTH",
"311 193 OFFCURVE",
"381 203 OFFCURVE",
"381 215 CURVE",
"381 313 LINE",
"381 294 OFFCURVE",
"264 297 OFFCURVE",
"206 297 CURVE SMOOTH",
"93 297 OFFCURVE",
"40 251 OFFCURVE",
"40 142 CURVE SMOOTH",
"40 33 OFFCURVE",
"93 -4 OFFCURVE",
"206 -4 CURVE SMOOTH"
);
},
{
closed = 1;
nodes = (
"136 504 OFFCURVE",
"72 455 OFFCURVE",
"72 349 CURVE SMOOTH",
"72 340 OFFCURVE",
"79 333 OFFCURVE",
"88 333 CURVE SMOOTH",
"184 333 LINE SMOOTH",
"190 333 OFFCURVE",
"196 337 OFFCURVE",
"196 342 CURVE SMOOTH",
"196 370 OFFCURVE",
"214 383 OFFCURVE",
"277 383 CURVE SMOOTH",
"371 383 OFFCURVE",
"381 376 OFFCURVE",
"381 256 CURVE SMOOTH",
"381 72 LINE",
"391 78 LINE",
"381 15 LINE SMOOTH",
"380 7 OFFCURVE",
"388 0 OFFCURVE",
"396 0 CURVE SMOOTH",
"498 0 LINE SMOOTH",
"506 0 OFFCURVE",
"513 7 OFFCURVE",
"513 15 CURVE SMOOTH",
"513 250 LINE SMOOTH",
"513 457 OFFCURVE",
"469 504 OFFCURVE",
"277 504 CURVE SMOOTH"
);
}
);
width = 573;
},
{
associatedMasterId = "DBDE1730-7CB6-4711-8383-3CA3AF6893BF";
layerId = "E92E7925-F2F9-4B94-AB5A-39705D6EABB3";
name = "Apr 1 18, 18:18";
paths = (
{
closed = 1;
nodes = (
"334 -6 OFFCURVE",
"400 31 OFFCURVE",
"412 70 CURVE",
"416 72 LINE",
"416 158 LINE",
"416 35 OFFCURVE",
"324 34 OFFCURVE",
"251 34 CURVE SMOOTH",
"170 34 OFFCURVE",
"106 80 OFFCURVE",
"106 148 CURVE SMOOTH",
"106 228 OFFCURVE",
"170 281 OFFCURVE",
"251 281 CURVE SMOOTH",
"369 281 OFFCURVE",
"416 248 OFFCURVE",
"416 158 CURVE",
"416 233 LINE",
"404 272 OFFCURVE",
"369 321 OFFCURVE",
"251 321 CURVE SMOOTH",
"142 321 OFFCURVE",
"60 252 OFFCURVE",
"60 148 CURVE SMOOTH",
"60 56 OFFCURVE",
"142 -6 OFFCURVE",
"251 -6 CURVE SMOOTH"
);
},
{
closed = 1;
nodes = (
"157 526 OFFCURVE",
"80 466 OFFCURVE",
"80 377 CURVE SMOOTH",
"80 374 OFFCURVE",
"83 371 OFFCURVE",
"86 371 CURVE SMOOTH",
"117 371 LINE SMOOTH",
"120 371 OFFCURVE",
"123 373 OFFCURVE",
"123 377 CURVE SMOOTH",
"123 442 OFFCURVE",
"183 486 OFFCURVE",
"273 486 CURVE SMOOTH",
"371 486 OFFCURVE",
"416 439 OFFCURVE",
"416 314 CURVE SMOOTH",
"416 72 LINE",
"420 74 LINE",
"416 7 LINE SMOOTH",
"416 3 OFFCURVE",
"418 0 OFFCURVE",
"422 0 CURVE SMOOTH",
"452 0 LINE SMOOTH",
"455 0 OFFCURVE",
"458 3 OFFCURVE",
"458 6 CURVE SMOOTH",
"458 314 LINE SMOOTH",
"458 466 OFFCURVE",
"400 526 OFFCURVE",
"273 526 CURVE SMOOTH"
);
}
);
width = 548;
}
);
unicode = 0061;
},
{
glyphname = b;
lastChange = "2018-03-31 14:17:47 +0000";
layers = (
{
layerId = "644D3D1A-706E-4D36-8EE1-81638A7D248A";
paths = (
{
closed = 1;
nodes = (
"65 750 OFFCURVE",
"58 743 OFFCURVE",
"58 735 CURVE SMOOTH",
"58 15 LINE SMOOTH",
"58 7 OFFCURVE",
"65 0 OFFCURVE",
"73 0 CURVE SMOOTH",
"177 0 LINE SMOOTH",
"185 0 OFFCURVE",
"193 7 OFFCURVE",
"192 15 CURVE SMOOTH",
"182 78 LINE",
"192 72 LINE",
"192 428 LINE",
"182 422 LINE",
"192 480 LINE",
"192 735 LINE SMOOTH",
"192 743 OFFCURVE",
"185 750 OFFCURVE",
"177 750 CURVE SMOOTH",
"73 750 LINE SMOOTH"
);
},
{
closed = 1;
nodes = (
"208 18 OFFCURVE",
"279 -4 OFFCURVE",
"349 -4 CURVE SMOOTH",
"517 -4 OFFCURVE",
"567 54 OFFCURVE",
"567 250 CURVE SMOOTH",
"567 446 OFFCURVE",
"517 504 OFFCURVE",
"349 504 CURVE SMOOTH",
"258 504 OFFCURVE",
"208 482 OFFCURVE",
"197 431 CURVE",
"192 428 LINE",
"192 334 LINE",
"192 381 OFFCURVE",
"242 383 OFFCURVE",
"329 383 CURVE SMOOTH",
"415 383 OFFCURVE",
"435 358 OFFCURVE",
"435 250 CURVE SMOOTH",
"435 142 OFFCURVE",
"415 117 OFFCURVE",
"329 117 CURVE SMOOTH",
"242 117 OFFCURVE",
"192 119 OFFCURVE",
"192 166 CURVE",
"192 72 LINE",
"197 69 LINE"
);
}
);
width = 597;
},
{
layerId = "DBDE1730-7CB6-4711-8383-3CA3AF6893BF";
paths = (
{
closed = 1;
nodes = (
"103 800 OFFCURVE",
"100 797 OFFCURVE",
"100 794 CURVE SMOOTH",
"100 6 LINE SMOOTH",
"100 3 OFFCURVE",
"103 0 OFFCURVE",
"106 0 CURVE SMOOTH",
"136 0 LINE SMOOTH",
"140 0 OFFCURVE",
"142 3 OFFCURVE",
"142 7 CURVE SMOOTH",
"138 104 LINE",
"142 102 LINE",
"142 418 LINE",
"138 416 LINE",
"142 483 LINE",
"142 794 LINE SMOOTH",
"142 797 OFFCURVE",
"139 800 OFFCURVE",
"136 800 CURVE SMOOTH",
"106 800 LINE SMOOTH"
);
},
{
closed = 1;
nodes = (
"172 28 OFFCURVE",
"227 -6 OFFCURVE",
"319 -6 CURVE SMOOTH",
"450 -6 OFFCURVE",
"537 99 OFFCURVE",
"537 256 CURVE SMOOTH",
"537 418 OFFCURVE",
"450 526 OFFCURVE",
"319 526 CURVE SMOOTH",
"227 526 OFFCURVE",
"172 492 OFFCURVE",
"146 420 CURVE",
"142 418 LINE",
"142 334 LINE",
"142 413 OFFCURVE",
"193 486 OFFCURVE",
"299 486 CURVE SMOOTH",
"414 486 OFFCURVE",
"491 394 OFFCURVE",
"491 256 CURVE SMOOTH",
"491 123 OFFCURVE",
"414 34 OFFCURVE",
"299 34 CURVE SMOOTH",
"193 34 OFFCURVE",
"142 107 OFFCURVE",
"142 186 CURVE",
"142 102 LINE",
"146 100 LINE"
);
}
);
width = 597;
}
);
unicode = 0062;
},
{
glyphname = c;
lastChange = "2018-04-01 16:26:23 +0000";
layers = (
{
layerId = "644D3D1A-706E-4D36-8EE1-81638A7D248A";
paths = (
{
closed = 1;
nodes = (
"482 -4 OFFCURVE",
"526 29 OFFCURVE",
"526 171 CURVE SMOOTH",
"526 180 OFFCURVE",
"520 187 OFFCURVE",
"511 187 CURVE SMOOTH",
"409 187 LINE SMOOTH",
"401 187 OFFCURVE",
"394 181 OFFCURVE",
"394 173 CURVE SMOOTH",
"394 123 OFFCURVE",
"383 117 OFFCURVE",
"288 117 CURVE SMOOTH",
"193 117 OFFCURVE",
"182 130 OFFCURVE",
"182 250 CURVE SMOOTH",
"182 370 OFFCURVE",
"193 383 OFFCURVE",
"288 383 CURVE SMOOTH",
"383 383 OFFCURVE",
"394 377 OFFCURVE",
"394 327 CURVE SMOOTH",
"394 319 OFFCURVE",
"401 313 OFFCURVE",
"409 313 CURVE SMOOTH",
"511 313 LINE SMOOTH",
"520 313 OFFCURVE",
"526 320 OFFCURVE",
"526 329 CURVE SMOOTH",
"526 471 OFFCURVE",
"482 504 OFFCURVE",
"288 504 CURVE SMOOTH",
"94 504 OFFCURVE",
"50 457 OFFCURVE",
"50 250 CURVE SMOOTH",
"50 43 OFFCURVE",
"94 -4 OFFCURVE",
"288 -4 CURVE SMOOTH"
);
}
);
width = 576;
},
{
layerId = "DBDE1730-7CB6-4711-8383-3CA3AF6893BF";
paths = (
{
closed = 1;
nodes = (
"392 -4 OFFCURVE",
"468 56 OFFCURVE",
"488 146 CURVE SMOOTH",
"489 149 OFFCURVE",
"487 151 OFFCURVE",
"482 151 CURVE SMOOTH",
"452 151 LINE SMOOTH",
"448 151 OFFCURVE",
"446 149 OFFCURVE",
"446 145 CURVE",
"422 80 OFFCURVE",
"362 36 OFFCURVE",
"296 36 CURVE SMOOTH",
"182 36 OFFCURVE",
"106 128 OFFCURVE",
"106 265 CURVE SMOOTH",
"106 398 OFFCURVE",
"182 486 OFFCURVE",
"296 486 CURVE SMOOTH",
"366 486 OFFCURVE",
"426 442 OFFCURVE",
"446 377 CURVE SMOOTH",
"447 373 OFFCURVE",
"449 371 OFFCURVE",
"452 371 CURVE SMOOTH",
"482 371 LINE SMOOTH",
"487 371 OFFCURVE",
"489 373 OFFCURVE",
"488 376 CURVE SMOOTH",
"468 466 OFFCURVE",
"391 526 OFFCURVE",
"296 526 CURVE SMOOTH",
"154 526 OFFCURVE",
"60 422 OFFCURVE",
"60 265 CURVE SMOOTH",
"60 104 OFFCURVE",
"154 -4 OFFCURVE",
"296 -4 CURVE SMOOTH"
);
}
);
width = 548;
}
);
unicode = 0063;
},
{
glyphname = d;
lastChange = "2018-03-31 14:17:40 +0000";
layers = (
{
layerId = "DBDE1730-7CB6-4711-8383-3CA3AF6893BF";
paths = (
{
closed = 1;
nodes = (
"461 800 LINE SMOOTH",
"458 800 OFFCURVE",
"455 797 OFFCURVE",
"455 794 CURVE SMOOTH",
"455 483 LINE",
"459 416 LINE",
"455 418 LINE",
"455 102 LINE",
"459 104 LINE",
"455 7 LINE SMOOTH",
"455 3 OFFCURVE",
"457 0 OFFCURVE",
"461 0 CURVE SMOOTH",
"491 0 LINE SMOOTH",
"494 0 OFFCURVE",
"497 3 OFFCURVE",
"497 6 CURVE SMOOTH",
"497 794 LINE SMOOTH",
"497 797 OFFCURVE",
"494 800 OFFCURVE",
"491 800 CURVE SMOOTH"
);
},
{
closed = 1;
nodes = (
"455 102 LINE",
"455 186 LINE",
"455 107 OFFCURVE",
"404 34 OFFCURVE",
"298 34 CURVE SMOOTH",
"183 34 OFFCURVE",
"106 123 OFFCURVE",
"106 256 CURVE SMOOTH",
"106 394 OFFCURVE",
"183 486 OFFCURVE",
"298 486 CURVE SMOOTH",
"404 486 OFFCURVE",
"455 413 OFFCURVE",
"455 334 CURVE",
"455 418 LINE",
"451 420 LINE",
"425 492 OFFCURVE",
"370 526 OFFCURVE",
"278 526 CURVE SMOOTH",
"147 526 OFFCURVE",
"60 418 OFFCURVE",
"60 256 CURVE SMOOTH",
"60 99 OFFCURVE",
"147 -6 OFFCURVE",
"278 -6 CURVE SMOOTH",
"370 -6 OFFCURVE",
"425 28 OFFCURVE",
"451 100 CURVE"
);
}
);
width = 597;
},
{
associatedMasterId = "644D3D1A-706E-4D36-8EE1-81638A7D248A";
layerId = "CC1DFADC-FAE3-40C7-8AC5-382A79468507";
name = "Mar 20 18, 21:34";
paths = (
{
closed = 1;
nodes = (
"418 700 LINE SMOOTH",
"410 700 OFFCURVE",
"403 693 OFFCURVE",
"403 685 CURVE SMOOTH",
"403 72 LINE",
"413 78 LINE",
"403 15 LINE SMOOTH",
"402 7 OFFCURVE",
"410 0 OFFCURVE",
"418 0 CURVE SMOOTH",
"520 0 LINE SMOOTH",
"528 0 OFFCURVE",
"535 7 OFFCURVE",
"535 15 CURVE SMOOTH",
"535 685 LINE SMOOTH",
"535 693 OFFCURVE",
"528 700 OFFCURVE",
"520 700 CURVE SMOOTH"
);
},
{
closed = 1;
nodes = (
"403 72 LINE",
"403 165 LINE",
"393 123 OFFCURVE",
"382 117 OFFCURVE",
"286 117 CURVE SMOOTH",
"200 117 OFFCURVE",
"180 142 OFFCURVE",
"180 250 CURVE SMOOTH",
"180 358 OFFCURVE",
"200 383 OFFCURVE",
"286 383 CURVE SMOOTH",
"362 383 OFFCURVE",
"381 384 OFFCURVE",
"403 350 CURVE",
"403 433 LINE",
"382 466 OFFCURVE",
"357 504 OFFCURVE",
"266 504 CURVE SMOOTH",
"98 504 OFFCURVE",
"48 446 OFFCURVE",
"48 250 CURVE SMOOTH",
"48 54 OFFCURVE",
"98 -4 OFFCURVE",
"266 -4 CURVE SMOOTH",
"336 -4 OFFCURVE",
"387 18 OFFCURVE",
"398 69 CURVE"
);
}
);
width = 600;
},
{
associatedMasterId = "644D3D1A-706E-4D36-8EE1-81638A7D248A";
layerId = "A44CDEDF-E085-46AA-A7CB-B4EBCCF6C7F8";
name = "Mar 20 18, 21:49";
paths = (
{
closed = 1;
nodes = (
"418 700 LINE SMOOTH",
"410 700 OFFCURVE",
"403 693 OFFCURVE",
"403 685 CURVE SMOOTH",
"403 72 LINE",
"413 78 LINE",
"403 15 LINE SMOOTH",
"402 7 OFFCURVE",
"410 0 OFFCURVE",
"418 0 CURVE SMOOTH",
"520 0 LINE SMOOTH",
"528 0 OFFCURVE",
"535 7 OFFCURVE",
"535 15 CURVE SMOOTH",
"535 685 LINE SMOOTH",
"535 693 OFFCURVE",
"528 700 OFFCURVE",
"520 700 CURVE SMOOTH"
);
},
{
closed = 1;
nodes = (
"403 72 LINE",
"403 166 LINE",
"403 119 OFFCURVE",
"373 117 OFFCURVE",
"286 117 CURVE SMOOTH",
"200 117 OFFCURVE",
"180 142 OFFCURVE",
"180 250 CURVE SMOOTH",
"180 358 OFFCURVE",
"200 383 OFFCURVE",
"286 383 CURVE SMOOTH",
"373 383 OFFCURVE",
"403 381 OFFCURVE",
"403 334 CURVE",
"403 433 LINE",
"382 466 OFFCURVE",
"357 504 OFFCURVE",
"266 504 CURVE SMOOTH",
"98 504 OFFCURVE",
"48 446 OFFCURVE",
"48 250 CURVE SMOOTH",
"48 54 OFFCURVE",
"98 -4 OFFCURVE",
"266 -4 CURVE SMOOTH",
"336 -4 OFFCURVE",
"387 18 OFFCURVE",
"398 69 CURVE"
);
}
);
width = 600;
},
{
layerId = "644D3D1A-706E-4D36-8EE1-81638A7D248A";
paths = (
{
closed = 1;
nodes = (
"440 750 LINE SMOOTH",
"432 750 OFFCURVE",
"425 743 OFFCURVE",
"425 735 CURVE SMOOTH",
"425 480 LINE",
"435 422 LINE",
"425 428 LINE",
"425 72 LINE",
"435 78 LINE",
"425 15 LINE SMOOTH",
"424 7 OFFCURVE",
"432 0 OFFCURVE",
"440 0 CURVE SMOOTH",
"544 0 LINE SMOOTH",
"552 0 OFFCURVE",
"559 7 OFFCURVE",
"559 15 CURVE SMOOTH",
"559 735 LINE SMOOTH",
"559 743 OFFCURVE",
"552 750 OFFCURVE",
"544 750 CURVE SMOOTH"
);
},
{
closed = 1;
nodes = (
"425 72 LINE",
"425 166 LINE",
"425 119 OFFCURVE",
"375 117 OFFCURVE",
"288 117 CURVE SMOOTH",
"202 117 OFFCURVE",
"182 142 OFFCURVE",
"182 250 CURVE SMOOTH",
"182 358 OFFCURVE",
"202 383 OFFCURVE",
"288 383 CURVE SMOOTH",
"375 383 OFFCURVE",
"425 381 OFFCURVE",
"425 334 CURVE",
"425 428 LINE",
"420 431 LINE",
"409 482 OFFCURVE",
"359 504 OFFCURVE",
"268 504 CURVE SMOOTH",
"100 504 OFFCURVE",
"50 446 OFFCURVE",
"50 250 CURVE SMOOTH",
"50 54 OFFCURVE",
"100 -4 OFFCURVE",
"268 -4 CURVE SMOOTH",
"338 -4 OFFCURVE",
"409 18 OFFCURVE",
"420 69 CURVE"
);
}
);
width = 619;
},
{
associatedMasterId = "644D3D1A-706E-4D36-8EE1-81638A7D248A";
layerId = "D68EEE62-371D-408C-BDE9-3A65B9437914";
name = "Mar 27 18, 22:25";
paths = (
{
closed = 1;
nodes = (
"420 750 LINE SMOOTH",
"412 750 OFFCURVE",
"405 743 OFFCURVE",
"405 735 CURVE SMOOTH",
"405 480 LINE",
"415 422 LINE",
"405 428 LINE",
"405 72 LINE",
"415 78 LINE",
"405 15 LINE SMOOTH",
"404 7 OFFCURVE",
"412 0 OFFCURVE",
"420 0 CURVE SMOOTH",
"522 0 LINE SMOOTH",
"530 0 OFFCURVE",
"537 7 OFFCURVE",
"537 15 CURVE SMOOTH",
"537 735 LINE SMOOTH",
"537 743 OFFCURVE",
"530 750 OFFCURVE",
"522 750 CURVE SMOOTH"
);
},
{
closed = 1;
nodes = (
"405 72 LINE",
"405 166 LINE",
"405 119 OFFCURVE",
"375 117 OFFCURVE",
"288 117 CURVE SMOOTH",
"202 117 OFFCURVE",
"182 142 OFFCURVE",
"182 250 CURVE SMOOTH",
"182 358 OFFCURVE",
"202 383 OFFCURVE",
"288 383 CURVE SMOOTH",
"375 383 OFFCURVE",
"405 381 OFFCURVE",
"405 334 CURVE",
"405 428 LINE",
"400 431 LINE",
"389 482 OFFCURVE",
"359 504 OFFCURVE",
"268 504 CURVE SMOOTH",
"100 504 OFFCURVE",
"50 446 OFFCURVE",
"50 250 CURVE SMOOTH",
"50 54 OFFCURVE",
"100 -4 OFFCURVE",
"268 -4 CURVE SMOOTH",
"338 -4 OFFCURVE",
"389 18 OFFCURVE",
"400 69 CURVE"
);
}
);
width = 597;
},
{
associatedMasterId = "DBDE1730-7CB6-4711-8383-3CA3AF6893BF";
layerId = "7DA519D7-72C1-4D2A-BB66-12FBEBFBAEA2";
name = "Mar 28 18, 11:30";
paths = (
{
closed = 1;
nodes = (
"471 800 LINE SMOOTH",
"468 800 OFFCURVE",
"465 797 OFFCURVE",
"465 794 CURVE SMOOTH",
"465 513 LINE",
"469 446 LINE",
"465 448 LINE",
"465 72 LINE",
"469 74 LINE",
"465 7 LINE SMOOTH",
"465 3 OFFCURVE",
"467 0 OFFCURVE",
"471 0 CURVE SMOOTH",
"501 0 LINE SMOOTH",
"504 0 OFFCURVE",
"507 3 OFFCURVE",
"507 6 CURVE SMOOTH",
"507 794 LINE SMOOTH",
"507 797 OFFCURVE",
"504 800 OFFCURVE",
"501 800 CURVE SMOOTH"
);
},
{
closed = 1;
nodes = (
"465 72 LINE",
"465 166 LINE",
"465 119 OFFCURVE",
"405 34 OFFCURVE",
"318 34 CURVE SMOOTH",
"203 34 OFFCURVE",
"126 127 OFFCURVE",
"126 266 CURVE SMOOTH",
"126 398 OFFCURVE",
"203 486 OFFCURVE",
"318 486 CURVE SMOOTH",
"405 486 OFFCURVE",
"465 401 OFFCURVE",
"465 354 CURVE",
"465 448 LINE",
"461 450 LINE",
"442 501 OFFCURVE",
"389 526 OFFCURVE",
"298 526 CURVE SMOOTH",
"167 526 OFFCURVE",
"80 422 OFFCURVE",
"80 266 CURVE SMOOTH",
"80 103 OFFCURVE",
"167 -6 OFFCURVE",
"298 -6 CURVE SMOOTH",
"389 -6 OFFCURVE",
"442 19 OFFCURVE",
"461 70 CURVE"
);
}
);
width = 607;
}
);
unicode = 0064;
},
{
glyphname = e;
lastChange = "2018-04-01 16:25:28 +0000";
layers = (
{
layerId = "DBDE1730-7CB6-4711-8383-3CA3AF6893BF";
paths = (
{
closed = 1;
nodes = (
"150 526 OFFCURVE",
"60 420 OFFCURVE",
"60 261 CURVE",
"106 261 LINE",
"106 396 OFFCURVE",
"178 486 OFFCURVE",
"286 486 CURVE SMOOTH",
"395 486 OFFCURVE",
"467 408 OFFCURVE",
"467 290 CURVE SMOOTH",
"467 282 OFFCURVE",
"466 281 OFFCURVE",
"460 281 CURVE SMOOTH",
"96 281 LINE",
"96 241 LINE",
"502 241 LINE SMOOTH",
"509 241 OFFCURVE",
"513 245 OFFCURVE",
"513 252 CURVE SMOOTH",
"513 428 OFFCURVE",
"432 526 OFFCURVE",
"286 526 CURVE SMOOTH"
);
},
{
closed = 1;
nodes = (
"399 -4 OFFCURVE",
"481 51 OFFCURVE",
"501 134 CURVE SMOOTH",
"502 137 OFFCURVE",
"500 139 OFFCURVE",
"495 139 CURVE SMOOTH",
"464 139 LINE SMOOTH",
"461 139 OFFCURVE",
"459 137 OFFCURVE",
"458 133 CURVE SMOOTH",
"438 75 OFFCURVE",
"373 36 OFFCURVE",
"296 36 CURVE SMOOTH",
"182 36 OFFCURVE",
"106 126 OFFCURVE",
"106 261 CURVE",
"60 261 LINE",
"60 102 OFFCURVE",
"154 -4 OFFCURVE",
"296 -4 CURVE SMOOTH"
);
}
);
width = 573;
},
{
associatedMasterId = "644D3D1A-706E-4D36-8EE1-81638A7D248A";
layerId = "47AC6CF6-099A-4F08-ACE5-0D09778F0980";
name = "Mar 14 18, 21:37";
paths = (
{
closed = 1;
nodes = (
"165 304 LINE",
"165 345 OFFCURVE",
"193 398 OFFCURVE",
"248 398 CURVE SMOOTH",
"360 397 LINE",
"385 397 OFFCURVE",
"406 376 OFFCURVE",
"406 350 CURVE SMOOTH",
"406 325 OFFCURVE",
"390 303 OFFCURVE",
"365 303 CURVE"
);
},
{
closed = 1;
nodes = (
"60 78 OFFCURVE",
"153 -4 OFFCURVE",
"266 -4 CURVE SMOOTH",
"346 -4 LINE SMOOTH",
"434 -4 OFFCURVE",
"479 65 OFFCURVE",
"485 102 CURVE",
"485 112 OFFCURVE",
"479 117 OFFCURVE",
"469 117 CURVE SMOOTH",
"255 118 LINE SMOOTH",
"219 118 OFFCURVE",
"172 141 OFFCURVE",
"172 177 CURVE SMOOTH",
"172 195 OFFCURVE",
"170 196 OFFCURVE",
"161 210 CURVE",
"168 215 LINE",
"176 201 OFFCURVE",
"180 197 OFFCURVE",
"192 197 CURVE SMOOTH",
"378 196 LINE SMOOTH",
"461 196 OFFCURVE",
"511 249 OFFCURVE",
"511 325 CURVE SMOOTH",
"511 356 LINE SMOOTH",
"511 430 OFFCURVE",
"444 504 OFFCURVE",
"355 504 CURVE SMOOTH",
"248 504 LINE SMOOTH",
"135 504 OFFCURVE",
"60 412 OFFCURVE",
"60 303 CURVE SMOOTH",
"60 187 LINE SMOOTH"
);
}
);
width = 571;
},
{
layerId = "644D3D1A-706E-4D36-8EE1-81638A7D248A";
paths = (
{
closed = 1;
nodes = (
"104 504 OFFCURVE",
"50 446 OFFCURVE",
"50 250 CURVE",
"182 250 LINE",
"182 372 OFFCURVE",
"192 386 OFFCURVE",
"286 386 CURVE SMOOTH",
"398 386 OFFCURVE",
"409 379 OFFCURVE",
"409 316 CURVE SMOOTH",
"409 309 OFFCURVE",
"403 304 OFFCURVE",
"394 304 CURVE SMOOTH",
"157 304 LINE",
"157 203 LINE",
"492 203 LINE SMOOTH",
"529 203 OFFCURVE",
"533 213 OFFCURVE",
"533 304 CURVE SMOOTH",
"533 458 OFFCURVE",
"479 504 OFFCURVE",
"285 504 CURVE SMOOTH"
);
},
{
closed = 1;
nodes = (
"481 -4 OFFCURVE",
"523 23 OFFCURVE",
"523 144 CURVE SMOOTH",
"523 153 OFFCURVE",
"516 160 OFFCURVE",
"507 160 CURVE SMOOTH",
"415 160 LINE SMOOTH",
"403 160 OFFCURVE",
"399 156 OFFCURVE",
"399 147 CURVE SMOOTH",
"399 117 OFFCURVE",
"389 114 OFFCURVE",
"296 114 CURVE SMOOTH",
"193 114 OFFCURVE",
"182 128 OFFCURVE",
"182 250 CURVE",
"50 250 LINE",
"50 54 OFFCURVE",
"106 -4 OFFCURVE",
"296 -4 CURVE SMOOTH"
);
}
);
width = 583;
},
{
associatedMasterId = "644D3D1A-706E-4D36-8EE1-81638A7D248A";
layerId = "EBDEFE6A-5BC0-4867-A462-5F0D5FF06284";
name = "Mar 20 18, 19:27";
paths = (
{
closed = 1;
nodes = (
"94 504 OFFCURVE",
"51 457 OFFCURVE",
"51 250 CURVE",
"183 250 LINE",
"183 370 OFFCURVE",
"193 393 OFFCURVE",
"287 393 CURVE SMOOTH",
"361 393 OFFCURVE",
"389 382 OFFCURVE",
"389 351 CURVE SMOOTH",
"389 309 OFFCURVE",
"380 304 OFFCURVE",
"297 304 CURVE",
"158 304 LINE",
"158 203 LINE",
"324 203 LINE",
"486 203 OFFCURVE",
"513 224 OFFCURVE",
"513 351 CURVE SMOOTH",
"513 462 OFFCURVE",
"451 504 OFFCURVE",
"286 504 CURVE SMOOTH"
);
},
{
closed = 1;
nodes = (
"411 -4 OFFCURVE",
"502 46 OFFCURVE",
"502 131 CURVE SMOOTH",
"502 140 OFFCURVE",
"495 147 OFFCURVE",
"486 147 CURVE SMOOTH",
"390 147 LINE SMOOTH",
"384 147 OFFCURVE",
"378 143 OFFCURVE",
"378 138 CURVE SMOOTH",
"378 121 OFFCURVE",
"343 117 OFFCURVE",
"297 117 CURVE SMOOTH",
"203 117 OFFCURVE",
"183 130 OFFCURVE",
"183 250 CURVE",
"51 250 LINE",
"51 43 OFFCURVE",
"105 -4 OFFCURVE",
"297 -4 CURVE SMOOTH"
);
}
);
width = 571;
},
{
associatedMasterId = "644D3D1A-706E-4D36-8EE1-81638A7D248A";
layerId = "D527603F-D908-4907-B218-631FCC44F691";
name = "Mar 20 18, 19:43";
paths = (
{
closed = 1;
nodes = (
"102 504 OFFCURVE",
"48 446 OFFCURVE",
"48 250 CURVE",
"180 250 LINE",
"180 370 OFFCURVE",
"190 393 OFFCURVE",
"284 393 CURVE SMOOTH",
"358 393 OFFCURVE",
"386 382 OFFCURVE",
"386 351 CURVE SMOOTH",
"386 344 OFFCURVE",
"386 336 OFFCURVE",
"386 329 CURVE SMOOTH",
"386 314 OFFCURVE",
"376 304 OFFCURVE",
"361 304 CURVE SMOOTH",
"155 304 LINE",
"155 203 LINE",
"361 203 LINE SMOOTH",
"495 203 OFFCURVE",
"510 216 OFFCURVE",
"510 329 CURVE SMOOTH",
"510 336 OFFCURVE",
"510 344 OFFCURVE",
"510 351 CURVE SMOOTH",
"510 456 OFFCURVE",
"439 504 OFFCURVE",
"283 504 CURVE SMOOTH"
);
},
{
closed = 1;
nodes = (
"408 -4 OFFCURVE",
"499 46 OFFCURVE",
"499 131 CURVE SMOOTH",
"499 140 OFFCURVE",
"492 147 OFFCURVE",
"483 147 CURVE SMOOTH",
"387 147 LINE SMOOTH",
"381 147 OFFCURVE",
"375 143 OFFCURVE",
"375 138 CURVE SMOOTH",
"375 121 OFFCURVE",
"340 117 OFFCURVE",
"294 117 CURVE SMOOTH",
"200 117 OFFCURVE",
"180 130 OFFCURVE",
"180 250 CURVE",
"48 250 LINE",
"48 43 OFFCURVE",
"102 -4 OFFCURVE",
"294 -4 CURVE SMOOTH"
);
}
);
width = 558;
},
{
associatedMasterId = "DBDE1730-7CB6-4711-8383-3CA3AF6893BF";
layerId = "BC55E8E9-56BC-468F-B0A2-6CEAF3BAA96D";
name = "Mar 28 18, 10:47";
paths = (
{
closed = 1;
nodes = (
"140 526 OFFCURVE",
"60 435 OFFCURVE",
"60 272 CURVE",
"106 272 LINE",
"106 410 OFFCURVE",
"170 486 OFFCURVE",
"286 486 CURVE SMOOTH",
"396 486 OFFCURVE",
"447 410 OFFCURVE",
"447 314 CURVE SMOOTH",
"447 294 OFFCURVE",
"445 292 OFFCURVE",
"428 292 CURVE SMOOTH",
"96 292 LINE",
"96 252 LINE",
"464 252 LINE SMOOTH",
"486 252 OFFCURVE",
"493 259 OFFCURVE",
"493 283 CURVE SMOOTH",
"493 435 OFFCURVE",
"428 526 OFFCURVE",
"285 526 CURVE SMOOTH"
);
},
{
closed = 1;
nodes = (
"416 -4 OFFCURVE",
"480 49 OFFCURVE",
"482 146 CURVE SMOOTH",
"482 149 OFFCURVE",
"479 151 OFFCURVE",
"476 151 CURVE SMOOTH",
"446 151 LINE SMOOTH",
"443 151 OFFCURVE",
"440 149 OFFCURVE",
"440 145 CURVE SMOOTH",
"437 75 OFFCURVE",
"388 36 OFFCURVE",
"286 36 CURVE SMOOTH",
"163 36 OFFCURVE",
"106 110 OFFCURVE",
"106 272 CURVE",
"60 272 LINE",
"60 83 OFFCURVE",
"131 -4 OFFCURVE",
"286 -4 CURVE SMOOTH"
);
}
);
width = 553;
}
);
unicode = 0065;
},
{
glyphname = egrave;
lastChange = "2018-04-01 01:28:18 +0000";
layers = (
{
layerId = "DBDE1730-7CB6-4711-8383-3CA3AF6893BF";
paths = (
{
closed = 1;
nodes = (
"141 526 OFFCURVE",
"60 431 OFFCURVE",
"60 261 CURVE",
"106 261 LINE",
"106 406 OFFCURVE",
"170 486 OFFCURVE",
"286 486 CURVE SMOOTH",
"389 486 OFFCURVE",
"457 428 OFFCURVE",
"457 290 CURVE SMOOTH",
"457 282 OFFCURVE",
"456 281 OFFCURVE",
"450 281 CURVE SMOOTH",
"96 281 LINE",
"96 241 LINE",
"492 241 LINE SMOOTH",
"499 241 OFFCURVE",
"503 245 OFFCURVE",
"503 252 CURVE SMOOTH",
"503 448 OFFCURVE",
"426 526 OFFCURVE",
"286 526 CURVE SMOOTH"
);
},
{
closed = 1;
nodes = (
"413 -4 OFFCURVE",
"491 51 OFFCURVE",
"491 134 CURVE SMOOTH",
"491 137 OFFCURVE",
"489 139 OFFCURVE",
"485 139 CURVE SMOOTH",
"454 139 LINE SMOOTH",
"450 139 OFFCURVE",
"448 137 OFFCURVE",
"448 133 CURVE SMOOTH",
"448 75 OFFCURVE",
"387 36 OFFCURVE",
"296 36 CURVE SMOOTH",
"174 36 OFFCURVE",
"106 116 OFFCURVE",
"106 261 CURVE",
"60 261 LINE",
"60 91 OFFCURVE",
"144 -4 OFFCURVE",
"296 -4 CURVE SMOOTH"
);
},
{
closed = 1;
nodes = (
"170 761 LINE SMOOTH",
"166 761 OFFCURVE",
"164 758 OFFCURVE",
"166 754 CURVE SMOOTH",
"260 605 LINE SMOOTH",
"262 603 OFFCURVE",
"265 601 OFFCURVE",
"268 601 CURVE SMOOTH",
"302 601 LINE SMOOTH",
"306 601 OFFCURVE",
"308 604 OFFCURVE",
"306 608 CURVE SMOOTH",
"215 757 LINE SMOOTH",
"214 759 OFFCURVE",
"211 761 OFFCURVE",
"208 761 CURVE SMOOTH"
);
}
);
width = 600;
},
{
layerId = "644D3D1A-706E-4D36-8EE1-81638A7D248A";
paths = (
{
closed = 1;
nodes = (
"104 504 OFFCURVE",
"50 446 OFFCURVE",
"50 250 CURVE",
"182 250 LINE",
"182 372 OFFCURVE",
"192 386 OFFCURVE",
"286 386 CURVE SMOOTH",
"398 386 OFFCURVE",
"409 379 OFFCURVE",
"409 316 CURVE SMOOTH",
"409 309 OFFCURVE",
"403 304 OFFCURVE",
"394 304 CURVE SMOOTH",
"157 304 LINE",
"157 203 LINE",
"492 203 LINE SMOOTH",
"529 203 OFFCURVE",
"533 213 OFFCURVE",
"533 304 CURVE SMOOTH",
"533 458 OFFCURVE",
"479 504 OFFCURVE",
"285 504 CURVE SMOOTH"
);
},
{
closed = 1;
nodes = (
"481 -4 OFFCURVE",
"523 23 OFFCURVE",
"523 144 CURVE SMOOTH",
"523 153 OFFCURVE",
"516 160 OFFCURVE",
"507 160 CURVE SMOOTH",
"415 160 LINE SMOOTH",
"403 160 OFFCURVE",
"399 156 OFFCURVE",
"399 147 CURVE SMOOTH",
"399 117 OFFCURVE",
"389 114 OFFCURVE",
"296 114 CURVE SMOOTH",
"193 114 OFFCURVE",
"182 128 OFFCURVE",
"182 250 CURVE",
"50 250 LINE",
"50 54 OFFCURVE",
"106 -4 OFFCURVE",
"296 -4 CURVE SMOOTH"
);
},
{
closed = 1;
nodes = (
"148 720 LINE SMOOTH",
"136 720 OFFCURVE",
"133 711 OFFCURVE",
"139 702 CURVE SMOOTH",
"214 588 LINE SMOOTH",
"218 581 OFFCURVE",
"224 579 OFFCURVE",
"232 579 CURVE SMOOTH",
"363 579 LINE SMOOTH",
"375 579 OFFCURVE",
"378 588 OFFCURVE",
"372 597 CURVE SMOOTH",
"297 711 LINE SMOOTH",
"293 718 OFFCURVE",
"287 720 OFFCURVE",
"279 720 CURVE SMOOTH"
);
}
);
width = 600;
}
);
unicode = 00E8;
},
{
glyphname = f;
lastChange = "2018-04-01 16:15:25 +0000";
layers = (
{
layerId = "644D3D1A-706E-4D36-8EE1-81638A7D248A";
paths = (
{
closed = 1;
nodes = (
"217 0 LINE SMOOTH",
"225 0 OFFCURVE",
"232 7 OFFCURVE",
"232 15 CURVE SMOOTH",
"232 500 LINE SMOOTH",
"232 600 OFFCURVE",
"256 629 OFFCURVE",
"337 629 CURVE SMOOTH",
"346 629 OFFCURVE",
"352 636 OFFCURVE",
"352 644 CURVE SMOOTH",
"352 735 LINE SMOOTH",
"352 744 OFFCURVE",
"345 750 OFFCURVE",
"336 750 CURVE SMOOTH",
"154 750 OFFCURVE",
"100 693 OFFCURVE",
"100 500 CURVE SMOOTH",
"100 15 LINE SMOOTH",
"100 7 OFFCURVE",
"107 0 OFFCURVE",
"115 0 CURVE SMOOTH"
);
},
{
closed = 1;
nodes = (
"317 379 LINE SMOOTH",
"325 379 OFFCURVE",
"332 386 OFFCURVE",
"332 394 CURVE SMOOTH",
"332 485 LINE SMOOTH",
"332 493 OFFCURVE",
"325 500 OFFCURVE",
"317 500 CURVE SMOOTH",
"55 500 LINE SMOOTH",
"47 500 OFFCURVE",
"40 493 OFFCURVE",
"40 485 CURVE SMOOTH",
"40 394 LINE SMOOTH",
"40 386 OFFCURVE",
"47 379 OFFCURVE",
"55 379 CURVE SMOOTH"
);
}
);
width = 372;
},
{
layerId = "DBDE1730-7CB6-4711-8383-3CA3AF6893BF";
paths = (
{
closed = 1;
nodes = (
"176 0 LINE SMOOTH",
"179 0 OFFCURVE",
"182 3 OFFCURVE",
"182 6 CURVE SMOOTH",
"182 637 LINE SMOOTH",
"182 711 OFFCURVE",
"238 760 OFFCURVE",
"323 760 CURVE SMOOTH",
"326 760 OFFCURVE",
"329 763 OFFCURVE",
"329 766 CURVE SMOOTH",
"328 794 LINE SMOOTH",
"328 798 OFFCURVE",
"325 800 OFFCURVE",
"322 800 CURVE SMOOTH",
"213 800 OFFCURVE",
"140 735 OFFCURVE",
"140 637 CURVE SMOOTH",
"140 6 LINE SMOOTH",
"140 3 OFFCURVE",
"143 0 OFFCURVE",
"146 0 CURVE SMOOTH"
);
},
{
closed = 1;
nodes = (
"296 480 LINE SMOOTH",
"299 480 OFFCURVE",
"302 483 OFFCURVE",
"302 486 CURVE SMOOTH",
"302 514 LINE SMOOTH",
"302 517 OFFCURVE",
"299 520 OFFCURVE",
"296 520 CURVE SMOOTH",
"66 520 LINE SMOOTH",
"63 520 OFFCURVE",
"60 517 OFFCURVE",
"60 514 CURVE SMOOTH",
"60 486 LINE SMOOTH",
"60 483 OFFCURVE",
"63 480 OFFCURVE",
"66 480 CURVE SMOOTH"
);
}
);
width = 369;
}
);
unicode = 0066;
},
{
glyphname = g;
lastChange = "2018-04-01 16:26:30 +0000";
layers = (
{
layerId = "644D3D1A-706E-4D36-8EE1-81638A7D248A";
paths = (
{
closed = 1;
nodes = (
"537 485 LINE SMOOTH",
"537 493 OFFCURVE",
"530 500 OFFCURVE",
"522 500 CURVE SMOOTH",
"420 500 LINE SMOOTH",
"412 500 OFFCURVE",
"404 493 OFFCURVE",
"405 485 CURVE SMOOTH",
"415 422 LINE",
"405 428 LINE",
"405 72 LINE",
"415 78 LINE",
"405 20 LINE",
"405 0 LINE",
"537 0 LINE"
);
},
{
closed = 1;
nodes = (
"389 482 OFFCURVE",
"338 504 OFFCURVE",
"268 504 CURVE SMOOTH",
"100 504 OFFCURVE",
"50 446 OFFCURVE",
"50 250 CURVE SMOOTH",
"50 54 OFFCURVE",
"100 -4 OFFCURVE",
"268 -4 CURVE SMOOTH",
"359 -4 OFFCURVE",
"389 18 OFFCURVE",
"400 69 CURVE",
"405 72 LINE",
"405 166 LINE",
"405 119 OFFCURVE",
"375 117 OFFCURVE",
"288 117 CURVE SMOOTH",
"202 117 OFFCURVE",
"182 142 OFFCURVE",
"182 250 CURVE SMOOTH",
"182 358 OFFCURVE",
"202 383 OFFCURVE",
"288 383 CURVE SMOOTH",
"375 383 OFFCURVE",
"405 381 OFFCURVE",
"405 334 CURVE",
"405 428 LINE",
"400 431 LINE"
);
},
{
closed = 1;
nodes = (
"491 -254 OFFCURVE",
"537 -207 OFFCURVE",
"537 0 CURVE",
"405 0 LINE",
"405 -108 OFFCURVE",
"384 -133 OFFCURVE",
"291 -133 CURVE SMOOTH",
"228 -133 OFFCURVE",
"210 -120 OFFCURVE",
"210 -92 CURVE SMOOTH",
"210 -87 OFFCURVE",
"204 -83 OFFCURVE",
"198 -83 CURVE SMOOTH",
"102 -83 LINE SMOOTH",
"93 -83 OFFCURVE",
"86 -90 OFFCURVE",
"86 -99 CURVE SMOOTH",
"86 -205 OFFCURVE",
"150 -254 OFFCURVE",
"291 -254 CURVE SMOOTH"
);
}
);
width = 597;
},
{
layerId = "DBDE1730-7CB6-4711-8383-3CA3AF6893BF";
paths = (
{
closed = 1;
nodes = (
"488 514 LINE SMOOTH",
"488 517 OFFCURVE",
"485 520 OFFCURVE",
"482 520 CURVE SMOOTH",
"451 520 LINE SMOOTH",
"447 520 OFFCURVE",
"445 517 OFFCURVE",
"445 513 CURVE SMOOTH",
"449 416 LINE",
"445 418 LINE",
"445 102 LINE",
"449 104 LINE",
"445 37 LINE",
"445 -6 LINE",
"488 -6 LINE"
);
},
{
closed = 1;
nodes = (
"415 492 OFFCURVE",
"350 526 OFFCURVE",
"258 526 CURVE SMOOTH",
"139 526 OFFCURVE",
"60 421 OFFCURVE",
"60 264 CURVE SMOOTH",
"60 102 OFFCURVE",
"139 -6 OFFCURVE",
"258 -6 CURVE SMOOTH",
"350 -6 OFFCURVE",
"415 28 OFFCURVE",
"441 100 CURVE",
"445 102 LINE",
"445 186 LINE",
"445 107 OFFCURVE",
"384 34 OFFCURVE",
"278 34 CURVE SMOOTH",
"175 34 OFFCURVE",
"106 126 OFFCURVE",
"106 264 CURVE SMOOTH",
"106 397 OFFCURVE",
"175 486 OFFCURVE",
"278 486 CURVE SMOOTH",
"384 486 OFFCURVE",
"445 413 OFFCURVE",
"445 334 CURVE",
"445 418 LINE",
"441 420 LINE"
);
},
{
closed = 1;
nodes = (
"404 -206 OFFCURVE",
"487 -126 OFFCURVE",
"488 -6 CURVE",
"445 -6 LINE",
"445 -102 OFFCURVE",
"379 -166 OFFCURVE",
"280 -166 CURVE SMOOTH",
"194 -166 OFFCURVE",
"137 -126 OFFCURVE",
"137 -67 CURVE SMOOTH",
"137 -63 OFFCURVE",
"134 -61 OFFCURVE",
"131 -61 CURVE SMOOTH",
"100 -61 LINE SMOOTH",
"97 -61 OFFCURVE",
"94 -63 OFFCURVE",
"94 -66 CURVE SMOOTH",
"94 -150 OFFCURVE",
"168 -206 OFFCURVE",
"280 -206 CURVE SMOOTH"
);
}
);
width = 588;
},
{
associatedMasterId = "DBDE1730-7CB6-4711-8383-3CA3AF6893BF";
layerId = "BBA331C1-0AB0-4396-9D72-0208397A4407";
name = "Mar 28 18, 11:53";
paths = (
{
closed = 1;
nodes = (
"507 514 LINE SMOOTH",
"507 517 OFFCURVE",
"504 520 OFFCURVE",
"501 520 CURVE SMOOTH",
"471 520 LINE SMOOTH",
"467 520 OFFCURVE",
"465 517 OFFCURVE",
"465 513 CURVE SMOOTH",
"469 446 LINE",
"465 448 LINE",
"465 72 LINE",
"469 74 LINE",
"465 7 LINE",
"465 -20 LINE",
"507 -20 LINE"
);
},
{
closed = 1;
nodes = (
"435 522 OFFCURVE",
"389 526 OFFCURVE",
"298 526 CURVE SMOOTH",
"167 526 OFFCURVE",
"80 417 OFFCURVE",
"80 254 CURVE SMOOTH",
"80 98 OFFCURVE",
"167 -6 OFFCURVE",
"298 -6 CURVE SMOOTH",
"389 -6 OFFCURVE",
"442 19 OFFCURVE",
"461 70 CURVE",
"465 72 LINE",
"465 166 LINE",
"465 119 OFFCURVE",
"405 34 OFFCURVE",
"318 34 CURVE SMOOTH",
"203 34 OFFCURVE",
"126 122 OFFCURVE",
"126 254 CURVE SMOOTH",
"126 393 OFFCURVE",
"203 486 OFFCURVE",
"318 486 CURVE SMOOTH",
"405 486 OFFCURVE",
"465 433 OFFCURVE",
"465 354 CURVE",
"465 448 LINE",
"461 450 LINE"
);
},
{
closed = 1;
nodes = (
"442 -240 OFFCURVE",
"506 -167 OFFCURVE",
"507 -20 CURVE",
"465 -20 LINE",
"465 -143 OFFCURVE",
"413 -200 OFFCURVE",
"300 -200 CURVE SMOOTH",
"214 -200 OFFCURVE",
"157 -156 OFFCURVE",
"157 -91 CURVE SMOOTH",
"157 -87 OFFCURVE",
"154 -85 OFFCURVE",
"151 -85 CURVE SMOOTH",
"121 -85 LINE SMOOTH",
"118 -85 OFFCURVE",
"115 -87 OFFCURVE",
"115 -90 CURVE SMOOTH",
"115 -180 OFFCURVE",
"189 -240 OFFCURVE",
"300 -240 CURVE SMOOTH"
);
}
);
width = 607;
}
);
unicode = 0067;
},
{
glyphname = h;
lastChange = "2018-03-28 09:48:43 +0000";
layers = (
{
layerId = "644D3D1A-706E-4D36-8EE1-81638A7D248A";
paths = (
{
closed = 1;
nodes = (
"60 20 LINE SMOOTH",
"60 8 OFFCURVE",
"68 0 OFFCURVE",
"80 0 CURVE SMOOTH",
"172 0 LINE SMOOTH",
"184 0 OFFCURVE",
"192 8 OFFCURVE",
"192 20 CURVE SMOOTH",
"192 398 LINE",
"182 392 LINE",
"192 480 LINE",
"192 730 LINE SMOOTH",
"192 743 OFFCURVE",
"184 750 OFFCURVE",
"172 750 CURVE SMOOTH",
"80 750 LINE SMOOTH",
"68 750 OFFCURVE",
"60 742 OFFCURVE",
"60 730 CURVE SMOOTH"
);
},
{
closed = 1;
nodes = (
"533 348 LINE SMOOTH",
"533 457 OFFCURVE",
"480 504 OFFCURVE",
"367 504 CURVE SMOOTH",
"289 504 OFFCURVE",
"210 478 OFFCURVE",
"198 401 CURVE",
"192 398 LINE",
"192 334 LINE",
"192 381 OFFCURVE",
"210 383 OFFCURVE",
"297 383 CURVE SMOOTH",
"376 383 OFFCURVE",
"401 380 OFFCURVE",
"401 324 CURVE SMOOTH",
"401 20 LINE SMOOTH",
"401 8 OFFCURVE",
"409 0 OFFCURVE",
"421 0 CURVE SMOOTH",
"513 0 LINE SMOOTH",
"525 0 OFFCURVE",
"533 8 OFFCURVE",
"533 20 CURVE SMOOTH"
);
}
);
width = 583;
},
{
layerId = "DBDE1730-7CB6-4711-8383-3CA3AF6893BF";
paths = (
{
closed = 1;
nodes = (
"100 6 LINE SMOOTH",
"100 3 OFFCURVE",
"103 0 OFFCURVE",
"106 0 CURVE SMOOTH",
"137 0 LINE SMOOTH",
"140 0 OFFCURVE",
"143 3 OFFCURVE",
"143 6 CURVE SMOOTH",
"143 417 LINE",
"139 416 LINE",
"143 514 LINE",
"143 794 LINE",
"143 797 OFFCURVE",
"140 800 OFFCURVE",
"137 800 CURVE SMOOTH",
"106 800 LINE SMOOTH",
"103 800 OFFCURVE",
"100 797 OFFCURVE",
"100 794 CURVE SMOOTH"
);
},
{
closed = 1;
nodes = (
"498 318 LINE SMOOTH",
"498 452 OFFCURVE",
"433 526 OFFCURVE",
"317 526 CURVE SMOOTH",
"225 526 OFFCURVE",
"173 490 OFFCURVE",
"147 418 CURVE",
"143 417 LINE",
"143 345 LINE",
"143 424 OFFCURVE",
"211 486 OFFCURVE",
"317 486 CURVE SMOOTH",
"406 486 OFFCURVE",
"455 426 OFFCURVE",
"455 318 CURVE SMOOTH",
"455 6 LINE SMOOTH",
"455 3 OFFCURVE",
"458 0 OFFCURVE",
"461 0 CURVE SMOOTH",
"492 0 LINE SMOOTH",
"495 0 OFFCURVE",
"498 3 OFFCURVE",
"498 6 CURVE SMOOTH"
);
}
);
width = 578;
}
);
unicode = 0068;
},
{
glyphname = i;
lastChange = "2018-03-31 13:15:01 +0000";
layers = (
{
layerId = "644D3D1A-706E-4D36-8EE1-81638A7D248A";
paths = (
{
closed = 1;
nodes = (
"192 485 LINE SMOOTH",
"192 493 OFFCURVE",
"185 500 OFFCURVE",
"177 500 CURVE SMOOTH",
"75 500 LINE SMOOTH",
"67 500 OFFCURVE",
"60 493 OFFCURVE",
"60 485 CURVE SMOOTH",
"60 15 LINE SMOOTH",
"60 7 OFFCURVE",
"67 0 OFFCURVE",
"75 0 CURVE SMOOTH",
"177 0 LINE SMOOTH",
"185 0 OFFCURVE",
"192 7 OFFCURVE",
"192 15 CURVE SMOOTH"
);
},
{
closed = 1;
nodes = (
"60 596 LINE SMOOTH",
"60 588 OFFCURVE",
"67 581 OFFCURVE",
"75 581 CURVE SMOOTH",
"177 581 LINE SMOOTH",
"185 581 OFFCURVE",
"192 588 OFFCURVE",
"192 596 CURVE SMOOTH",
"192 685 LINE SMOOTH",
"192 693 OFFCURVE",
"185 700 OFFCURVE",
"177 700 CURVE SMOOTH",
"75 700 LINE SMOOTH",
"67 700 OFFCURVE",
"60 693 OFFCURVE",
"60 685 CURVE SMOOTH"
);
}
);
width = 252;
},
{
layerId = "DBDE1730-7CB6-4711-8383-3CA3AF6893BF";
paths = (
{
closed = 1;
nodes = (
"153 514 LINE SMOOTH",
"153 517 OFFCURVE",
"150 520 OFFCURVE",
"147 520 CURVE SMOOTH",
"116 520 LINE SMOOTH",
"113 520 OFFCURVE",
"110 517 OFFCURVE",
"110 514 CURVE SMOOTH",
"110 6 LINE SMOOTH",
"110 3 OFFCURVE",
"113 0 OFFCURVE",
"116 0 CURVE SMOOTH",
"147 0 LINE SMOOTH",
"150 0 OFFCURVE",
"153 3 OFFCURVE",
"153 6 CURVE SMOOTH"
);
},
{
closed = 1;
nodes = (
"100 731 LINE",
"99 711 OFFCURVE",
"111 699 OFFCURVE",
"131 700 CURVE",
"132 700 LINE",
"152 699 OFFCURVE",
"164 711 OFFCURVE",
"163 731 CURVE",
"163 732 LINE",
"164 752 OFFCURVE",
"152 764 OFFCURVE",
"132 763 CURVE",
"131 763 LINE",
"111 764 OFFCURVE",
"99 752 OFFCURVE",
"100 732 CURVE"
);
}
);
width = 263;
},
{
associatedMasterId = "644D3D1A-706E-4D36-8EE1-81638A7D248A";
layerId = "C477A06B-9B6C-46B7-9E6B-75A02E2A3200";
name = "Mar 14 18, 20:33";
paths = (
{
closed = 1;
nodes = (
"195 8 OFFCURVE",
"187 0 OFFCURVE",
"175 0 CURVE SMOOTH",
"83 0 LINE SMOOTH",
"71 0 OFFCURVE",
"63 8 OFFCURVE",
"63 20 CURVE SMOOTH",
"63 480 LINE SMOOTH",
"63 492 OFFCURVE",
"71 500 OFFCURVE",
"83 500 CURVE SMOOTH",
"175 500 LINE SMOOTH",
"187 500 OFFCURVE",
"195 492 OFFCURVE",
"195 480 CURVE SMOOTH",
"195 20 LINE SMOOTH"
);
},
{
closed = 1;
nodes = (
"104 687 OFFCURVE",
"66 612 OFFCURVE",
"60 578 CURVE",
"60 568 OFFCURVE",
"66 563 OFFCURVE",
"76 563 CURVE SMOOTH",
"175 563 LINE SMOOTH",
"187 563 OFFCURVE",
"195 571 OFFCURVE",
"195 583 CURVE SMOOTH",
"197 680 LINE SMOOTH",
"197 689 OFFCURVE",
"190 697 OFFCURVE",
"181 696 CURVE SMOOTH"
);
}
);
width = 257;
},
{
associatedMasterId = "644D3D1A-706E-4D36-8EE1-81638A7D248A";
layerId = "157ACC2C-16AC-47EB-9EF6-F27E485BFB9B";
name = "Mar 14 18, 20:37";
paths = (
{
closed = 1;
nodes = (
"63 579 LINE SMOOTH",
"63 571 OFFCURVE",
"70 564 OFFCURVE",
"78 564 CURVE SMOOTH",
"180 564 LINE SMOOTH",
"188 564 OFFCURVE",
"195 571 OFFCURVE",
"195 579 CURVE SMOOTH",
"195 675 LINE SMOOTH",
"195 683 OFFCURVE",
"188 690 OFFCURVE",
"180 690 CURVE SMOOTH",
"78 690 LINE SMOOTH",
"70 690 OFFCURVE",
"63 683 OFFCURVE",
"63 675 CURVE SMOOTH"
);
},
{
closed = 1;
nodes = (
"63 279 LINE",
"63 386 LINE",
"63 420 OFFCURVE",
"102 495 OFFCURVE",
"179 504 CURVE SMOOTH",
"188 505 OFFCURVE",
"195 497 OFFCURVE",
"195 488 CURVE SMOOTH",
"195 20 LINE SMOOTH",
"195 8 OFFCURVE",
"187 0 OFFCURVE",
"175 0 CURVE SMOOTH",
"83 0 LINE SMOOTH",
"70 0 OFFCURVE",
"63 8 OFFCURVE",
"63 20 CURVE SMOOTH"
);
}
);
width = 257;
}
);
unicode = 0069;
},
{
glyphname = j;
lastChange = "2018-03-31 13:14:55 +0000";
layers = (
{
layerId = "644D3D1A-706E-4D36-8EE1-81638A7D248A";
paths = (
{
closed = 1;
nodes = (
"192 493 OFFCURVE",
"185 500 OFFCURVE",
"177 500 CURVE SMOOTH",
"75 500 LINE SMOOTH",
"67 500 OFFCURVE",
"60 493 OFFCURVE",
"60 485 CURVE SMOOTH",
"60 -22 LINE SMOOTH",
"60 -73 OFFCURVE",
"55 -79 OFFCURVE",
"15 -79 CURVE SMOOTH",
"6 -79 OFFCURVE",
"0 -86 OFFCURVE",
"0 -94 CURVE SMOOTH",
"0 -185 LINE SMOOTH",
"0 -194 OFFCURVE",
"7 -200 OFFCURVE",
"16 -200 CURVE SMOOTH",
"174 -200 OFFCURVE",
"192 -181 OFFCURVE",
"192 -12 CURVE SMOOTH",
"192 485 LINE SMOOTH"
);
},
{
closed = 1;
nodes = (
"60 596 LINE SMOOTH",
"60 588 OFFCURVE",
"67 581 OFFCURVE",
"75 581 CURVE SMOOTH",
"177 581 LINE SMOOTH",
"185 581 OFFCURVE",
"192 588 OFFCURVE",
"192 596 CURVE SMOOTH",
"192 685 LINE SMOOTH",
"192 693 OFFCURVE",
"185 700 OFFCURVE",
"177 700 CURVE SMOOTH",
"75 700 LINE SMOOTH",
"67 700 OFFCURVE",
"60 693 OFFCURVE",
"60 685 CURVE SMOOTH"
);
}
);
width = 252;
},
{
layerId = "DBDE1730-7CB6-4711-8383-3CA3AF6893BF";
paths = (
{
closed = 1;
nodes = (
"187 517 OFFCURVE",
"184 520 OFFCURVE",
"181 520 CURVE SMOOTH",
"150 520 LINE SMOOTH",
"147 520 OFFCURVE",
"144 517 OFFCURVE",
"144 514 CURVE SMOOTH",
"144 -74 LINE SMOOTH",
"144 -126 OFFCURVE",
"121 -160 OFFCURVE",
"86 -160 CURVE SMOOTH",
"81 -160 OFFCURVE",
"80 -161 OFFCURVE",
"80 -166 CURVE SMOOTH",
"80 -194 LINE SMOOTH",
"80 -199 OFFCURVE",
"81 -200 OFFCURVE",
"86 -200 CURVE SMOOTH",
"146 -200 OFFCURVE",
"187 -158 OFFCURVE",
"187 -94 CURVE SMOOTH",
"187 514 LINE SMOOTH"
);
},
{
closed = 1;
nodes = (
"134 731 LINE SMOOTH",
"134 712 OFFCURVE",
"146 700 OFFCURVE",
"165 700 CURVE SMOOTH",
"166 700 LINE SMOOTH",
"185 700 OFFCURVE",
"197 712 OFFCURVE",
"197 731 CURVE SMOOTH",
"197 732 LINE SMOOTH",
"197 751 OFFCURVE",
"185 763 OFFCURVE",
"166 763 CURVE SMOOTH",
"165 763 LINE SMOOTH",
"146 763 OFFCURVE",
"134 751 OFFCURVE",
"134 732 CURVE SMOOTH"
);
}
);
width = 297;
},
{
associatedMasterId = "644D3D1A-706E-4D36-8EE1-81638A7D248A";
layerId = "EE9AA7B5-D918-4130-A156-8076811F946C";
name = "Mar 27 18, 22:34";
paths = (
{
closed = 1;
nodes = (
"212 493 OFFCURVE",
"205 500 OFFCURVE",
"197 500 CURVE SMOOTH",
"95 500 LINE SMOOTH",
"87 500 OFFCURVE",
"80 493 OFFCURVE",
"80 485 CURVE SMOOTH",
"80 30 LINE SMOOTH",
"80 -86 OFFCURVE",
"73 -99 OFFCURVE",
"15 -99 CURVE SMOOTH",
"6 -99 OFFCURVE",
"0 -106 OFFCURVE",
"0 -114 CURVE SMOOTH",
"0 -215 LINE SMOOTH",
"0 -224 OFFCURVE",
"7 -230 OFFCURVE",
"16 -230 CURVE SMOOTH",
"192 -230 OFFCURVE",
"212 -205 OFFCURVE",
"212 30 CURVE SMOOTH",
"212 485 LINE SMOOTH"
);
},
{
closed = 1;
nodes = (
"80 596 LINE SMOOTH",
"80 588 OFFCURVE",
"87 581 OFFCURVE",
"95 581 CURVE SMOOTH",
"197 581 LINE SMOOTH",
"205 581 OFFCURVE",
"212 588 OFFCURVE",
"212 596 CURVE SMOOTH",
"212 685 LINE SMOOTH",
"212 693 OFFCURVE",
"205 700 OFFCURVE",
"197 700 CURVE SMOOTH",
"95 700 LINE SMOOTH",
"87 700 OFFCURVE",
"80 693 OFFCURVE",
"80 685 CURVE SMOOTH"
);
}
);
width = 272;
}
);
unicode = 006A;
},
{
glyphname = k;
lastChange = "2018-04-01 16:27:10 +0000";
layers = (
{
layerId = "DBDE1730-7CB6-4711-8383-3CA3AF6893BF";
paths = (
{
closed = 1;
nodes = (
"208 290 LINE",
"427 4 LINE SMOOTH",
"429 2 OFFCURVE",
"432 0 OFFCURVE",
"435 0 CURVE SMOOTH",
"474 0 LINE SMOOTH",
"479 0 OFFCURVE",
"480 3 OFFCURVE",
"477 7 CURVE SMOOTH",
"250 300 LINE SMOOTH",
"248 303 OFFCURVE",
"246 303 OFFCURVE",
"232 303 CURVE",
"228 308 LINE"
);
},
{
closed = 1;
nodes = (
"138 217 LINE",
"451 513 LINE SMOOTH",
"455 516 OFFCURVE",
"453 520 OFFCURVE",
"448 520 CURVE SMOOTH",
"403 520 LINE SMOOTH",
"400 520 OFFCURVE",
"398 519 OFFCURVE",
"396 517 CURVE SMOOTH",
"139 270 LINE"
);
},
{
closed = 1;
nodes = (
"100 6 LINE SMOOTH",
"100 2 OFFCURVE",
"103 0 OFFCURVE",
"106 0 CURVE SMOOTH",
"137 0 LINE SMOOTH",
"141 0 OFFCURVE",
"143 3 OFFCURVE",
"143 6 CURVE SMOOTH",
"143 794 LINE SMOOTH",
"143 798 OFFCURVE",
"140 800 OFFCURVE",
"137 800 CURVE SMOOTH",
"106 800 LINE SMOOTH",
"102 800 OFFCURVE",
"100 797 OFFCURVE",
"100 794 CURVE SMOOTH"
);
}
);
width = 539;
},
{
associatedMasterId = "644D3D1A-706E-4D36-8EE1-81638A7D248A";
layerId = "B200C35A-0223-4C6F-8A61-F8EDFD51EB81";
name = "Test 3";
paths = (
{
closed = 1;
nodes = (
"410 0 LINE",
"564 0 LINE",
"351 292 LINE",
"192 282 LINE"
);
},
{
closed = 1;
nodes = (
"65 750 OFFCURVE",
"58 743 OFFCURVE",
"58 735 CURVE SMOOTH",
"58 15 LINE SMOOTH",
"58 7 OFFCURVE",
"65 0 OFFCURVE",
"73 0 CURVE SMOOTH",
"177 0 LINE SMOOTH",
"185 0 OFFCURVE",
"192 6 OFFCURVE",
"192 15 CURVE SMOOTH",
"192 95 LINE",
"182 158 LINE",
"192 152 LINE",
"192 324 LINE",
"182 318 LINE",
"192 376 LINE",
"192 735 LINE SMOOTH",
"192 743 OFFCURVE",
"185 750 OFFCURVE",
"177 750 CURVE SMOOTH",
"73 750 LINE SMOOTH"
);
},
{
closed = 1;
nodes = (
"192 152 LINE",
"545 500 LINE",
"375 500 LINE",
"149 283 LINE"
);
}
);
width = 565;
},
{
associatedMasterId = "644D3D1A-706E-4D36-8EE1-81638A7D248A";
layerId = "D8C0411D-B532-4309-AECC-ECBF6645E4B4";
name = "Mar 31 18, 13:46";
paths = (
{
closed = 1;
nodes = (
"396 18 LINE SMOOTH",
"403 8 OFFCURVE",
"414 1 OFFCURVE",
"425 1 CURVE SMOOTH",
"525 0 LINE SMOOTH",
"542 0 OFFCURVE",
"551 18 OFFCURVE",
"541 32 CURVE SMOOTH",
"321 337 LINE",
"222 245 LINE"
);
},
{
closed = 1;
nodes = (
"149 110 LINE",
"507 463 LINE SMOOTH",
"522 478 OFFCURVE",
"513 500 OFFCURVE",
"492 500 CURVE SMOOTH",
"388 500 LINE SMOOTH",
"380 500 OFFCURVE",
"369 495 OFFCURVE",
"361 487 CURVE SMOOTH",
"149 283 LINE"
);
},
{
closed = 1;
nodes = (
"60 15 LINE SMOOTH",
"60 7 OFFCURVE",
"67 0 OFFCURVE",
"75 0 CURVE SMOOTH",
"177 0 LINE SMOOTH",
"185 0 OFFCURVE",
"192 7 OFFCURVE",
"192 15 CURVE SMOOTH",
"192 735 LINE SMOOTH",
"192 743 OFFCURVE",
"185 750 OFFCURVE",
"177 750 CURVE SMOOTH",
"75 750 LINE SMOOTH",
"67 750 OFFCURVE",
"60 743 OFFCURVE",
"60 735 CURVE SMOOTH"
);
}
);
width = 575;
},
{
associatedMasterId = "644D3D1A-706E-4D36-8EE1-81638A7D248A";
layerId = "5CEB8CF7-35EF-4EA0-941B-DE6435252B11";
name = "Mar 31 18, 14:09";
paths = (
{
closed = 1;
nodes = (
"396 18 LINE SMOOTH",
"404 8 OFFCURVE",
"414 1 OFFCURVE",
"425 1 CURVE SMOOTH",
"525 0 LINE SMOOTH",
"542 0 OFFCURVE",
"551 18 OFFCURVE",
"541 32 CURVE SMOOTH",
"355 290 LINE",
"191 290 LINE"
);
},
{
closed = 1;
nodes = (
"149 110 LINE",
"507 463 LINE SMOOTH",
"522 478 OFFCURVE",
"513 500 OFFCURVE",
"492 500 CURVE SMOOTH",
"388 500 LINE SMOOTH",
"380 500 OFFCURVE",
"369 495 OFFCURVE",
"361 487 CURVE SMOOTH",
"149 283 LINE"
);
},
{
closed = 1;
nodes = (
"60 15 LINE SMOOTH",
"60 7 OFFCURVE",
"67 0 OFFCURVE",
"75 0 CURVE SMOOTH",
"177 0 LINE SMOOTH",
"185 0 OFFCURVE",
"192 7 OFFCURVE",
"192 15 CURVE SMOOTH",
"192 735 LINE SMOOTH",
"192 743 OFFCURVE",
"185 750 OFFCURVE",
"177 750 CURVE SMOOTH",
"75 750 LINE SMOOTH",
"67 750 OFFCURVE",
"60 743 OFFCURVE",
"60 735 CURVE SMOOTH"
);
}
);
width = 575;
},
{
layerId = "644D3D1A-706E-4D36-8EE1-81638A7D248A";
paths = (
{
closed = 1;
nodes = (
"223 227 LINE",
"376 18 LINE SMOOTH",
"383 8 OFFCURVE",
"394 1 OFFCURVE",
"405 1 CURVE SMOOTH",
"505 0 LINE SMOOTH",
"522 0 OFFCURVE",
"531 18 OFFCURVE",
"521 32 CURVE SMOOTH",
"354 249 LINE SMOOTH",
"340 267 OFFCURVE",
"334 268 OFFCURVE",
"293 268 CURVE",
"283 284 LINE"
);
},
{
closed = 1;
nodes = (
"139 133 LINE",
"491 463 LINE SMOOTH",
"506 477 OFFCURVE",
"497 500 OFFCURVE",
"476 500 CURVE SMOOTH",
"368 500 LINE SMOOTH",
"360 500 OFFCURVE",
"349 495 OFFCURVE",
"341 487 CURVE SMOOTH",
"139 283 LINE"
);
},
{
closed = 1;
nodes = (
"60 15 LINE SMOOTH",
"60 7 OFFCURVE",
"67 0 OFFCURVE",
"75 0 CURVE SMOOTH",
"177 0 LINE SMOOTH",
"185 0 OFFCURVE",
"192 7 OFFCURVE",
"192 15 CURVE SMOOTH",
"192 735 LINE SMOOTH",
"192 743 OFFCURVE",
"185 750 OFFCURVE",
"177 750 CURVE SMOOTH",
"75 750 LINE SMOOTH",
"67 750 OFFCURVE",
"60 743 OFFCURVE",
"60 735 CURVE SMOOTH"
);
}
);
width = 565;
}
);
unicode = 006B;
},
{
glyphname = l;
lastChange = "2018-03-31 12:07:18 +0000";
layers = (
{
layerId = "644D3D1A-706E-4D36-8EE1-81638A7D248A";
paths = (
{
closed = 1;
nodes = (
"60 250 LINE SMOOTH",
"60 25 OFFCURVE",
"80 0 OFFCURVE",
"256 0 CURVE SMOOTH",
"265 0 OFFCURVE",
"272 6 OFFCURVE",
"272 15 CURVE SMOOTH",
"272 116 LINE SMOOTH",
"272 124 OFFCURVE",
"266 131 OFFCURVE",
"257 131 CURVE SMOOTH",
"199 131 OFFCURVE",
"192 144 OFFCURVE",
"192 260 CURVE SMOOTH",
"192 735 LINE SMOOTH",
"192 743 OFFCURVE",
"185 750 OFFCURVE",
"177 750 CURVE SMOOTH",
"75 750 LINE SMOOTH",
"67 750 OFFCURVE",
"60 743 OFFCURVE",
"60 735 CURVE SMOOTH"
);
}
);
width = 302;
},
{
layerId = "DBDE1730-7CB6-4711-8383-3CA3AF6893BF";
paths = (
{
closed = 1;
nodes = (
"100 100 LINE SMOOTH",
"100 36 OFFCURVE",
"141 -6 OFFCURVE",
"201 -6 CURVE SMOOTH",
"206 -6 OFFCURVE",
"207 -5 OFFCURVE",
"207 0 CURVE SMOOTH",
"207 28 LINE SMOOTH",
"207 33 OFFCURVE",
"206 34 OFFCURVE",
"201 34 CURVE SMOOTH",
"166 34 OFFCURVE",
"143 68 OFFCURVE",
"143 120 CURVE SMOOTH",
"143 794 LINE SMOOTH",
"143 797 OFFCURVE",
"140 800 OFFCURVE",
"137 800 CURVE SMOOTH",
"106 800 LINE SMOOTH",
"103 800 OFFCURVE",
"100 797 OFFCURVE",
"100 794 CURVE SMOOTH"
);
}
);
width = 287;
},
{
associatedMasterId = "644D3D1A-706E-4D36-8EE1-81638A7D248A";
layerId = "DB11D435-FCE8-42FF-B562-9D3E9C6278ED";
name = "Mar 14 18, 21:26";
paths = (
{
closed = 1;
nodes = (
"310 11 LINE SMOOTH",
"310 3 OFFCURVE",
"303 -4 OFFCURVE",
"295 -4 CURVE SMOOTH",
"263 -4 LINE SMOOTH",
"125 -4 OFFCURVE",
"70 49 OFFCURVE",
"70 181 CURVE SMOOTH",
"70 725 LINE SMOOTH",
"70 733 OFFCURVE",
"77 740 OFFCURVE",
"85 740 CURVE SMOOTH",
"185 740 LINE SMOOTH",
"193 740 OFFCURVE",
"200 733 OFFCURVE",
"200 725 CURVE SMOOTH",
"200 181 LINE SMOOTH",
"200 135 OFFCURVE",
"218 117 OFFCURVE",
"263 117 CURVE SMOOTH",
"295 117 LINE SMOOTH",
"303 117 OFFCURVE",
"310 110 OFFCURVE",
"310 102 CURVE SMOOTH"
);
}
);
width = 380;
}
);
unicode = 006C;
},
{
glyphname = m;
lastChange = "2018-04-01 16:27:20 +0000";
layers = (
{
layerId = "644D3D1A-706E-4D36-8EE1-81638A7D248A";
paths = (
{
closed = 1;
nodes = (
"60 20 LINE SMOOTH",
"60 8 OFFCURVE",
"68 0 OFFCURVE",
"80 0 CURVE SMOOTH",
"172 0 LINE SMOOTH",
"184 0 OFFCURVE",
"192 8 OFFCURVE",
"192 20 CURVE SMOOTH",
"192 398 LINE",
"182 392 LINE",
"192 480 LINE SMOOTH",
"193 493 OFFCURVE",
"184 500 OFFCURVE",
"172 500 CURVE SMOOTH",
"80 500 LINE SMOOTH",
"68 500 OFFCURVE",
"60 492 OFFCURVE",
"60 480 CURVE SMOOTH"
);
},
{
closed = 1;
nodes = (
"483 348 LINE SMOOTH",
"483 448 OFFCURVE",
"440 504 OFFCURVE",
"357 504 CURVE SMOOTH",
"279 504 OFFCURVE",
"210 478 OFFCURVE",
"198 401 CURVE",
"192 398 LINE",
"192 334 LINE",
"192 381 OFFCURVE",
"210 383 OFFCURVE",
"297 383 CURVE SMOOTH",
"326 383 OFFCURVE",
"351 380 OFFCURVE",
"351 324 CURVE SMOOTH",
"351 20 LINE SMOOTH",
"351 8 OFFCURVE",
"359 0 OFFCURVE",
"371 0 CURVE SMOOTH",
"463 0 LINE SMOOTH",
"475 0 OFFCURVE",
"483 8 OFFCURVE",
"483 20 CURVE SMOOTH"
);
},
{
closed = 1;
nodes = (
"774 348 LINE SMOOTH",
"774 448 OFFCURVE",
"731 504 OFFCURVE",
"648 504 CURVE SMOOTH",
"570 504 OFFCURVE",
"501 478 OFFCURVE",
"489 401 CURVE",
"477 395 LINE",
"483 324 LINE",
"483 380 OFFCURVE",
"508 383 OFFCURVE",
"537 383 CURVE SMOOTH",
"616 383 OFFCURVE",
"642 380 OFFCURVE",
"642 324 CURVE SMOOTH",
"642 20 LINE SMOOTH",
"642 8 OFFCURVE",
"650 0 OFFCURVE",
"662 0 CURVE SMOOTH",
"754 0 LINE SMOOTH",
"766 0 OFFCURVE",
"774 8 OFFCURVE",
"774 20 CURVE SMOOTH"
);
}
);
width = 824;
},
{
layerId = "DBDE1730-7CB6-4711-8383-3CA3AF6893BF";
paths = (
{
closed = 1;
nodes = (
"100 6 LINE SMOOTH",
"100 3 OFFCURVE",
"103 0 OFFCURVE",
"106 0 CURVE SMOOTH",
"137 0 LINE SMOOTH",
"140 0 OFFCURVE",
"143 3 OFFCURVE",
"143 6 CURVE SMOOTH",
"143 417 LINE",
"139 416 LINE",
"143 514 LINE",
"143 517 OFFCURVE",
"140 520 OFFCURVE",
"137 520 CURVE SMOOTH",
"106 520 LINE SMOOTH",
"103 520 OFFCURVE",
"100 517 OFFCURVE",
"100 514 CURVE SMOOTH"
);
},
{
closed = 1;
nodes = (
"452 318 LINE SMOOTH",
"452 452 OFFCURVE",
"395 526 OFFCURVE",
"291 526 CURVE SMOOTH",
"219 526 OFFCURVE",
"159 483 OFFCURVE",
"147 418 CURVE",
"143 417 LINE",
"143 345 LINE",
"143 424 OFFCURVE",
"205 486 OFFCURVE",
"291 486 CURVE SMOOTH",
"367 486 OFFCURVE",
"409 426 OFFCURVE",
"409 318 CURVE SMOOTH",
"409 6 LINE SMOOTH",
"409 3 OFFCURVE",
"412 0 OFFCURVE",
"415 0 CURVE SMOOTH",
"446 0 LINE SMOOTH",
"449 0 OFFCURVE",
"452 3 OFFCURVE",
"452 6 CURVE SMOOTH"
);
},
{
closed = 1;
nodes = (
"761 318 LINE SMOOTH",
"761 452 OFFCURVE",
"700 526 OFFCURVE",
"590 526 CURVE SMOOTH",
"508 526 OFFCURVE",
"461 491 OFFCURVE",
"439 429 CURVE",
"430 426 LINE",
"452 318 LINE",
"452 426 OFFCURVE",
"495 486 OFFCURVE",
"590 486 CURVE SMOOTH",
"672 486 OFFCURVE",
"718 426 OFFCURVE",
"718 318 CURVE SMOOTH",
"718 6 LINE SMOOTH",
"718 3 OFFCURVE",
"721 0 OFFCURVE",
"724 0 CURVE SMOOTH",
"755 0 LINE SMOOTH",
"758 0 OFFCURVE",
"761 3 OFFCURVE",
"761 6 CURVE SMOOTH"
);
}
);
width = 841;
},
{
associatedMasterId = "DBDE1730-7CB6-4711-8383-3CA3AF6893BF";
layerId = "668D52A1-C355-4848-ABA0-AC322D3599EA";
name = "Mar 28 18, 10:59";
paths = (
{
closed = 1;
nodes = (
"100 6 LINE SMOOTH",
"100 3 OFFCURVE",
"103 0 OFFCURVE",
"106 0 CURVE SMOOTH",
"137 0 LINE SMOOTH",
"140 0 OFFCURVE",
"143 3 OFFCURVE",
"143 6 CURVE SMOOTH",
"143 417 LINE",
"139 416 LINE",
"143 514 LINE",
"143 517 OFFCURVE",
"140 520 OFFCURVE",
"137 520 CURVE SMOOTH",
"106 520 LINE SMOOTH",
"103 520 OFFCURVE",
"100 517 OFFCURVE",
"100 514 CURVE SMOOTH"
);
},
{
closed = 1;
nodes = (
"448 318 LINE SMOOTH",
"448 461 OFFCURVE",
"401 526 OFFCURVE",
"297 526 CURVE SMOOTH",
"205 526 OFFCURVE",
"173 490 OFFCURVE",
"147 418 CURVE",
"143 417 LINE",
"143 345 LINE",
"161 416 OFFCURVE",
"197 486 OFFCURVE",
"297 486 CURVE SMOOTH",
"371 486 OFFCURVE",
"405 433 OFFCURVE",
"405 318 CURVE SMOOTH",
"405 6 LINE SMOOTH",
"405 3 OFFCURVE",
"408 0 OFFCURVE",
"411 0 CURVE SMOOTH",
"442 0 LINE SMOOTH",
"445 0 OFFCURVE",
"448 3 OFFCURVE",
"448 6 CURVE SMOOTH"
);
},
{
closed = 1;
nodes = (
"737 318 LINE SMOOTH",
"737 461 OFFCURVE",
"690 526 OFFCURVE",
"586 526 CURVE SMOOTH",
"494 526 OFFCURVE",
"462 490 OFFCURVE",
"436 418 CURVE",
"432 417 LINE",
"448 318 LINE",
"448 426 OFFCURVE",
"486 486 OFFCURVE",
"586 486 CURVE SMOOTH",
"660 486 OFFCURVE",
"694 433 OFFCURVE",
"694 318 CURVE SMOOTH",
"694 6 LINE SMOOTH",
"694 3 OFFCURVE",
"697 0 OFFCURVE",
"700 0 CURVE SMOOTH",
"731 0 LINE SMOOTH",
"734 0 OFFCURVE",
"737 3 OFFCURVE",
"737 6 CURVE SMOOTH"
);
}
);
width = 817;
},
{
associatedMasterId = "DBDE1730-7CB6-4711-8383-3CA3AF6893BF";
layerId = "9AAF243E-833C-490E-9D5B-3B286BE2521F";
name = "Mar 28 18, 11:10";
paths = (
{
closed = 1;
nodes = (
"100 6 LINE SMOOTH",
"100 3 OFFCURVE",
"103 0 OFFCURVE",
"106 0 CURVE SMOOTH",
"137 0 LINE SMOOTH",
"140 0 OFFCURVE",
"143 3 OFFCURVE",
"143 6 CURVE SMOOTH",
"143 417 LINE",
"139 416 LINE",
"143 514 LINE",
"143 517 OFFCURVE",
"140 520 OFFCURVE",
"137 520 CURVE SMOOTH",
"106 520 LINE SMOOTH",
"103 520 OFFCURVE",
"100 517 OFFCURVE",
"100 514 CURVE SMOOTH"
);
},
{
closed = 1;
nodes = (
"432 318 LINE SMOOTH",
"432 462 OFFCURVE",
"381 526 OFFCURVE",
"271 526 CURVE SMOOTH",
"209 526 OFFCURVE",
"159 483 OFFCURVE",
"147 418 CURVE",
"143 417 LINE",
"143 345 LINE",
"164 430 OFFCURVE",
"215 486 OFFCURVE",
"271 486 CURVE SMOOTH",
"350 486 OFFCURVE",
"389 440 OFFCURVE",
"389 318 CURVE SMOOTH",
"389 6 LINE SMOOTH",
"389 3 OFFCURVE",
"392 0 OFFCURVE",
"395 0 CURVE SMOOTH",
"426 0 LINE SMOOTH",
"429 0 OFFCURVE",
"432 3 OFFCURVE",
"432 6 CURVE SMOOTH"
);
},
{
closed = 1;
nodes = (
"721 318 LINE SMOOTH",
"721 470 OFFCURVE",
"670 526 OFFCURVE",
"560 526 CURVE SMOOTH",
"492 526 OFFCURVE",
"428 483 OFFCURVE",
"415 418 CURVE",
"409 416 LINE",
"432 318 LINE",
"432 419 OFFCURVE",
"483 486 OFFCURVE",
"560 486 CURVE SMOOTH",
"639 486 OFFCURVE",
"678 440 OFFCURVE",
"678 318 CURVE SMOOTH",
"678 6 LINE SMOOTH",
"678 3 OFFCURVE",
"681 0 OFFCURVE",
"684 0 CURVE SMOOTH",
"715 0 LINE SMOOTH",
"718 0 OFFCURVE",
"721 3 OFFCURVE",
"721 6 CURVE SMOOTH"
);
}
);
width = 817;
}
);
unicode = 006D;
},
{
glyphname = n;
lastChange = "2018-04-01 16:23:53 +0000";
layers = (
{
layerId = "644D3D1A-706E-4D36-8EE1-81638A7D248A";
paths = (
{
closed = 1;
nodes = (
"60 20 LINE SMOOTH",
"60 8 OFFCURVE",
"68 0 OFFCURVE",
"80 0 CURVE SMOOTH",
"172 0 LINE SMOOTH",
"184 0 OFFCURVE",
"192 8 OFFCURVE",
"192 20 CURVE SMOOTH",
"192 398 LINE",
"182 392 LINE",
"192 480 LINE SMOOTH",
"193 493 OFFCURVE",
"184 500 OFFCURVE",
"172 500 CURVE SMOOTH",
"80 500 LINE SMOOTH",
"68 500 OFFCURVE",
"60 492 OFFCURVE",
"60 480 CURVE SMOOTH"
);
},
{
closed = 1;
nodes = (
"533 348 LINE SMOOTH",
"533 457 OFFCURVE",
"480 504 OFFCURVE",
"367 504 CURVE SMOOTH",
"289 504 OFFCURVE",
"210 478 OFFCURVE",
"198 401 CURVE",
"192 398 LINE",
"192 334 LINE",
"192 378 OFFCURVE",
"203 383 OFFCURVE",
"297 383 CURVE SMOOTH",
"391 383 OFFCURVE",
"401 377 OFFCURVE",
"401 324 CURVE SMOOTH",
"401 20 LINE SMOOTH",
"401 8 OFFCURVE",
"409 0 OFFCURVE",
"421 0 CURVE SMOOTH",
"513 0 LINE SMOOTH",
"525 0 OFFCURVE",
"533 8 OFFCURVE",
"533 20 CURVE SMOOTH"
);
}
);
width = 583;
},
{
layerId = "DBDE1730-7CB6-4711-8383-3CA3AF6893BF";
paths = (
{
closed = 1;
nodes = (
"100 6 LINE SMOOTH",
"100 3 OFFCURVE",
"103 0 OFFCURVE",
"106 0 CURVE SMOOTH",
"137 0 LINE SMOOTH",
"140 0 OFFCURVE",
"143 3 OFFCURVE",
"143 6 CURVE SMOOTH",
"143 417 LINE",
"139 416 LINE",
"143 514 LINE",
"143 517 OFFCURVE",
"140 520 OFFCURVE",
"137 520 CURVE SMOOTH",
"106 520 LINE SMOOTH",
"103 520 OFFCURVE",
"100 517 OFFCURVE",
"100 514 CURVE SMOOTH"
);
},
{
closed = 1;
nodes = (
"498 318 LINE SMOOTH",
"498 452 OFFCURVE",
"433 526 OFFCURVE",
"317 526 CURVE SMOOTH",
"225 526 OFFCURVE",
"173 490 OFFCURVE",
"147 418 CURVE",
"143 417 LINE",
"143 345 LINE",
"143 424 OFFCURVE",
"211 486 OFFCURVE",
"317 486 CURVE SMOOTH",
"406 486 OFFCURVE",
"455 426 OFFCURVE",
"455 318 CURVE SMOOTH",
"455 6 LINE SMOOTH",
"455 3 OFFCURVE",
"458 0 OFFCURVE",
"461 0 CURVE SMOOTH",
"492 0 LINE SMOOTH",
"495 0 OFFCURVE",
"498 3 OFFCURVE",
"498 6 CURVE SMOOTH"
);
}
);
width = 578;
},
{
associatedMasterId = "DBDE1730-7CB6-4711-8383-3CA3AF6893BF";
layerId = "CA423C45-3441-475B-A451-4119A541BA0A";
name = "Mar 28 18, 11:45";
paths = (
{
closed = 1;
nodes = (
"100 6 LINE SMOOTH",
"100 3 OFFCURVE",
"103 0 OFFCURVE",
"106 0 CURVE SMOOTH",
"137 0 LINE SMOOTH",
"140 0 OFFCURVE",
"143 3 OFFCURVE",
"143 6 CURVE SMOOTH",
"143 417 LINE",
"139 416 LINE",
"143 514 LINE",
"143 517 OFFCURVE",
"140 520 OFFCURVE",
"137 520 CURVE SMOOTH",
"106 520 LINE SMOOTH",
"103 520 OFFCURVE",
"100 517 OFFCURVE",
"100 514 CURVE SMOOTH"
);
},
{
closed = 1;
nodes = (
"498 318 LINE SMOOTH",
"498 452 OFFCURVE",
"433 526 OFFCURVE",
"317 526 CURVE SMOOTH",
"225 526 OFFCURVE",
"173 490 OFFCURVE",
"147 418 CURVE",
"143 417 LINE",
"143 345 LINE",
"161 416 OFFCURVE",
"217 486 OFFCURVE",
"317 486 CURVE SMOOTH",
"406 486 OFFCURVE",
"455 426 OFFCURVE",
"455 318 CURVE SMOOTH",
"455 6 LINE SMOOTH",
"455 3 OFFCURVE",
"458 0 OFFCURVE",
"461 0 CURVE SMOOTH",
"492 0 LINE SMOOTH",
"495 0 OFFCURVE",
"498 3 OFFCURVE",
"498 6 CURVE SMOOTH"
);
}
);
width = 578;
}
);
unicode = 006E;
},
{
glyphname = o;
lastChange = "2018-04-01 14:29:04 +0000";
layers = (
{
hints = (
{
place = "{278.344, 0}";
},
{
place = "{263.805, 0}";
}
);
layerId = "644D3D1A-706E-4D36-8EE1-81638A7D248A";
paths = (
{
closed = 1;
nodes = (
"495 -4 OFFCURVE",
"526 34 OFFCURVE",
"526 250 CURVE SMOOTH",
"526 469 OFFCURVE",
"493 504 OFFCURVE",
"288 504 CURVE SMOOTH",
"87 504 OFFCURVE",
"50 460 OFFCURVE",
"50 250 CURVE SMOOTH",
"50 25 OFFCURVE",
"89 -4 OFFCURVE",
"288 -4 CURVE SMOOTH"
);
},
{
closed = 1;
nodes = (
"193 117 OFFCURVE",
"182 130 OFFCURVE",
"182 250 CURVE SMOOTH",
"182 370 OFFCURVE",
"195 383 OFFCURVE",
"288 383 CURVE SMOOTH",
"387 383 OFFCURVE",
"394 369 OFFCURVE",
"394 250 CURVE SMOOTH",
"394 130 OFFCURVE",
"384 117 OFFCURVE",
"288 117 CURVE SMOOTH"
);
}
);
width = 576;
},
{
associatedMasterId = "644D3D1A-706E-4D36-8EE1-81638A7D248A";
hints = (
{
place = "{278.344, 0}";
},
{
place = "{263.805, 0}";
}
);
layerId = "0E35587C-A12E-4AFA-9B05-A37F35E41958";
name = "Mar 13 18, 21:34";
paths = (
{
closed = 1;
nodes = (
"537 43 OFFCURVE",
"483 -4 OFFCURVE",
"370 -4 CURVE SMOOTH",
"227 -4 LINE SMOOTH",
"114 -4 OFFCURVE",
"60 43 OFFCURVE",
"60 152 CURVE SMOOTH",
"60 348 LINE SMOOTH",
"60 457 OFFCURVE",
"114 504 OFFCURVE",
"227 504 CURVE SMOOTH",
"370 504 LINE SMOOTH",
"483 504 OFFCURVE",
"537 457 OFFCURVE",
"537 348 CURVE SMOOTH",
"537 152 LINE SMOOTH"
);
},
{
closed = 1;
nodes = (
"405 323 LINE SMOOTH",
"405 363 OFFCURVE",
"382 383 OFFCURVE",
"342 383 CURVE SMOOTH",
"255 383 LINE SMOOTH",
"215 383 OFFCURVE",
"192 363 OFFCURVE",
"192 323 CURVE SMOOTH",
"192 181 LINE SMOOTH",
"192 141 OFFCURVE",
"215 117 OFFCURVE",
"255 117 CURVE SMOOTH",
"342 117 LINE SMOOTH",
"382 117 OFFCURVE",
"405 141 OFFCURVE",
"405 181 CURVE SMOOTH"
);
}
);
width = 587;
},
{
layerId = "DBDE1730-7CB6-4711-8383-3CA3AF6893BF";
paths = (
{
closed = 1;
nodes = (
"426 -6 OFFCURVE",
"518 103 OFFCURVE",
"518 266 CURVE SMOOTH",
"518 422 OFFCURVE",
"426 526 OFFCURVE",
"289 526 CURVE SMOOTH",
"152 526 OFFCURVE",
"60 422 OFFCURVE",
"60 266 CURVE SMOOTH",
"60 103 OFFCURVE",
"152 -6 OFFCURVE",
"289 -6 CURVE SMOOTH"
);
},
{
closed = 1;
nodes = (
"179 34 OFFCURVE",
"106 127 OFFCURVE",
"106 266 CURVE SMOOTH",
"106 398 OFFCURVE",
"179 486 OFFCURVE",
"289 486 CURVE SMOOTH",
"399 486 OFFCURVE",
"472 398 OFFCURVE",
"472 266 CURVE SMOOTH",
"472 127 OFFCURVE",
"399 34 OFFCURVE",
"289 34 CURVE SMOOTH"
);
}
);
width = 578;
},
{
associatedMasterId = "644D3D1A-706E-4D36-8EE1-81638A7D248A";
hints = (
{
place = "{278.344, 0}";
},
{
place = "{263.805, 0}";
}
);
layerId = "AD8D4EAB-B3FB-4E57-97C9-EBCFED67E47D";
name = "Mar 15 18, 19:50";
paths = (
{
closed = 1;
nodes = (
"330 -4 LINE SMOOTH",
"468 -4 OFFCURVE",
"523 49 OFFCURVE",
"523 181 CURVE SMOOTH",
"523 323 LINE SMOOTH",
"523 452 OFFCURVE",
"468 504 OFFCURVE",
"330 504 CURVE SMOOTH",
"243 504 LINE SMOOTH",
"105 504 OFFCURVE",
"50 452 OFFCURVE",
"50 323 CURVE SMOOTH",
"50 181 LINE SMOOTH",
"50 49 OFFCURVE",
"105 -4 OFFCURVE",
"243 -4 CURVE SMOOTH"
);
},
{
closed = 1;
nodes = (
"198 117 OFFCURVE",
"180 135 OFFCURVE",
"180 181 CURVE SMOOTH",
"180 323 LINE SMOOTH",
"180 366 OFFCURVE",
"198 383 OFFCURVE",
"243 383 CURVE SMOOTH",
"330 383 LINE SMOOTH",
"375 383 OFFCURVE",
"393 366 OFFCURVE",
"393 323 CURVE SMOOTH",
"393 181 LINE SMOOTH",
"393 135 OFFCURVE",
"375 117 OFFCURVE",
"330 117 CURVE SMOOTH",
"243 117 LINE SMOOTH"
);
}
);
width = 573;
}
);
unicode = 006F;
},
{
glyphname = p;
lastChange = "2018-03-31 14:17:22 +0000";
layers = (
{
layerId = "644D3D1A-706E-4D36-8EE1-81638A7D248A";
paths = (
{
closed = 1;
nodes = (
"179 -250 LINE SMOOTH",
"187 -250 OFFCURVE",
"194 -243 OFFCURVE",
"194 -235 CURVE SMOOTH",
"194 20 LINE",
"184 78 LINE",
"194 72 LINE",
"194 428 LINE",
"184 422 LINE",
"194 485 LINE SMOOTH",
"195 493 OFFCURVE",
"187 500 OFFCURVE",
"179 500 CURVE SMOOTH",
"75 500 LINE SMOOTH",
"67 500 OFFCURVE",
"60 493 OFFCURVE",
"60 485 CURVE SMOOTH",
"60 -235 LINE SMOOTH",
"60 -243 OFFCURVE",
"67 -250 OFFCURVE",
"75 -250 CURVE SMOOTH"
);
},
{
closed = 1;
nodes = (
"194 428 LINE",
"194 334 LINE",
"194 381 OFFCURVE",
"244 383 OFFCURVE",
"331 383 CURVE SMOOTH",
"417 383 OFFCURVE",
"437 358 OFFCURVE",
"437 250 CURVE SMOOTH",
"437 142 OFFCURVE",
"417 117 OFFCURVE",
"331 117 CURVE SMOOTH",
"244 117 OFFCURVE",
"194 119 OFFCURVE",
"194 166 CURVE",
"194 72 LINE",
"199 69 LINE",
"210 18 OFFCURVE",
"260 -4 OFFCURVE",
"351 -4 CURVE SMOOTH",
"519 -4 OFFCURVE",
"569 54 OFFCURVE",
"569 250 CURVE SMOOTH",
"569 446 OFFCURVE",
"519 504 OFFCURVE",
"351 504 CURVE SMOOTH",
"281 504 OFFCURVE",
"210 482 OFFCURVE",
"199 431 CURVE"
);
}
);
width = 619;
},
{
layerId = "DBDE1730-7CB6-4711-8383-3CA3AF6893BF";
paths = (
{
closed = 1;
nodes = (
"136 -280 LINE SMOOTH",
"139 -280 OFFCURVE",
"142 -277 OFFCURVE",
"142 -274 CURVE SMOOTH",
"142 37 LINE",
"138 104 LINE",
"142 102 LINE",
"142 418 LINE",
"138 416 LINE",
"142 513 LINE SMOOTH",
"142 517 OFFCURVE",
"140 520 OFFCURVE",
"136 520 CURVE SMOOTH",
"106 520 LINE SMOOTH",
"103 520 OFFCURVE",
"100 517 OFFCURVE",
"100 514 CURVE SMOOTH",
"100 -274 LINE SMOOTH",
"100 -277 OFFCURVE",
"103 -280 OFFCURVE",
"106 -280 CURVE SMOOTH"
);
},
{
closed = 1;
nodes = (
"142 418 LINE",
"142 334 LINE",
"142 413 OFFCURVE",
"193 486 OFFCURVE",
"299 486 CURVE SMOOTH",
"414 486 OFFCURVE",
"491 397 OFFCURVE",
"491 264 CURVE SMOOTH",
"491 126 OFFCURVE",
"414 34 OFFCURVE",
"299 34 CURVE SMOOTH",
"193 34 OFFCURVE",
"142 107 OFFCURVE",
"142 186 CURVE",
"142 102 LINE",
"146 100 LINE",
"172 28 OFFCURVE",
"227 -6 OFFCURVE",
"319 -6 CURVE SMOOTH",
"450 -6 OFFCURVE",
"537 102 OFFCURVE",
"537 264 CURVE SMOOTH",
"537 421 OFFCURVE",
"450 526 OFFCURVE",
"319 526 CURVE SMOOTH",
"227 526 OFFCURVE",
"172 492 OFFCURVE",
"146 420 CURVE"
);
}
);
width = 597;
}
);
unicode = 0070;
},
{
glyphname = q;
lastChange = "2018-03-31 14:17:27 +0000";
layers = (
{
layerId = "644D3D1A-706E-4D36-8EE1-81638A7D248A";
paths = (
{
closed = 1;
nodes = (
"552 -250 OFFCURVE",
"559 -243 OFFCURVE",
"559 -235 CURVE SMOOTH",
"559 485 LINE SMOOTH",
"559 493 OFFCURVE",
"552 500 OFFCURVE",
"544 500 CURVE SMOOTH",
"440 500 LINE SMOOTH",
"432 500 OFFCURVE",
"424 493 OFFCURVE",
"425 485 CURVE SMOOTH",
"435 422 LINE",
"425 428 LINE",
"425 72 LINE",
"435 78 LINE",
"425 20 LINE",
"425 -235 LINE SMOOTH",
"425 -243 OFFCURVE",
"432 -250 OFFCURVE",
"440 -250 CURVE SMOOTH",
"544 -250 LINE SMOOTH"
);
},
{
closed = 1;
nodes = (
"409 482 OFFCURVE",
"338 504 OFFCURVE",
"268 504 CURVE SMOOTH",
"100 504 OFFCURVE",
"50 446 OFFCURVE",
"50 250 CURVE SMOOTH",
"50 54 OFFCURVE",
"100 -4 OFFCURVE",
"268 -4 CURVE SMOOTH",
"359 -4 OFFCURVE",
"409 18 OFFCURVE",
"420 69 CURVE",
"425 72 LINE",
"425 166 LINE",
"425 119 OFFCURVE",
"375 117 OFFCURVE",
"288 117 CURVE SMOOTH",
"202 117 OFFCURVE",
"182 142 OFFCURVE",
"182 250 CURVE SMOOTH",
"182 358 OFFCURVE",
"202 383 OFFCURVE",
"288 383 CURVE SMOOTH",
"375 383 OFFCURVE",
"425 381 OFFCURVE",
"425 334 CURVE",
"425 428 LINE",
"420 431 LINE"
);
}
);
width = 619;
},
{
layerId = "DBDE1730-7CB6-4711-8383-3CA3AF6893BF";
paths = (
{
closed = 1;
nodes = (
"494 -280 OFFCURVE",
"497 -277 OFFCURVE",
"497 -274 CURVE SMOOTH",
"497 514 LINE SMOOTH",
"497 517 OFFCURVE",
"494 520 OFFCURVE",
"491 520 CURVE SMOOTH",
"461 520 LINE SMOOTH",
"457 520 OFFCURVE",
"455 517 OFFCURVE",
"455 513 CURVE SMOOTH",
"459 416 LINE",
"455 418 LINE",
"455 102 LINE",
"459 104 LINE",
"455 37 LINE",
"455 -274 LINE SMOOTH",
"455 -277 OFFCURVE",
"458 -280 OFFCURVE",
"461 -280 CURVE SMOOTH",
"491 -280 LINE SMOOTH"
);
},
{
closed = 1;
nodes = (
"425 492 OFFCURVE",
"370 526 OFFCURVE",
"278 526 CURVE SMOOTH",
"147 526 OFFCURVE",
"60 421 OFFCURVE",
"60 264 CURVE SMOOTH",
"60 102 OFFCURVE",
"147 -6 OFFCURVE",
"278 -6 CURVE SMOOTH",
"370 -6 OFFCURVE",
"425 28 OFFCURVE",
"451 100 CURVE",
"455 102 LINE",
"455 186 LINE",
"455 107 OFFCURVE",
"404 34 OFFCURVE",
"298 34 CURVE SMOOTH",
"183 34 OFFCURVE",
"106 126 OFFCURVE",
"106 264 CURVE SMOOTH",
"106 397 OFFCURVE",
"183 486 OFFCURVE",
"298 486 CURVE SMOOTH",
"404 486 OFFCURVE",
"455 413 OFFCURVE",
"455 334 CURVE",
"455 418 LINE",
"451 420 LINE"
);
}
);
width = 597;
}
);
unicode = 0071;
},
{
glyphname = r;
lastChange = "2018-04-01 16:27:46 +0000";
layers = (
{
layerId = "644D3D1A-706E-4D36-8EE1-81638A7D248A";
paths = (
{
closed = 1;
nodes = (
"60 20 LINE SMOOTH",
"60 8 OFFCURVE",
"68 0 OFFCURVE",
"80 0 CURVE SMOOTH",
"172 0 LINE SMOOTH",
"184 0 OFFCURVE",
"192 8 OFFCURVE",
"192 20 CURVE SMOOTH",
"192 398 LINE",
"182 392 LINE",
"192 480 LINE",
"193 493 OFFCURVE",
"184 500 OFFCURVE",
"172 500 CURVE SMOOTH",
"80 500 LINE SMOOTH",
"68 500 OFFCURVE",
"60 492 OFFCURVE",
"60 480 CURVE SMOOTH"
);
},
{
closed = 1;
nodes = (
"417 334 LINE SMOOTH",
"426 334 OFFCURVE",
"433 341 OFFCURVE",
"433 350 CURVE SMOOTH",
"433 462 OFFCURVE",
"404 504 OFFCURVE",
"327 504 CURVE SMOOTH",
"249 504 OFFCURVE",
"210 478 OFFCURVE",
"198 401 CURVE",
"192 398 LINE",
"192 334 LINE",
"192 378 OFFCURVE",
"198 383 OFFCURVE",
"249 383 CURVE SMOOTH",
"296 383 OFFCURVE",
"301 380 OFFCURVE",
"301 349 CURVE SMOOTH",
"301 340 OFFCURVE",
"308 334 OFFCURVE",
"316 334 CURVE SMOOTH"
);
}
);
width = 453;
},
{
layerId = "DBDE1730-7CB6-4711-8383-3CA3AF6893BF";
paths = (
{
closed = 1;
nodes = (
"100 6 LINE SMOOTH",
"100 3 OFFCURVE",
"103 0 OFFCURVE",
"106 0 CURVE SMOOTH",
"137 0 LINE SMOOTH",
"140 0 OFFCURVE",
"143 3 OFFCURVE",
"143 6 CURVE SMOOTH",
"143 417 LINE",
"139 416 LINE",
"143 514 LINE",
"143 517 OFFCURVE",
"140 520 OFFCURVE",
"137 520 CURVE SMOOTH",
"106 520 LINE SMOOTH",
"103 520 OFFCURVE",
"100 517 OFFCURVE",
"100 514 CURVE SMOOTH"
);
},
{
closed = 1;
nodes = (
"397 421 LINE SMOOTH",
"400 421 OFFCURVE",
"403 424 OFFCURVE",
"403 427 CURVE SMOOTH",
"403 486 OFFCURVE",
"361 526 OFFCURVE",
"297 526 CURVE SMOOTH",
"225 526 OFFCURVE",
"173 490 OFFCURVE",
"147 418 CURVE",
"143 417 LINE",
"143 345 LINE",
"161 416 OFFCURVE",
"217 486 OFFCURVE",
"297 486 CURVE SMOOTH",
"335 486 OFFCURVE",
"360 462 OFFCURVE",
"360 427 CURVE SMOOTH",
"360 424 OFFCURVE",
"363 421 OFFCURVE",
"366 421 CURVE SMOOTH"
);
}
);
width = 463;
}
);
unicode = 0072;
},
{
glyphname = s;
lastChange = "2018-04-01 16:21:14 +0000";
layers = (
{
layerId = "644D3D1A-706E-4D36-8EE1-81638A7D248A";
paths = (
{
closed = 1;
nodes = (
"117 504 OFFCURVE",
"54 460 OFFCURVE",
"54 343 CURVE",
"186 343 LINE",
"186 389 OFFCURVE",
"195 394 OFFCURVE",
"288 394 CURVE SMOOTH",
"379 394 OFFCURVE",
"387 389 OFFCURVE",
"387 347 CURVE SMOOTH",
"387 339 OFFCURVE",
"394 333 OFFCURVE",
"402 333 CURVE SMOOTH",
"506 333 LINE SMOOTH",
"515 333 OFFCURVE",
"521 340 OFFCURVE",
"521 349 CURVE SMOOTH",
"521 462 OFFCURVE",
"459 504 OFFCURVE",
"288 504 CURVE SMOOTH"
);
},
{
closed = 1;
nodes = (
"54 122 OFFCURVE",
"393 248 OFFCURVE",
"393 157 CURVE",
"525 157 LINE",
"521 378 OFFCURVE",
"186 252 OFFCURVE",
"186 343 CURVE",
"54 343 LINE"
);
},
{
closed = 1;
nodes = (
"460 -4 OFFCURVE",
"525 40 OFFCURVE",
"525 157 CURVE",
"393 157 LINE",
"393 111 OFFCURVE",
"382 106 OFFCURVE",
"287 106 CURVE SMOOTH",
"194 106 OFFCURVE",
"184 111 OFFCURVE",
"184 153 CURVE SMOOTH",
"184 161 OFFCURVE",
"177 167 OFFCURVE",
"169 167 CURVE SMOOTH",
"65 167 LINE SMOOTH",
"56 167 OFFCURVE",
"50 160 OFFCURVE",
"50 151 CURVE SMOOTH",
"50 38 OFFCURVE",
"114 -4 OFFCURVE",
"287 -4 CURVE SMOOTH"
);
}
);
width = 575;
},
{
layerId = "DBDE1730-7CB6-4711-8383-3CA3AF6893BF";
paths = (
{
closed = 1;
nodes = (
"156 526 OFFCURVE",
"83 472 OFFCURVE",
"82 391 CURVE",
"128 391 LINE",
"129 448 OFFCURVE",
"184 486 OFFCURVE",
"265 486 CURVE SMOOTH",
"354 486 OFFCURVE",
"403 451 OFFCURVE",
"403 387 CURVE SMOOTH",
"403 383 OFFCURVE",
"406 381 OFFCURVE",
"409 381 CURVE SMOOTH",
"439 381 LINE SMOOTH",
"442 381 OFFCURVE",
"445 383 OFFCURVE",
"445 386 CURVE SMOOTH",
"445 476 OFFCURVE",
"381 526 OFFCURVE",
"265 526 CURVE SMOOTH"
);
},
{
closed = 1;
nodes = (
"82 186 OFFCURVE",
"416 300 OFFCURVE",
"416 141 CURVE",
"462 141 LINE",
"462 341 OFFCURVE",
"128 236 OFFCURVE",
"128 391 CURVE",
"82 391 LINE"
);
},
{
closed = 1;
nodes = (
"386 -4 OFFCURVE",
"462 54 OFFCURVE",
"462 141 CURVE",
"416 141 LINE",
"416 78 OFFCURVE",
"358 36 OFFCURVE",
"271 36 CURVE SMOOTH",
"162 36 OFFCURVE",
"102 82 OFFCURVE",
"102 165 CURVE SMOOTH",
"102 169 OFFCURVE",
"99 171 OFFCURVE",
"96 171 CURVE SMOOTH",
"66 171 LINE SMOOTH",
"63 171 OFFCURVE",
"60 169 OFFCURVE",
"60 166 CURVE SMOOTH",
"60 57 OFFCURVE",
"135 -4 OFFCURVE",
"271 -4 CURVE SMOOTH"
);
}
);
width = 522;
},
{
associatedMasterId = "DBDE1730-7CB6-4711-8383-3CA3AF6893BF";
layerId = "1F92224A-9410-4BAC-B31C-2E003AE22F45";
name = "Mar 28 18, 10:48";
paths = (
{
closed = 1;
nodes = (
"130 526 OFFCURVE",
"60 468 OFFCURVE",
"60 381 CURVE",
"106 381 LINE",
"106 444 OFFCURVE",
"157 486 OFFCURVE",
"249 486 CURVE SMOOTH",
"340 486 OFFCURVE",
"400 442 OFFCURVE",
"400 377 CURVE SMOOTH",
"400 373 OFFCURVE",
"403 371 OFFCURVE",
"406 371 CURVE SMOOTH",
"436 371 LINE SMOOTH",
"439 371 OFFCURVE",
"442 373 OFFCURVE",
"442 376 CURVE SMOOTH",
"442 466 OFFCURVE",
"365 526 OFFCURVE",
"249 526 CURVE SMOOTH"
);
},
{
closed = 1;
nodes = (
"60 189 OFFCURVE",
"396 297 OFFCURVE",
"396 141 CURVE",
"442 141 LINE",
"442 338 OFFCURVE",
"106 239 OFFCURVE",
"106 381 CURVE",
"60 381 LINE"
);
},
{
closed = 1;
nodes = (
"372 -4 OFFCURVE",
"442 54 OFFCURVE",
"442 141 CURVE",
"396 141 LINE",
"396 78 OFFCURVE",
"345 36 OFFCURVE",
"253 36 CURVE SMOOTH",
"162 36 OFFCURVE",
"102 80 OFFCURVE",
"102 145 CURVE SMOOTH",
"102 149 OFFCURVE",
"99 151 OFFCURVE",
"96 151 CURVE SMOOTH",
"66 151 LINE SMOOTH",
"63 151 OFFCURVE",
"60 149 OFFCURVE",
"60 146 CURVE SMOOTH",
"60 56 OFFCURVE",
"137 -4 OFFCURVE",
"253 -4 CURVE SMOOTH"
);
}
);
width = 502;
}
);
unicode = 0073;
},
{
glyphname = t;
lastChange = "2018-03-31 14:55:46 +0000";
layers = (
{
layerId = "644D3D1A-706E-4D36-8EE1-81638A7D248A";
paths = (
{
closed = 1;
nodes = (
"93 135 LINE SMOOTH",
"93 10 OFFCURVE",
"112 -4 OFFCURVE",
"287 -4 CURVE SMOOTH",
"296 -4 OFFCURVE",
"303 2 OFFCURVE",
"303 11 CURVE SMOOTH",
"303 102 LINE SMOOTH",
"303 110 OFFCURVE",
"297 117 OFFCURVE",
"288 117 CURVE SMOOTH",
"231 117 OFFCURVE",
"225 121 OFFCURVE",
"225 156 CURVE SMOOTH",
"225 629 LINE SMOOTH",
"225 637 OFFCURVE",
"218 644 OFFCURVE",
"210 644 CURVE SMOOTH",
"108 644 LINE SMOOTH",
"100 644 OFFCURVE",
"93 637 OFFCURVE",
"93 629 CURVE SMOOTH"
);
},
{
closed = 1;
nodes = (
"37 504 OFFCURVE",
"30 497 OFFCURVE",
"30 489 CURVE SMOOTH",
"30 398 LINE SMOOTH",
"30 390 OFFCURVE",
"37 383 OFFCURVE",
"45 383 CURVE SMOOTH",
"307 383 LINE SMOOTH",
"315 383 OFFCURVE",
"322 390 OFFCURVE",
"322 398 CURVE SMOOTH",
"322 489 LINE SMOOTH",
"322 497 OFFCURVE",
"315 504 OFFCURVE",
"307 504 CURVE SMOOTH",
"45 504 LINE SMOOTH"
);
}
);
width = 372;
},
{
layerId = "DBDE1730-7CB6-4711-8383-3CA3AF6893BF";
paths = (
{
closed = 1;
nodes = (
"120 103 LINE SMOOTH",
"120 32 OFFCURVE",
"165 -6 OFFCURVE",
"264 -6 CURVE SMOOTH",
"267 -6 OFFCURVE",
"270 -4 OFFCURVE",
"270 0 CURVE SMOOTH",
"270 28 LINE SMOOTH",
"270 31 OFFCURVE",
"267 34 OFFCURVE",
"264 34 CURVE SMOOTH",
"194 34 OFFCURVE",
"162 60 OFFCURVE",
"162 103 CURVE SMOOTH",
"162 695 LINE SMOOTH",
"162 699 OFFCURVE",
"159 702 OFFCURVE",
"155 700 CURVE SMOOTH",
"124 685 LINE SMOOTH",
"121 683 OFFCURVE",
"120 681 OFFCURVE",
"120 678 CURVE SMOOTH"
);
},
{
closed = 1;
nodes = (
"63 520 OFFCURVE",
"60 517 OFFCURVE",
"60 514 CURVE SMOOTH",
"60 486 LINE SMOOTH",
"60 483 OFFCURVE",
"63 480 OFFCURVE",
"66 480 CURVE SMOOTH",
"283 480 LINE SMOOTH",
"286 480 OFFCURVE",
"289 483 OFFCURVE",
"289 486 CURVE SMOOTH",
"289 514 LINE SMOOTH",
"289 517 OFFCURVE",
"286 520 OFFCURVE",
"283 520 CURVE SMOOTH",
"66 520 LINE SMOOTH"
);
}
);
width = 329;
}
);
unicode = 0074;
},
{
glyphname = u;
lastChange = "2018-03-31 17:41:40 +0000";
layers = (
{
layerId = "644D3D1A-706E-4D36-8EE1-81638A7D248A";
paths = (
{
closed = 1;
nodes = (
"523 480 LINE SMOOTH",
"523 492 OFFCURVE",
"515 500 OFFCURVE",
"503 500 CURVE SMOOTH",
"411 500 LINE SMOOTH",
"399 500 OFFCURVE",
"391 492 OFFCURVE",
"391 480 CURVE SMOOTH",
"391 102 LINE",
"401 108 LINE",
"391 20 LINE SMOOTH",
"390 7 OFFCURVE",
"399 0 OFFCURVE",
"411 0 CURVE SMOOTH",
"503 0 LINE SMOOTH",
"515 0 OFFCURVE",
"523 8 OFFCURVE",
"523 20 CURVE SMOOTH"
);
},
{
closed = 1;
nodes = (
"50 152 LINE SMOOTH",
"50 43 OFFCURVE",
"103 -4 OFFCURVE",
"216 -4 CURVE SMOOTH",
"294 -4 OFFCURVE",
"373 22 OFFCURVE",
"385 99 CURVE",
"391 102 LINE",
"391 166 LINE",
"391 122 OFFCURVE",
"380 117 OFFCURVE",
"286 117 CURVE SMOOTH",
"192 117 OFFCURVE",
"182 123 OFFCURVE",
"182 176 CURVE SMOOTH",
"182 480 LINE SMOOTH",
"182 492 OFFCURVE",
"174 500 OFFCURVE",
"162 500 CURVE SMOOTH",
"70 500 LINE SMOOTH",
"58 500 OFFCURVE",
"50 492 OFFCURVE",
"50 480 CURVE SMOOTH"
);
}
);
width = 583;
},
{
layerId = "DBDE1730-7CB6-4711-8383-3CA3AF6893BF";
paths = (
{
closed = 1;
nodes = (
"478 514 LINE SMOOTH",
"478 517 OFFCURVE",
"475 520 OFFCURVE",
"472 520 CURVE SMOOTH",
"441 520 LINE SMOOTH",
"438 520 OFFCURVE",
"435 517 OFFCURVE",
"435 514 CURVE SMOOTH",
"435 103 LINE",
"439 104 LINE",
"435 6 LINE",
"435 3 OFFCURVE",
"438 0 OFFCURVE",
"441 0 CURVE SMOOTH",
"472 0 LINE SMOOTH",
"475 0 OFFCURVE",
"478 3 OFFCURVE",
"478 6 CURVE SMOOTH"
);
},
{
closed = 1;
nodes = (
"80 202 LINE SMOOTH",
"80 68 OFFCURVE",
"145 -6 OFFCURVE",
"261 -6 CURVE SMOOTH",
"353 -6 OFFCURVE",
"405 30 OFFCURVE",
"431 102 CURVE",
"435 103 LINE",
"435 175 LINE",
"435 96 OFFCURVE",
"367 34 OFFCURVE",
"261 34 CURVE SMOOTH",
"172 34 OFFCURVE",
"123 94 OFFCURVE",
"123 202 CURVE SMOOTH",
"123 514 LINE SMOOTH",
"123 517 OFFCURVE",
"120 520 OFFCURVE",
"117 520 CURVE SMOOTH",
"86 520 LINE SMOOTH",
"83 520 OFFCURVE",
"80 517 OFFCURVE",
"80 514 CURVE SMOOTH"
);
}
);
width = 578;
}
);
unicode = 0075;
},
{
glyphname = v;
lastChange = "2018-03-31 18:44:34 +0000";
layers = (
{
layerId = "DBDE1730-7CB6-4711-8383-3CA3AF6893BF";
paths = (
{
closed = 1;
nodes = (
"236 4 LINE SMOOTH",
"237 1 OFFCURVE",
"239 0 OFFCURVE",
"241 0 CURVE SMOOTH",
"292 0 LINE SMOOTH",
"294 0 OFFCURVE",
"296 1 OFFCURVE",
"297 4 CURVE SMOOTH",
"494 510 LINE SMOOTH",
"496 515 OFFCURVE",
"493 520 OFFCURVE",
"488 520 CURVE SMOOTH",
"455 520 LINE SMOOTH",
"453 520 OFFCURVE",
"451 519 OFFCURVE",
"450 516 CURVE SMOOTH",
"275 56 LINE",
"267 33 OFFCURVE",
"266 33 OFFCURVE",
"258 56 CURVE",
"85 516 LINE SMOOTH",
"84 519 OFFCURVE",
"82 520 OFFCURVE",
"80 520 CURVE SMOOTH",
"47 520 LINE SMOOTH",
"42 520 OFFCURVE",
"39 515 OFFCURVE",
"41 510 CURVE SMOOTH"
);
}
);
width = 535;
},
{
associatedMasterId = "644D3D1A-706E-4D36-8EE1-81638A7D248A";
layerId = "A4A3F834-9710-4A5E-B33F-1D9D76940CF0";
name = "Mar 31 18, 15:05";
paths = (
{
closed = 1;
nodes = (
"50 162 OFFCURVE",
"208 -4 OFFCURVE",
"296 -4 CURVE",
"380 -4 OFFCURVE",
"542 202 OFFCURVE",
"542 311 CURVE SMOOTH",
"542 480 LINE SMOOTH",
"542 492 OFFCURVE",
"534 500 OFFCURVE",
"522 500 CURVE SMOOTH",
"430 500 LINE SMOOTH",
"418 500 OFFCURVE",
"410 492 OFFCURVE",
"410 480 CURVE SMOOTH",
"410 325 LINE SMOOTH",
"410 272 OFFCURVE",
"331 137 OFFCURVE",
"296 137 CURVE",
"235 137 OFFCURVE",
"182 233 OFFCURVE",
"182 414 CURVE",
"182 480 LINE SMOOTH",
"182 492 OFFCURVE",
"174 500 OFFCURVE",
"162 500 CURVE SMOOTH",
"70 500 LINE SMOOTH",
"58 500 OFFCURVE",
"50 492 OFFCURVE",
"50 480 CURVE SMOOTH",
"50 400 LINE"
);
}
);
width = 571;
},
{
layerId = "644D3D1A-706E-4D36-8EE1-81638A7D248A";
paths = (
{
closed = 1;
nodes = (
"182 29 LINE SMOOTH",
"188 12 OFFCURVE",
"206 0 OFFCURVE",
"225 0 CURVE SMOOTH",
"343 0 LINE SMOOTH",
"362 0 OFFCURVE",
"380 12 OFFCURVE",
"386 29 CURVE SMOOTH",
"540 477 LINE SMOOTH",
"545 491 OFFCURVE",
"538 500 OFFCURVE",
"524 500 CURVE SMOOTH",
"440 500 LINE SMOOTH",
"415 500 OFFCURVE",
"411 498 OFFCURVE",
"407 482 CURVE SMOOTH",
"293 141 LINE SMOOTH",
"290 132 OFFCURVE",
"279 132 OFFCURVE",
"276 141 CURVE SMOOTH",
"164 481 LINE SMOOTH",
"157 498 OFFCURVE",
"154 500 OFFCURVE",
"131 500 CURVE SMOOTH",
"47 500 LINE SMOOTH",
"33 500 OFFCURVE",
"26 491 OFFCURVE",
"31 477 CURVE SMOOTH"
);
}
);
width = 571;
}
);
unicode = 0076;
},
{
glyphname = w;
lastChange = "2018-03-31 18:45:34 +0000";
layers = (
{
layerId = "644D3D1A-706E-4D36-8EE1-81638A7D248A";
paths = (
{
closed = 1;
nodes = (
"172 29 LINE SMOOTH",
"181 3 OFFCURVE",
"186 0 OFFCURVE",
"215 0 CURVE SMOOTH",
"333 0 LINE SMOOTH",
"366 0 OFFCURVE",
"370 3 OFFCURVE",
"376 29 CURVE SMOOTH",
"449 347 LINE SMOOTH",
"452 361 OFFCURVE",
"465 361 OFFCURVE",
"468 347 CURVE SMOOTH",
"539 29 LINE SMOOTH",
"545 3 OFFCURVE",
"549 0 OFFCURVE",
"582 0 CURVE SMOOTH",
"700 0 LINE SMOOTH",
"729 0 OFFCURVE",
"734 3 OFFCURVE",
"743 29 CURVE SMOOTH",
"897 477 LINE SMOOTH",
"902 491 OFFCURVE",
"895 500 OFFCURVE",
"881 500 CURVE SMOOTH",
"797 500 LINE SMOOTH",
"772 500 OFFCURVE",
"769 498 OFFCURVE",
"764 482 CURVE SMOOTH",
"650 141 LINE SMOOTH",
"647 132 OFFCURVE",
"635 132 OFFCURVE",
"633 141 CURVE SMOOTH",
"553 471 LINE SMOOTH",
"547 497 OFFCURVE",
"544 500 OFFCURVE",
"520 500 CURVE SMOOTH",
"398 500 LINE SMOOTH",
"375 500 OFFCURVE",
"371 497 OFFCURVE",
"365 472 CURVE SMOOTH",
"283 141 LINE SMOOTH",
"281 132 OFFCURVE",
"269 132 OFFCURVE",
"266 141 CURVE SMOOTH",
"154 481 LINE SMOOTH",
"148 498 OFFCURVE",
"145 500 OFFCURVE",
"121 500 CURVE SMOOTH",
"37 500 LINE SMOOTH",
"23 500 OFFCURVE",
"16 491 OFFCURVE",
"21 477 CURVE SMOOTH"
);
}
);
width = 918;
},
{
layerId = "DBDE1730-7CB6-4711-8383-3CA3AF6893BF";
paths = (
{
closed = 1;
nodes = (
"205 4 LINE SMOOTH",
"206 1 OFFCURVE",
"208 0 OFFCURVE",
"210 0 CURVE SMOOTH",
"265 0 LINE SMOOTH",
"267 0 OFFCURVE",
"269 1 OFFCURVE",
"270 4 CURVE",
"392 457 LINE",
"397 480 OFFCURVE",
"398 480 OFFCURVE",
"403 457 CURVE",
"523 4 LINE",
"524 1 OFFCURVE",
"526 0 OFFCURVE",
"528 0 CURVE SMOOTH",
"583 0 LINE SMOOTH",
"585 0 OFFCURVE",
"587 1 OFFCURVE",
"588 4 CURVE SMOOTH",
"754 510 LINE",
"756 515 OFFCURVE",
"753 520 OFFCURVE",
"748 520 CURVE SMOOTH",
"715 520 LINE SMOOTH",
"713 520 OFFCURVE",
"711 519 OFFCURVE",
"710 516 CURVE",
"565 56 LINE",
"559 33 OFFCURVE",
"554 33 OFFCURVE",
"548 56 CURVE",
"430 516 LINE",
"429 519 OFFCURVE",
"427 520 OFFCURVE",
"425 520 CURVE SMOOTH",
"370 520 LINE SMOOTH",
"368 520 OFFCURVE",
"366 519 OFFCURVE",
"365 516 CURVE",
"245 56 LINE",
"239 33 OFFCURVE",
"234 33 OFFCURVE",
"228 56 CURVE",
"85 516 LINE",
"84 519 OFFCURVE",
"82 520 OFFCURVE",
"80 520 CURVE SMOOTH",
"47 520 LINE SMOOTH",
"42 520 OFFCURVE",
"39 515 OFFCURVE",
"41 510 CURVE"
);
}
);
width = 795;
}
);
unicode = 0077;
},
{
glyphname = x;
lastChange = "2018-03-31 18:56:46 +0000";
layers = (
{
layerId = "DBDE1730-7CB6-4711-8383-3CA3AF6893BF";
paths = (
{
closed = 1;
nodes = (
"219 267 LINE",
"51 513 LINE",
"48 517 OFFCURVE",
"50 520 OFFCURVE",
"55 520 CURVE SMOOTH",
"93 520 LINE SMOOTH",
"96 520 OFFCURVE",
"99 518 OFFCURVE",
"101 516 CURVE",
"250 291 LINE",
"398 516 LINE",
"400 518 OFFCURVE",
"403 520 OFFCURVE",
"406 520 CURVE SMOOTH",
"444 520 LINE SMOOTH",
"449 520 OFFCURVE",
"451 517 OFFCURVE",
"448 513 CURVE",
"279 267 LINE",
"458 7 LINE",
"461 3 OFFCURVE",
"459 0 OFFCURVE",
"454 0 CURVE SMOOTH",
"414 0 LINE SMOOTH",
"411 0 OFFCURVE",
"408 2 OFFCURVE",
"406 4 CURVE",
"250 242 LINE",
"93 4 LINE",
"91 2 OFFCURVE",
"88 0 OFFCURVE",
"85 0 CURVE SMOOTH",
"45 0 LINE SMOOTH",
"40 0 OFFCURVE",
"38 3 OFFCURVE",
"41 7 CURVE"
);
}
);
width = 499;
},
{
associatedMasterId = "644D3D1A-706E-4D36-8EE1-81638A7D248A";
layerId = "CAB07503-28DC-487C-939E-35BEB89BCE3C";
name = "Mar 31 18, 15:03";
paths = (
{
closed = 1;
nodes = (
"373 482 LINE SMOOTH",
"383 495 OFFCURVE",
"389 500 OFFCURVE",
"406 500 CURVE SMOOTH",
"503 500 LINE SMOOTH",
"521 500 OFFCURVE",
"528 494 OFFCURVE",
"523 482 CURVE SMOOTH",
"185 18 LINE SMOOTH",
"175 4 OFFCURVE",
"168 0 OFFCURVE",
"155 0 CURVE SMOOTH",
"50 0 LINE SMOOTH",
"33 0 OFFCURVE",
"25 7 OFFCURVE",
"33 18 CURVE SMOOTH"
);
},
{
closed = 1;
nodes = (
"323 226 LINE",
"365 226 OFFCURVE",
"373 222 OFFCURVE",
"396 191 CURVE SMOOTH",
"517 32 LINE SMOOTH",
"527 18 OFFCURVE",
"518 0 OFFCURVE",
"501 0 CURVE SMOOTH",
"401 1 LINE SMOOTH",
"390 1 OFFCURVE",
"379 8 OFFCURVE",
"372 18 CURVE SMOOTH",
"261 170 LINE",
"313 242 LINE"
);
},
{
closed = 1;
nodes = (
"230 269 LINE",
"188 269 OFFCURVE",
"179 272 OFFCURVE",
"157 304 CURVE SMOOTH",
"44 468 LINE SMOOTH",
"34 482 OFFCURVE",
"43 500 OFFCURVE",
"60 500 CURVE SMOOTH",
"160 500 LINE SMOOTH",
"171 500 OFFCURVE",
"182 492 OFFCURVE",
"189 482 CURVE SMOOTH",
"302 312 LINE",
"240 253 LINE"
);
}
);
width = 558;
},
{
layerId = "644D3D1A-706E-4D36-8EE1-81638A7D248A";
paths = (
{
closed = 1;
nodes = (
"204 251 LINE",
"35 482 LINE SMOOTH",
"30 493 OFFCURVE",
"34 500 OFFCURVE",
"45 500 CURVE SMOOTH",
"152 500 LINE SMOOTH",
"172 500 OFFCURVE",
"175 498 OFFCURVE",
"185 482 CURVE SMOOTH",
"279 344 LINE",
"373 482 LINE SMOOTH",
"383 498 OFFCURVE",
"386 500 OFFCURVE",
"406 500 CURVE SMOOTH",
"513 500 LINE SMOOTH",
"524 500 OFFCURVE",
"528 493 OFFCURVE",
"523 482 CURVE SMOOTH",
"354.499 250.684 LINE",
"525 18 LINE SMOOTH",
"533 7 OFFCURVE",
"530 0 OFFCURVE",
"518 0 CURVE SMOOTH",
"404 0 LINE SMOOTH",
"386 0 OFFCURVE",
"383 2 OFFCURVE",
"373 18 CURVE SMOOTH",
"279 157 LINE",
"185 18 LINE SMOOTH",
"173 2 OFFCURVE",
"170 0 OFFCURVE",
"155 0 CURVE SMOOTH",
"40 0 LINE SMOOTH",
"28 0 OFFCURVE",
"25 7 OFFCURVE",
"33 18 CURVE SMOOTH"
);
}
);
visible = 1;
width = 558;
},
{
associatedMasterId = "644D3D1A-706E-4D36-8EE1-81638A7D248A";
layerId = "F254C785-C71D-4B0F-B034-5437AC9CB63F";
name = "Mar 31 18, 15:03";
paths = (
{
closed = 1;
nodes = (
"373 482 LINE SMOOTH",
"383 495 OFFCURVE",
"389 500 OFFCURVE",
"406 500 CURVE SMOOTH",
"503 500 LINE SMOOTH",
"521 500 OFFCURVE",
"528 494 OFFCURVE",
"523 482 CURVE SMOOTH",
"185 18 LINE SMOOTH",
"175 4 OFFCURVE",
"168 0 OFFCURVE",
"155 0 CURVE SMOOTH",
"50 0 LINE SMOOTH",
"33 0 OFFCURVE",
"25 7 OFFCURVE",
"33 18 CURVE SMOOTH"
);
},
{
closed = 1;
nodes = (
"533 7 OFFCURVE",
"526 0 OFFCURVE",
"508 0 CURVE SMOOTH",
"404 0 LINE SMOOTH",
"389 0 OFFCURVE",
"382 4 OFFCURVE",
"373 18 CURVE SMOOTH",
"35 482 LINE SMOOTH",
"30 494 OFFCURVE",
"37 500 OFFCURVE",
"55 500 CURVE SMOOTH",
"152 500 LINE SMOOTH",
"169 500 OFFCURVE",
"175 495 OFFCURVE",
"185 482 CURVE SMOOTH",
"525 18 LINE SMOOTH"
);
}
);
width = 558;
},
{
associatedMasterId = "DBDE1730-7CB6-4711-8383-3CA3AF6893BF";
layerId = "77A89073-8D35-4296-B79F-D769FF1FC601";
name = "Mar 31 18, 15:04";
paths = (
{
closed = 1;
nodes = (
"413 516 LINE SMOOTH",
"415 518 OFFCURVE",
"418 520 OFFCURVE",
"421 520 CURVE SMOOTH",
"454 520 LINE SMOOTH",
"459 520 OFFCURVE",
"461 517 OFFCURVE",
"458 513 CURVE SMOOTH",
"108 4 LINE SMOOTH",
"106 2 OFFCURVE",
"103 0 OFFCURVE",
"100 0 CURVE SMOOTH",
"65 0 LINE SMOOTH",
"60 0 OFFCURVE",
"58 3 OFFCURVE",
"61 7 CURVE SMOOTH"
);
},
{
closed = 1;
nodes = (
"471 3 OFFCURVE",
"469 0 OFFCURVE",
"464 0 CURVE SMOOTH",
"429 0 LINE SMOOTH",
"426 0 OFFCURVE",
"423 2 OFFCURVE",
"421 4 CURVE SMOOTH",
"71 513 LINE SMOOTH",
"68 517 OFFCURVE",
"70 520 OFFCURVE",
"75 520 CURVE SMOOTH",
"108 520 LINE SMOOTH",
"111 520 OFFCURVE",
"114 518 OFFCURVE",
"116 516 CURVE SMOOTH",
"468 7 LINE SMOOTH"
);
}
);
width = 529;
}
);
unicode = 0078;
},
{
glyphname = y;
lastChange = "2018-03-31 18:48:02 +0000";
layers = (
{
layerId = "DBDE1730-7CB6-4711-8383-3CA3AF6893BF";
paths = (
{
closed = 1;
nodes = (
"236 4 LINE SMOOTH",
"237 1 OFFCURVE",
"239 0 OFFCURVE",
"241 0 CURVE SMOOTH",
"275 0 LINE",
"275 56 LINE",
"267 33 OFFCURVE",
"266 33 OFFCURVE",
"258 56 CURVE",
"85 516 LINE SMOOTH",
"84 519 OFFCURVE",
"82 520 OFFCURVE",
"80 520 CURVE SMOOTH",
"47 520 LINE SMOOTH",
"42 520 OFFCURVE",
"39 515 OFFCURVE",
"41 510 CURVE SMOOTH"
);
},
{
closed = 1;
nodes = (
"497 517 OFFCURVE",
"493 520 OFFCURVE",
"488 520 CURVE SMOOTH",
"455 520 LINE SMOOTH",
"452 520 OFFCURVE",
"451 519 OFFCURVE",
"450 516 CURVE SMOOTH",
"216 -99 LINE SMOOTH",
"197 -148 OFFCURVE",
"173 -177 OFFCURVE",
"128 -158 CURVE SMOOTH",
"123 -156 OFFCURVE",
"122 -157 OFFCURVE",
"120 -162 CURVE SMOOTH",
"111 -185 LINE SMOOTH",
"109 -190 OFFCURVE",
"110 -191 OFFCURVE",
"114 -193 CURVE SMOOTH",
"167 -219 OFFCURVE",
"218 -194 OFFCURVE",
"242 -132 CURVE SMOOTH",
"494 510 LINE SMOOTH"
);
}
);
width = 535;
},
{
layerId = "644D3D1A-706E-4D36-8EE1-81638A7D248A";
paths = (
{
closed = 1;
nodes = (
"182 29 LINE SMOOTH",
"191 3 OFFCURVE",
"196 0 OFFCURVE",
"225 0 CURVE SMOOTH",
"293 0 LINE",
"293 141 LINE",
"290 132 OFFCURVE",
"279 132 OFFCURVE",
"276 141 CURVE SMOOTH",
"164 481 LINE SMOOTH",
"158 498 OFFCURVE",
"155 500 OFFCURVE",
"131 500 CURVE SMOOTH",
"47 500 LINE SMOOTH",
"33 500 OFFCURVE",
"26 491 OFFCURVE",
"31 477 CURVE SMOOTH"
);
},
{
closed = 1;
nodes = (
"545 491 OFFCURVE",
"538 500 OFFCURVE",
"524 500 CURVE SMOOTH",
"440 500 LINE SMOOTH",
"415 500 OFFCURVE",
"412 498 OFFCURVE",
"407 482 CURVE SMOOTH",
"222 -71 LINE SMOOTH",
"205 -123 OFFCURVE",
"197 -129 OFFCURVE",
"148 -129 CURVE SMOOTH",
"139 -129 OFFCURVE",
"133 -136 OFFCURVE",
"133 -144 CURVE SMOOTH",
"133 -235 LINE SMOOTH",
"133 -244 OFFCURVE",
"140 -250 OFFCURVE",
"149 -250 CURVE SMOOTH",
"276 -250 OFFCURVE",
"297 -231 OFFCURVE",
"355 -62 CURVE SMOOTH",
"540 477 LINE SMOOTH"
);
}
);
visible = 1;
width = 571;
},
{
associatedMasterId = "DBDE1730-7CB6-4711-8383-3CA3AF6893BF";
layerId = "489B32ED-685E-4261-BAD8-0268430A70BF";
name = "Mar 31 18, 19:42";
paths = (
{
closed = 1;
nodes = (
"478 514 LINE SMOOTH",
"478 517 OFFCURVE",
"475 520 OFFCURVE",
"472 520 CURVE SMOOTH",
"441 520 LINE SMOOTH",
"438 520 OFFCURVE",
"435 517 OFFCURVE",
"435 514 CURVE SMOOTH",
"435 103 LINE",
"439 104 LINE",
"435 -6 LINE",
"478 -6 LINE"
);
},
{
closed = 1;
nodes = (
"80 202 LINE SMOOTH",
"80 68 OFFCURVE",
"145 -6 OFFCURVE",
"261 -6 CURVE SMOOTH",
"353 -6 OFFCURVE",
"405 30 OFFCURVE",
"431 102 CURVE",
"435 103 LINE",
"435 175 LINE",
"417 104 OFFCURVE",
"361 34 OFFCURVE",
"261 34 CURVE SMOOTH",
"172 34 OFFCURVE",
"123 94 OFFCURVE",
"123 202 CURVE SMOOTH",
"123 514 LINE SMOOTH",
"123 517 OFFCURVE",
"120 520 OFFCURVE",
"117 520 CURVE SMOOTH",
"86 520 LINE SMOOTH",
"83 520 OFFCURVE",
"80 517 OFFCURVE",
"80 514 CURVE SMOOTH"
);
},
{
closed = 1;
nodes = (
"402 -206 OFFCURVE",
"477 -126 OFFCURVE",
"478 -6 CURVE",
"435 -6 LINE",
"435 -102 OFFCURVE",
"377 -166 OFFCURVE",
"290 -166 CURVE SMOOTH",
"210 -166 OFFCURVE",
"157 -126 OFFCURVE",
"157 -67 CURVE SMOOTH",
"157 -63 OFFCURVE",
"154 -61 OFFCURVE",
"151 -61 CURVE SMOOTH",
"120 -61 LINE SMOOTH",
"117 -61 OFFCURVE",
"114 -63 OFFCURVE",
"114 -66 CURVE SMOOTH",
"114 -150 OFFCURVE",
"184 -206 OFFCURVE",
"290 -206 CURVE SMOOTH"
);
}
);
width = 578;
},
{
associatedMasterId = "644D3D1A-706E-4D36-8EE1-81638A7D248A";
layerId = "77E7694C-6AF7-425D-95A6-46A13A7A91E9";
name = "Mar 31 18, 19:54";
paths = (
{
closed = 1;
nodes = (
"523 480 LINE SMOOTH",
"523 492 OFFCURVE",
"515 500 OFFCURVE",
"503 500 CURVE SMOOTH",
"411 500 LINE SMOOTH",
"399 500 OFFCURVE",
"391 492 OFFCURVE",
"391 480 CURVE SMOOTH",
"391 102 LINE",
"401 108 LINE",
"391 20 LINE",
"523 20 LINE"
);
},
{
closed = 1;
nodes = (
"50 152 LINE SMOOTH",
"50 43 OFFCURVE",
"103 -4 OFFCURVE",
"216 -4 CURVE SMOOTH",
"294 -4 OFFCURVE",
"373 22 OFFCURVE",
"385 99 CURVE",
"391 102 LINE",
"391 166 LINE",
"391 122 OFFCURVE",
"380 117 OFFCURVE",
"286 117 CURVE SMOOTH",
"192 117 OFFCURVE",
"182 123 OFFCURVE",
"182 176 CURVE SMOOTH",
"182 480 LINE SMOOTH",
"182 492 OFFCURVE",
"174 500 OFFCURVE",
"162 500 CURVE SMOOTH",
"70 500 LINE SMOOTH",
"58 500 OFFCURVE",
"50 492 OFFCURVE",
"50 480 CURVE SMOOTH"
);
},
{
closed = 1;
nodes = (
"479 -254 OFFCURVE",
"523 -203 OFFCURVE",
"523 20 CURVE",
"391 20 LINE",
"391 -105 OFFCURVE",
"372 -133 OFFCURVE",
"287 -133 CURVE SMOOTH",
"224 -133 OFFCURVE",
"206 -120 OFFCURVE",
"206 -92 CURVE SMOOTH",
"206 -87 OFFCURVE",
"200 -83 OFFCURVE",
"194 -83 CURVE SMOOTH",
"98 -83 LINE SMOOTH",
"89 -83 OFFCURVE",
"82 -90 OFFCURVE",
"82 -99 CURVE SMOOTH",
"82 -205 OFFCURVE",
"146 -254 OFFCURVE",
"287 -254 CURVE SMOOTH"
);
}
);
width = 583;
}
);
unicode = 0079;
},
{
glyphname = z;
lastChange = "2018-03-31 18:57:03 +0000";
layers = (
{
layerId = "DBDE1730-7CB6-4711-8383-3CA3AF6893BF";
paths = (
{
closed = 1;
nodes = (
"80 486 LINE SMOOTH",
"80 482 OFFCURVE",
"82 480 OFFCURVE",
"86 480 CURVE SMOOTH",
"389 480 LINE SMOOTH",
"394 480 OFFCURVE",
"395 477 OFFCURVE",
"392 473 CURVE SMOOTH",
"63 43 LINE SMOOTH",
"61 40 OFFCURVE",
"60 39 OFFCURVE",
"60 36 CURVE SMOOTH",
"60 6 LINE SMOOTH",
"60 2 OFFCURVE",
"63 0 OFFCURVE",
"66 0 CURVE SMOOTH",
"442 0 LINE SMOOTH",
"446 0 OFFCURVE",
"448 2 OFFCURVE",
"448 6 CURVE SMOOTH",
"448 34 LINE SMOOTH",
"448 38 OFFCURVE",
"446 40 OFFCURVE",
"442 40 CURVE SMOOTH",
"119 40 LINE SMOOTH",
"114 40 OFFCURVE",
"113 43 OFFCURVE",
"116 47 CURVE SMOOTH",
"445 477 LINE SMOOTH",
"447 480 OFFCURVE",
"448 481 OFFCURVE",
"448 484 CURVE SMOOTH",
"448 514 LINE SMOOTH",
"448 518 OFFCURVE",
"446 520 OFFCURVE",
"442 520 CURVE SMOOTH",
"86 520 LINE SMOOTH",
"82 520 OFFCURVE",
"80 518 OFFCURVE",
"80 514 CURVE SMOOTH"
);
}
);
width = 508;
},
{
associatedMasterId = "644D3D1A-706E-4D36-8EE1-81638A7D248A";
layerId = "FF0F43D7-81F0-4865-B457-4003DD80F82E";
name = "Mar 27 18, 23:24";
paths = (
{
closed = 1;
nodes = (
"123 379 LINE",
"302 379 LINE",
"112 121 LINE",
"112 0 LINE",
"440 0 LINE",
"440 121 LINE",
"261 121 LINE",
"449 379 LINE",
"449 500 LINE",
"123 500 LINE"
);
}
);
width = 600;
},
{
associatedMasterId = "644D3D1A-706E-4D36-8EE1-81638A7D248A";
layerId = "B2162146-C801-4FA3-A9B3-7F412F882252";
name = "Mar 28 18, 00:11";
paths = (
{
closed = 1;
nodes = (
"60 394 LINE SMOOTH",
"60 385 OFFCURVE",
"66 379 OFFCURVE",
"75 379 CURVE SMOOTH",
"322 379 LINE",
"314 369 LINE",
"296 369 OFFCURVE",
"282 358 OFFCURVE",
"264 342 CURVE",
"78 148 LINE SMOOTH",
"57 127 OFFCURVE",
"50 117 OFFCURVE",
"50 85 CURVE SMOOTH",
"50 15 LINE SMOOTH",
"50 6 OFFCURVE",
"56 0 OFFCURVE",
"65 0 CURVE SMOOTH",
"453 0 LINE SMOOTH",
"462 0 OFFCURVE",
"468 6 OFFCURVE",
"468 15 CURVE SMOOTH",
"468 106 LINE SMOOTH",
"468 115 OFFCURVE",
"462 121 OFFCURVE",
"453 121 CURVE SMOOTH",
"199 121 LINE",
"207 131 LINE",
"225 131 OFFCURVE",
"239 142 OFFCURVE",
"257 158 CURVE",
"440 352 LINE SMOOTH",
"461 374 OFFCURVE",
"468 381 OFFCURVE",
"468 404 CURVE SMOOTH",
"468 485 LINE SMOOTH",
"468 494 OFFCURVE",
"462 500 OFFCURVE",
"453 500 CURVE SMOOTH",
"75 500 LINE SMOOTH",
"66 500 OFFCURVE",
"60 494 OFFCURVE",
"60 485 CURVE SMOOTH"
);
}
);
width = 528;
},
{
layerId = "644D3D1A-706E-4D36-8EE1-81638A7D248A";
paths = (
{
closed = 1;
nodes = (
"60 394 LINE SMOOTH",
"60 385 OFFCURVE",
"66 379 OFFCURVE",
"75 379 CURVE SMOOTH",
"275 379 LINE SMOOTH",
"298 379 OFFCURVE",
"299 377 OFFCURVE",
"283 361 CURVE SMOOTH",
"78 148 LINE SMOOTH",
"53 123 OFFCURVE",
"50 116 OFFCURVE",
"50 85 CURVE SMOOTH",
"50 15 LINE SMOOTH",
"50 6 OFFCURVE",
"56 0 OFFCURVE",
"65 0 CURVE SMOOTH",
"453 0 LINE SMOOTH",
"462 0 OFFCURVE",
"468 6 OFFCURVE",
"468 15 CURVE SMOOTH",
"468 106 LINE SMOOTH",
"468 115 OFFCURVE",
"462 121 OFFCURVE",
"453 121 CURVE SMOOTH",
"244 121 LINE SMOOTH",
"221 121 OFFCURVE",
"220 123 OFFCURVE",
"236 139 CURVE SMOOTH",
"440 352 LINE SMOOTH",
"465 377 OFFCURVE",
"468 382 OFFCURVE",
"468 404 CURVE SMOOTH",
"468 485 LINE SMOOTH",
"468 494 OFFCURVE",
"462 500 OFFCURVE",
"453 500 CURVE SMOOTH",
"75 500 LINE SMOOTH",
"66 500 OFFCURVE",
"60 494 OFFCURVE",
"60 485 CURVE SMOOTH"
);
}
);
width = 518;
},
{
associatedMasterId = "644D3D1A-706E-4D36-8EE1-81638A7D248A";
layerId = "CFF2EB3D-CB6E-4BB9-8729-EA7288DC5DAB";
name = "Mar 31 18, 20:49";
paths = (
{
closed = 1;
nodes = (
"60 394 LINE SMOOTH",
"60 385 OFFCURVE",
"66 379 OFFCURVE",
"75 379 CURVE SMOOTH",
"275 379 LINE SMOOTH",
"298 379 OFFCURVE",
"299 377 OFFCURVE",
"283 361 CURVE SMOOTH",
"78 148 LINE SMOOTH",
"53 123 OFFCURVE",
"50 116 OFFCURVE",
"50 85 CURVE SMOOTH",
"50 15 LINE SMOOTH",
"50 6 OFFCURVE",
"56 0 OFFCURVE",
"65 0 CURVE SMOOTH",
"453 0 LINE SMOOTH",
"462 0 OFFCURVE",
"468 6 OFFCURVE",
"468 15 CURVE SMOOTH",
"468 106 LINE SMOOTH",
"468 115 OFFCURVE",
"462 121 OFFCURVE",
"453 121 CURVE SMOOTH",
"244 121 LINE SMOOTH",
"221 121 OFFCURVE",
"220 123 OFFCURVE",
"236 139 CURVE SMOOTH",
"440 352 LINE SMOOTH",
"465 377 OFFCURVE",
"468 382 OFFCURVE",
"468 404 CURVE SMOOTH",
"468 485 LINE SMOOTH",
"468 494 OFFCURVE",
"462 500 OFFCURVE",
"453 500 CURVE SMOOTH",
"75 500 LINE SMOOTH",
"66 500 OFFCURVE",
"60 494 OFFCURVE",
"60 485 CURVE SMOOTH"
);
}
);
width = 518;
}
);
unicode = 007A;
},
{
glyphname = zero;
lastChange = "2018-04-01 16:06:39 +0000";
layers = (
{
layerId = "DBDE1730-7CB6-4711-8383-3CA3AF6893BF";
paths = (
{
closed = 1;
nodes = (
"528 -6 OFFCURVE",
"612 108 OFFCURVE",
"612 358 CURVE SMOOTH",
"612 597 OFFCURVE",
"528 706 OFFCURVE",
"346 706 CURVE SMOOTH",
"164 706 OFFCURVE",
"80 597 OFFCURVE",
"80 358 CURVE SMOOTH",
"80 108 OFFCURVE",
"164 -6 OFFCURVE",
"346 -6 CURVE SMOOTH"
);
},
{
closed = 1;
nodes = (
"197 36 OFFCURVE",
"128 137 OFFCURVE",
"128 358 CURVE SMOOTH",
"128 568 OFFCURVE",
"197 664 OFFCURVE",
"346 664 CURVE SMOOTH",
"495 664 OFFCURVE",
"564 568 OFFCURVE",
"564 358 CURVE SMOOTH",
"564 137 OFFCURVE",
"495 36 OFFCURVE",
"346 36 CURVE SMOOTH"
);
},
{
closed = 1;
nodes = (
"183 65 LINE",
"539 610 LINE",
"508 635 LINE",
"154 93 LINE"
);
}
);
width = 692;
},
{
layerId = "644D3D1A-706E-4D36-8EE1-81638A7D248A";
paths = (
{
closed = 1;
nodes = (
"619 -4 OFFCURVE",
"676 62 OFFCURVE",
"676 354 CURVE SMOOTH",
"676 639 OFFCURVE",
"619 704 OFFCURVE",
"368 704 CURVE SMOOTH",
"117 704 OFFCURVE",
"60 639 OFFCURVE",
"60 354 CURVE SMOOTH",
"60 62 OFFCURVE",
"117 -4 OFFCURVE",
"368 -4 CURVE SMOOTH"
);
},
{
closed = 1;
nodes = (
"233 128 OFFCURVE",
"202 170 OFFCURVE",
"202 354 CURVE SMOOTH",
"202 532 OFFCURVE",
"233 572 OFFCURVE",
"368 572 CURVE SMOOTH",
"503 572 OFFCURVE",
"534 532 OFFCURVE",
"534 354 CURVE SMOOTH",
"534 170 OFFCURVE",
"503 128 OFFCURVE",
"368 128 CURVE SMOOTH"
);
},
{
closed = 1;
nodes = (
"252 72 LINE",
"583 566 LINE",
"481 641 LINE",
"154 139 LINE"
);
}
);
width = 736;
},
{
associatedMasterId = "DBDE1730-7CB6-4711-8383-3CA3AF6893BF";
layerId = "18B740A4-F4CE-4E05-AD75-86C4D658B375";
name = "Apr 1 18, 02:48";
paths = (
{
closed = 1;
nodes = (
"557 350 LINE",
"557 288 LINE SMOOTH",
"557 137 OFFCURVE",
"463 36 OFFCURVE",
"326 36 CURVE SMOOTH",
"195 36 OFFCURVE",
"105 137 OFFCURVE",
"105 288 CURVE SMOOTH",
"105 350 LINE",
"60 350 LINE",
"60 288 LINE SMOOTH",
"60 112 OFFCURVE",
"166 -6 OFFCURVE",
"326 -6 CURVE SMOOTH",
"492 -6 OFFCURVE",
"602 112 OFFCURVE",
"602 288 CURVE SMOOTH",
"602 350 LINE"
);
},
{
closed = 1;
nodes = (
"602 412 LINE SMOOTH",
"602 588 OFFCURVE",
"492 706 OFFCURVE",
"326 706 CURVE SMOOTH",
"166 706 OFFCURVE",
"60 588 OFFCURVE",
"60 412 CURVE SMOOTH",
"60 350 LINE",
"105 350 LINE",
"105 412 LINE SMOOTH",
"105 563 OFFCURVE",
"195 664 OFFCURVE",
"326 664 CURVE SMOOTH",
"463 664 OFFCURVE",
"557 563 OFFCURVE",
"557 412 CURVE SMOOTH",
"557 350 LINE",
"602 350 LINE"
);
},
{
closed = 1;
nodes = (
"65 7 LINE SMOOTH",
"63 3 OFFCURVE",
"64 0 OFFCURVE",
"69 0 CURVE SMOOTH",
"102 0 LINE SMOOTH",
"105 0 OFFCURVE",
"108 2 OFFCURVE",
"110 4 CURVE SMOOTH",
"559 693 LINE SMOOTH",
"561 697 OFFCURVE",
"560 700 OFFCURVE",
"555 700 CURVE SMOOTH",
"522 700 LINE SMOOTH",
"519 700 OFFCURVE",
"516 698 OFFCURVE",
"514 696 CURVE SMOOTH"
);
}
);
width = 662;
}
);
unicode = 0030;
},
{
glyphname = one;
lastChange = "2018-04-01 14:40:55 +0000";
layers = (
{
layerId = "DBDE1730-7CB6-4711-8383-3CA3AF6893BF";
paths = (
{
closed = 1;
nodes = (
"271 694 LINE SMOOTH",
"271 697 OFFCURVE",
"268 700 OFFCURVE",
"265 700 CURVE",
"226 700 LINE",
"226 6 LINE SMOOTH",
"226 3 OFFCURVE",
"229 0 OFFCURVE",
"232 0 CURVE SMOOTH",
"265 0 LINE SMOOTH",
"268 0 OFFCURVE",
"271 3 OFFCURVE",
"271 6 CURVE SMOOTH"
);
},
{
closed = 1;
nodes = (
"79 586 OFFCURVE",
"80 581 OFFCURVE",
"81 580 CURVE SMOOTH",
"100 555 LINE SMOOTH",
"102 552 OFFCURVE",
"106 553 OFFCURVE",
"108 555 CURVE SMOOTH",
"226 647 LINE",
"226 700 LINE",
"81 588 LINE SMOOTH"
);
}
);
width = 391;
},
{
layerId = "644D3D1A-706E-4D36-8EE1-81638A7D248A";
paths = (
{
closed = 1;
nodes = (
"329 685 LINE SMOOTH",
"329 693 OFFCURVE",
"322 700 OFFCURVE",
"314 700 CURVE",
"187 700 LINE",
"187 15 LINE SMOOTH",
"187 7 OFFCURVE",
"194 0 OFFCURVE",
"202 0 CURVE SMOOTH",
"314 0 LINE SMOOTH",
"322 0 OFFCURVE",
"329 7 OFFCURVE",
"329 15 CURVE SMOOTH"
);
},
{
closed = 1;
nodes = (
"57 700 OFFCURVE",
"50 693 OFFCURVE",
"50 685 CURVE SMOOTH",
"50 583 LINE SMOOTH",
"50 575 OFFCURVE",
"57 568 OFFCURVE",
"65 568 CURVE SMOOTH",
"187 568 LINE",
"187 700 LINE",
"65 700 LINE SMOOTH"
);
}
);
width = 429;
},
{
associatedMasterId = "DBDE1730-7CB6-4711-8383-3CA3AF6893BF";
layerId = "A41DD11C-3330-4E90-8A35-BE3AAE19387E";
name = "Apr 1 18, 02:41";
paths = (
{
closed = 1;
nodes = (
"355 694 LINE SMOOTH",
"355 697 OFFCURVE",
"352 700 OFFCURVE",
"349 700 CURVE SMOOTH",
"316 700 LINE SMOOTH",
"313 700 OFFCURVE",
"310 697 OFFCURVE",
"310 694 CURVE SMOOTH",
"310 6 LINE SMOOTH",
"310 3 OFFCURVE",
"313 0 OFFCURVE",
"316 0 CURVE SMOOTH",
"349 0 LINE SMOOTH",
"352 0 OFFCURVE",
"355 3 OFFCURVE",
"355 6 CURVE SMOOTH"
);
},
{
closed = 1;
nodes = (
"165 585 OFFCURVE",
"166 580 OFFCURVE",
"167 579 CURVE SMOOTH",
"186 554 LINE SMOOTH",
"188 551 OFFCURVE",
"192 552 OFFCURVE",
"194 554 CURVE SMOOTH",
"336 665 LINE SMOOTH",
"338 667 OFFCURVE",
"338 669 OFFCURVE",
"336 673 CURVE SMOOTH",
"320 699 LINE SMOOTH",
"319 700 OFFCURVE",
"314 701 OFFCURVE",
"312 699 CURVE SMOOTH",
"167 587 LINE SMOOTH"
);
}
);
width = 600;
}
);
unicode = 0031;
},
{
glyphname = two;
lastChange = "2018-04-01 16:06:45 +0000";
layers = (
{
layerId = "DBDE1730-7CB6-4711-8383-3CA3AF6893BF";
paths = (
{
closed = 1;
nodes = (
"537 0 LINE SMOOTH",
"541 0 OFFCURVE",
"543 2 OFFCURVE",
"543 6 CURVE SMOOTH",
"543 34 LINE SMOOTH",
"543 38 OFFCURVE",
"541 40 OFFCURVE",
"537 40 CURVE SMOOTH",
"132 40 LINE SMOOTH",
"127 40 OFFCURVE",
"123 41 OFFCURVE",
"123 49 CURVE SMOOTH",
"123 279 OFFCURVE",
"554 259 OFFCURVE",
"554 505 CURVE SMOOTH",
"554 626 OFFCURVE",
"464 706 OFFCURVE",
"328 706 CURVE SMOOTH",
"193 706 OFFCURVE",
"103 615 OFFCURVE",
"103 478 CURVE SMOOTH",
"103 474 OFFCURVE",
"106 471 OFFCURVE",
"111 471 CURVE SMOOTH",
"138 471 LINE SMOOTH",
"143 471 OFFCURVE",
"146 474 OFFCURVE",
"146 479 CURVE SMOOTH",
"146 591 OFFCURVE",
"219 666 OFFCURVE",
"328 666 CURVE SMOOTH",
"436 666 OFFCURVE",
"508 602 OFFCURVE",
"508 505 CURVE SMOOTH",
"508 300 OFFCURVE",
"80 316 OFFCURVE",
"80 49 CURVE SMOOTH",
"80 6 LINE SMOOTH",
"80 2 OFFCURVE",
"82 0 OFFCURVE",
"86 0 CURVE SMOOTH"
);
}
);
width = 634;
},
{
layerId = "644D3D1A-706E-4D36-8EE1-81638A7D248A";
paths = (
{
closed = 1;
nodes = (
"606 0 LINE SMOOTH",
"615 0 OFFCURVE",
"621 6 OFFCURVE",
"621 15 CURVE SMOOTH",
"621 117 LINE SMOOTH",
"621 126 OFFCURVE",
"615 132 OFFCURVE",
"606 132 CURVE SMOOTH",
"223 132 LINE SMOOTH",
"214 132 OFFCURVE",
"215 139 OFFCURVE",
"215 150 CURVE SMOOTH",
"215 347 OFFCURVE",
"625 165 OFFCURVE",
"625 489 CURVE SMOOTH",
"625 655 OFFCURVE",
"560 704 OFFCURVE",
"341 704 CURVE SMOOTH",
"124 704 OFFCURVE",
"60 648 OFFCURVE",
"60 457 CURVE SMOOTH",
"60 444 OFFCURVE",
"69 434 OFFCURVE",
"81 434 CURVE SMOOTH",
"182 434 LINE SMOOTH",
"194 434 OFFCURVE",
"202 443 OFFCURVE",
"202 454 CURVE SMOOTH",
"202 545 OFFCURVE",
"234 572 OFFCURVE",
"341 572 CURVE SMOOTH",
"451 572 OFFCURVE",
"483 553 OFFCURVE",
"483 489 CURVE SMOOTH",
"483 298 OFFCURVE",
"64 487 OFFCURVE",
"64 132 CURVE SMOOTH",
"64 15 LINE SMOOTH",
"64 6 OFFCURVE",
"70 0 OFFCURVE",
"79 0 CURVE SMOOTH"
);
}
);
width = 685;
},
{
associatedMasterId = "644D3D1A-706E-4D36-8EE1-81638A7D248A";
layerId = "5AEBF1B0-EF8C-4D98-839A-BF96E86A27E2";
name = "Apr 1 18, 00:38";
paths = (
{
closed = 1;
nodes = (
"611 117 LINE SMOOTH",
"611 126 OFFCURVE",
"605 132 OFFCURVE",
"596 132 CURVE SMOOTH",
"213 132 LINE SMOOTH",
"204 132 OFFCURVE",
"205 139 OFFCURVE",
"205 150 CURVE SMOOTH",
"205 347 OFFCURVE",
"615 165 OFFCURVE",
"615 489 CURVE",
"473 489 LINE",
"473 298 OFFCURVE",
"54 487 OFFCURVE",
"54 132 CURVE",
"54 15 LINE",
"54 6 OFFCURVE",
"60 0 OFFCURVE",
"69 0 CURVE SMOOTH",
"596 0 LINE SMOOTH",
"605 0 OFFCURVE",
"611 6 OFFCURVE",
"611 15 CURVE SMOOTH"
);
},
{
closed = 1;
nodes = (
"114 704 OFFCURVE",
"50 648 OFFCURVE",
"50 457 CURVE SMOOTH",
"50 444 OFFCURVE",
"59 434 OFFCURVE",
"71 434 CURVE SMOOTH",
"172 434 LINE SMOOTH",
"184 434 OFFCURVE",
"192 443 OFFCURVE",
"192 454 CURVE SMOOTH",
"192 545 OFFCURVE",
"224 572 OFFCURVE",
"331 572 CURVE SMOOTH",
"441 572 OFFCURVE",
"473 553 OFFCURVE",
"473 489 CURVE",
"615 489 LINE",
"615 655 OFFCURVE",
"550 704 OFFCURVE",
"331 704 CURVE SMOOTH"
);
}
);
width = 665;
}
);
unicode = 0032;
},
{
glyphname = three;
lastChange = "2018-04-01 16:07:29 +0000";
layers = (
{
layerId = "DBDE1730-7CB6-4711-8383-3CA3AF6893BF";
paths = (
{
closed = 1;
nodes = (
"86 70 OFFCURVE",
"184 -6 OFFCURVE",
"326 -6 CURVE SMOOTH",
"474 -6 OFFCURVE",
"572 72 OFFCURVE",
"572 189 CURVE SMOOTH",
"572 273 OFFCURVE",
"519 351 OFFCURVE",
"440 383 CURVE",
"501 409 OFFCURVE",
"542 469 OFFCURVE",
"542 532 CURVE SMOOTH",
"542 635 OFFCURVE",
"456 704 OFFCURVE",
"326 704 CURVE SMOOTH",
"201 704 OFFCURVE",
"115 638 OFFCURVE",
"110 538 CURVE",
"110 534 OFFCURVE",
"112 532 OFFCURVE",
"116 532 CURVE SMOOTH",
"152 532 LINE SMOOTH",
"156 532 OFFCURVE",
"158 534 OFFCURVE",
"158 538 CURVE",
"163 612 OFFCURVE",
"230 662 OFFCURVE",
"326 662 CURVE SMOOTH",
"427 662 OFFCURVE",
"494 610 OFFCURVE",
"494 532 CURVE SMOOTH",
"494 455 OFFCURVE",
"427 403 OFFCURVE",
"326 403 CURVE SMOOTH",
"282 403 LINE SMOOTH",
"278 403 OFFCURVE",
"276 401 OFFCURVE",
"276 397 CURVE SMOOTH",
"276 367 LINE SMOOTH",
"276 363 OFFCURVE",
"278 361 OFFCURVE",
"282 361 CURVE SMOOTH",
"326 361 LINE SMOOTH",
"445 361 OFFCURVE",
"524 292 OFFCURVE",
"524 189 CURVE SMOOTH",
"524 97 OFFCURVE",
"445 36 OFFCURVE",
"326 36 CURVE SMOOTH",
"213 36 OFFCURVE",
"134 95 OFFCURVE",
"128 183 CURVE",
"128 187 OFFCURVE",
"126 189 OFFCURVE",
"122 189 CURVE SMOOTH",
"86 189 LINE SMOOTH",
"82 189 OFFCURVE",
"80 187 OFFCURVE",
"80 183 CURVE"
);
}
);
width = 652;
},
{
layerId = "644D3D1A-706E-4D36-8EE1-81638A7D248A";
paths = (
{
closed = 1;
nodes = (
"60 33 OFFCURVE",
"112 -4 OFFCURVE",
"341 -4 CURVE SMOOTH",
"560 -4 OFFCURVE",
"625 45 OFFCURVE",
"625 211 CURVE SMOOTH",
"625 330 OFFCURVE",
"599 357 OFFCURVE",
"483 357 CURVE",
"599 357 OFFCURVE",
"625 382 OFFCURVE",
"625 489 CURVE SMOOTH",
"625 655 OFFCURVE",
"560 704 OFFCURVE",
"341 704 CURVE SMOOTH",
"112 704 OFFCURVE",
"60 667 OFFCURVE",
"60 507 CURVE SMOOTH",
"60 494 OFFCURVE",
"69 484 OFFCURVE",
"81 484 CURVE SMOOTH",
"182 484 LINE SMOOTH",
"194 484 OFFCURVE",
"202 493 OFFCURVE",
"202 504 CURVE SMOOTH",
"202 565 OFFCURVE",
"216 572 OFFCURVE",
"341 572 CURVE SMOOTH",
"469 572 OFFCURVE",
"483 564 OFFCURVE",
"483 489 CURVE SMOOTH",
"483 430 OFFCURVE",
"476 423 OFFCURVE",
"411 423 CURVE SMOOTH",
"298 423 LINE SMOOTH",
"290 423 OFFCURVE",
"283 416 OFFCURVE",
"283 408 CURVE SMOOTH",
"283 306 LINE SMOOTH",
"283 298 OFFCURVE",
"290 291 OFFCURVE",
"298 291 CURVE SMOOTH",
"411 291 LINE SMOOTH",
"476 291 OFFCURVE",
"483 283 OFFCURVE",
"483 211 CURVE SMOOTH",
"483 136 OFFCURVE",
"469 128 OFFCURVE",
"341 128 CURVE SMOOTH",
"216 128 OFFCURVE",
"202 135 OFFCURVE",
"202 196 CURVE SMOOTH",
"202 207 OFFCURVE",
"194 216 OFFCURVE",
"182 216 CURVE SMOOTH",
"81 216 LINE SMOOTH",
"69 216 OFFCURVE",
"60 206 OFFCURVE",
"60 193 CURVE SMOOTH"
);
}
);
width = 685;
},
{
associatedMasterId = "644D3D1A-706E-4D36-8EE1-81638A7D248A";
layerId = "A8C47BFD-C194-479C-93F0-148BF0D4589E";
name = "Apr 1 18, 11:33";
paths = (
{
closed = 1;
nodes = (
"102 704 OFFCURVE",
"50 667 OFFCURVE",
"50 507 CURVE SMOOTH",
"50 494 OFFCURVE",
"59 484 OFFCURVE",
"71 484 CURVE SMOOTH",
"172 484 LINE SMOOTH",
"184 484 OFFCURVE",
"192 493 OFFCURVE",
"192 504 CURVE SMOOTH",
"192 565 OFFCURVE",
"206 572 OFFCURVE",
"331 572 CURVE SMOOTH",
"459 572 OFFCURVE",
"473 564 OFFCURVE",
"473 489 CURVE",
"615 489 LINE",
"615 655 OFFCURVE",
"550 704 OFFCURVE",
"331 704 CURVE SMOOTH"
);
},
{
closed = 1;
nodes = (
"550 -4 OFFCURVE",
"615 45 OFFCURVE",
"615 211 CURVE",
"473 211 LINE",
"473 136 OFFCURVE",
"459 128 OFFCURVE",
"331 128 CURVE SMOOTH",
"206 128 OFFCURVE",
"192 135 OFFCURVE",
"192 196 CURVE SMOOTH",
"192 207 OFFCURVE",
"184 216 OFFCURVE",
"172 216 CURVE SMOOTH",
"71 216 LINE SMOOTH",
"59 216 OFFCURVE",
"50 206 OFFCURVE",
"50 193 CURVE SMOOTH",
"50 33 OFFCURVE",
"102 -4 OFFCURVE",
"331 -4 CURVE SMOOTH"
);
},
{
closed = 1;
nodes = (
"280 423 OFFCURVE",
"273 416 OFFCURVE",
"273 408 CURVE SMOOTH",
"273 306 LINE SMOOTH",
"273 298 OFFCURVE",
"280 291 OFFCURVE",
"288 291 CURVE SMOOTH",
"473 291 LINE",
"473 423 LINE",
"288 423 LINE SMOOTH"
);
},
{
closed = 1;
nodes = (
"589 357 OFFCURVE",
"615 382 OFFCURVE",
"615 489 CURVE",
"473 489 LINE",
"473 430 OFFCURVE",
"466 423 OFFCURVE",
"401 423 CURVE",
"473 357 LINE"
);
},
{
closed = 1;
nodes = (
"401 291 LINE",
"466 291 OFFCURVE",
"473 283 OFFCURVE",
"473 211 CURVE",
"615 211 LINE",
"615 330 OFFCURVE",
"589 357 OFFCURVE",
"473 357 CURVE"
);
}
);
width = 665;
},
{
associatedMasterId = "DBDE1730-7CB6-4711-8383-3CA3AF6893BF";
layerId = "77B64C59-E720-417B-9ECB-66D64668F52C";
name = "Apr 1 18, 11:33";
paths = (
{
closed = 1;
nodes = (
"286 367 LINE SMOOTH",
"286 363 OFFCURVE",
"288 361 OFFCURVE",
"292 361 CURVE SMOOTH",
"306 361 LINE SMOOTH",
"436 361 OFFCURVE",
"522 429 OFFCURVE",
"522 532 CURVE SMOOTH",
"522 635 OFFCURVE",
"436 704 OFFCURVE",
"306 704 CURVE SMOOTH",
"179 704 OFFCURVE",
"94 646 OFFCURVE",
"90 558 CURVE SMOOTH",
"90 554 OFFCURVE",
"92 552 OFFCURVE",
"96 552 CURVE SMOOTH",
"132 552 LINE SMOOTH",
"135 552 OFFCURVE",
"138 554 OFFCURVE",
"138 558 CURVE SMOOTH",
"142 621 OFFCURVE",
"208 662 OFFCURVE",
"306 662 CURVE SMOOTH",
"407 662 OFFCURVE",
"474 610 OFFCURVE",
"474 532 CURVE SMOOTH",
"474 455 OFFCURVE",
"407 403 OFFCURVE",
"306 403 CURVE SMOOTH",
"292 403 LINE SMOOTH",
"288 403 OFFCURVE",
"286 401 OFFCURVE",
"286 397 CURVE SMOOTH"
);
},
{
closed = 1;
nodes = (
"66 168 LINE SMOOTH",
"62 168 OFFCURVE",
"60 166 OFFCURVE",
"60 162 CURVE SMOOTH",
"65 61 OFFCURVE",
"162 -6 OFFCURVE",
"306 -6 CURVE SMOOTH",
"454 -6 OFFCURVE",
"552 72 OFFCURVE",
"552 189 CURVE SMOOTH",
"552 317 OFFCURVE",
"454 403 OFFCURVE",
"306 403 CURVE SMOOTH",
"292 403 LINE SMOOTH",
"288 403 OFFCURVE",
"286 401 OFFCURVE",
"286 397 CURVE SMOOTH",
"286 367 LINE SMOOTH",
"286 363 OFFCURVE",
"288 361 OFFCURVE",
"292 361 CURVE SMOOTH",
"306 361 LINE SMOOTH",
"425 361 OFFCURVE",
"504 292 OFFCURVE",
"504 189 CURVE SMOOTH",
"504 97 OFFCURVE",
"425 36 OFFCURVE",
"306 36 CURVE SMOOTH",
"191 36 OFFCURVE",
"113 86 OFFCURVE",
"108 162 CURVE SMOOTH",
"108 166 OFFCURVE",
"105 168 OFFCURVE",
"102 168 CURVE SMOOTH"
);
}
);
width = 600;
}
);
unicode = 0033;
},
{
glyphname = four;
lastChange = "2018-04-01 16:09:17 +0000";
layers = (
{
layerId = "DBDE1730-7CB6-4711-8383-3CA3AF6893BF";
paths = (
{
closed = 1;
nodes = (
"558 216 LINE SMOOTH",
"558 220 OFFCURVE",
"556 222 OFFCURVE",
"552 222 CURVE SMOOTH",
"140 222 LINE SMOOTH",
"135 222 OFFCURVE",
"134 225 OFFCURVE",
"137 229 CURVE SMOOTH",
"438 653 LINE",
"438 700 LINE",
"422 700 LINE SMOOTH",
"419 700 OFFCURVE",
"416 698 OFFCURVE",
"415 696 CURVE SMOOTH",
"92 242 LINE",
"87 231 OFFCURVE",
"80 216 OFFCURVE",
"80 205 CURVE SMOOTH",
"80 186 LINE SMOOTH",
"80 182 OFFCURVE",
"82 180 OFFCURVE",
"86 180 CURVE SMOOTH",
"552 180 LINE SMOOTH",
"556 180 OFFCURVE",
"558 182 OFFCURVE",
"558 186 CURVE SMOOTH"
);
},
{
closed = 1;
nodes = (
"461 694 LINE SMOOTH",
"461 697 OFFCURVE",
"458 700 OFFCURVE",
"455 700 CURVE SMOOTH",
"422 700 LINE SMOOTH",
"419 700 OFFCURVE",
"416 697 OFFCURVE",
"416 694 CURVE SMOOTH",
"416 6 LINE SMOOTH",
"416 3 OFFCURVE",
"419 0 OFFCURVE",
"422 0 CURVE SMOOTH",
"455 0 LINE SMOOTH",
"458 0 OFFCURVE",
"461 3 OFFCURVE",
"461 6 CURVE SMOOTH"
);
}
);
width = 638;
},
{
layerId = "644D3D1A-706E-4D36-8EE1-81638A7D248A";
paths = (
{
closed = 1;
nodes = (
"627 257 LINE SMOOTH",
"627 266 OFFCURVE",
"621 272 OFFCURVE",
"612 272 CURVE SMOOTH",
"234 272 LINE SMOOTH",
"225 272 OFFCURVE",
"218 279 OFFCURVE",
"226 290 CURVE SMOOTH",
"506 667 LINE",
"506 700 LINE",
"372 700 LINE SMOOTH",
"364 700 OFFCURVE",
"361 697 OFFCURVE",
"355 689 CURVE SMOOTH",
"77 310 LINE SMOOTH",
"54 278 OFFCURVE",
"61 264 OFFCURVE",
"61 237 CURVE SMOOTH",
"61 155 LINE SMOOTH",
"61 146 OFFCURVE",
"67 140 OFFCURVE",
"76 140 CURVE SMOOTH",
"612 140 LINE SMOOTH",
"621 140 OFFCURVE",
"627 146 OFFCURVE",
"627 155 CURVE SMOOTH"
);
},
{
closed = 1;
nodes = (
"533 685 LINE SMOOTH",
"533 693 OFFCURVE",
"526 700 OFFCURVE",
"518 700 CURVE SMOOTH",
"406 700 LINE SMOOTH",
"398 700 OFFCURVE",
"391 693 OFFCURVE",
"391 685 CURVE SMOOTH",
"391 15 LINE SMOOTH",
"391 7 OFFCURVE",
"398 0 OFFCURVE",
"406 0 CURVE SMOOTH",
"518 0 LINE SMOOTH",
"526 0 OFFCURVE",
"533 7 OFFCURVE",
"533 15 CURVE SMOOTH"
);
}
);
width = 687;
}
);
unicode = 0034;
},
{
glyphname = five;
lastChange = "2018-04-01 16:06:32 +0000";
layers = (
{
layerId = "DBDE1730-7CB6-4711-8383-3CA3AF6893BF";
paths = (
{
closed = 1;
nodes = (
"449 -6 OFFCURVE",
"546 88 OFFCURVE",
"546 229 CURVE SMOOTH",
"546 365 OFFCURVE",
"453 455 OFFCURVE",
"314 455 CURVE SMOOTH",
"243 455 OFFCURVE",
"175 432 OFFCURVE",
"146 392 CURVE SMOOTH",
"141 385 OFFCURVE",
"138 386 OFFCURVE",
"139 395 CURVE SMOOTH",
"165 652 LINE SMOOTH",
"165 656 OFFCURVE",
"167 658 OFFCURVE",
"171 658 CURVE SMOOTH",
"515 658 LINE SMOOTH",
"519 658 OFFCURVE",
"521 660 OFFCURVE",
"521 664 CURVE SMOOTH",
"521 694 LINE SMOOTH",
"521 698 OFFCURVE",
"519 700 OFFCURVE",
"515 700 CURVE SMOOTH",
"130 700 LINE SMOOTH",
"126 700 OFFCURVE",
"124 698 OFFCURVE",
"124 694 CURVE SMOOTH",
"94 348 LINE SMOOTH",
"94 344 OFFCURVE",
"96 342 OFFCURVE",
"100 342 CURVE SMOOTH",
"134 342 LINE SMOOTH",
"137 342 OFFCURVE",
"140 343 OFFCURVE",
"141 346 CURVE",
"168 386 OFFCURVE",
"236 413 OFFCURVE",
"314 413 CURVE SMOOTH",
"426 413 OFFCURVE",
"500 339 OFFCURVE",
"500 229 CURVE SMOOTH",
"500 113 OFFCURVE",
"422 36 OFFCURVE",
"304 36 CURVE SMOOTH",
"197 36 OFFCURVE",
"125 94 OFFCURVE",
"125 181 CURVE SMOOTH",
"125 186 OFFCURVE",
"122 189 OFFCURVE",
"117 189 CURVE SMOOTH",
"88 189 LINE SMOOTH",
"83 189 OFFCURVE",
"80 186 OFFCURVE",
"80 182 CURVE SMOOTH",
"80 69 OFFCURVE",
"170 -6 OFFCURVE",
"304 -6 CURVE SMOOTH"
);
}
);
width = 626;
},
{
layerId = "644D3D1A-706E-4D36-8EE1-81638A7D248A";
paths = (
{
closed = 1;
nodes = (
"572 -4 OFFCURVE",
"625 39 OFFCURVE",
"625 227 CURVE SMOOTH",
"625 424 OFFCURVE",
"592 469 OFFCURVE",
"361 469 CURVE SMOOTH",
"296 469 OFFCURVE",
"236 445 OFFCURVE",
"212 408 CURVE SMOOTH",
"208 401 OFFCURVE",
"202 405 OFFCURVE",
"202 414 CURVE SMOOTH",
"202 553 LINE SMOOTH",
"202 562 OFFCURVE",
"208 568 OFFCURVE",
"217 568 CURVE SMOOTH",
"566 568 LINE SMOOTH",
"575 568 OFFCURVE",
"581 574 OFFCURVE",
"581 583 CURVE SMOOTH",
"581 685 LINE SMOOTH",
"581 694 OFFCURVE",
"575 700 OFFCURVE",
"566 700 CURVE SMOOTH",
"75 700 LINE SMOOTH",
"66 700 OFFCURVE",
"60 694 OFFCURVE",
"60 685 CURVE SMOOTH",
"60 282 LINE SMOOTH",
"60 273 OFFCURVE",
"66 267 OFFCURVE",
"75 267 CURVE SMOOTH",
"197 267 LINE SMOOTH",
"200 267 OFFCURVE",
"202 269 OFFCURVE",
"202 271 CURVE",
"202 330 OFFCURVE",
"216 337 OFFCURVE",
"341 337 CURVE SMOOTH",
"469 337 OFFCURVE",
"483 326 OFFCURVE",
"483 227 CURVE SMOOTH",
"483 138 OFFCURVE",
"469 128 OFFCURVE",
"341 128 CURVE SMOOTH",
"216 128 OFFCURVE",
"202 133 OFFCURVE",
"202 176 CURVE SMOOTH",
"202 187 OFFCURVE",
"194 196 OFFCURVE",
"182 196 CURVE SMOOTH",
"81 196 LINE SMOOTH",
"69 196 OFFCURVE",
"60 186 OFFCURVE",
"60 173 CURVE SMOOTH",
"60 29 OFFCURVE",
"112 -4 OFFCURVE",
"341 -4 CURVE SMOOTH"
);
}
);
width = 685;
},
{
associatedMasterId = "DBDE1730-7CB6-4711-8383-3CA3AF6893BF";
layerId = "6A1C50E3-E9B1-4DB2-BD45-408BBFDE34E2";
name = "Apr 1 18, 11:50";
paths = (
{
closed = 1;
nodes = (
"458 -6 OFFCURVE",
"554 88 OFFCURVE",
"554 229 CURVE",
"508 229 LINE",
"508 113 OFFCURVE",
"430 36 OFFCURVE",
"314 36 CURVE SMOOTH",
"195 36 OFFCURVE",
"115 94 OFFCURVE",
"115 181 CURVE SMOOTH",
"115 186 OFFCURVE",
"112 189 OFFCURVE",
"107 189 CURVE SMOOTH",
"78 189 LINE SMOOTH",
"73 189 OFFCURVE",
"70 186 OFFCURVE",
"70 182 CURVE SMOOTH",
"70 69 OFFCURVE",
"168 -6 OFFCURVE",
"314 -6 CURVE SMOOTH"
);
},
{
closed = 1;
nodes = (
"139 362 LINE",
"139 652 LINE SMOOTH",
"139 656 OFFCURVE",
"141 658 OFFCURVE",
"145 658 CURVE SMOOTH",
"515 658 LINE SMOOTH",
"519 658 OFFCURVE",
"521 660 OFFCURVE",
"521 664 CURVE SMOOTH",
"521 694 LINE SMOOTH",
"521 698 OFFCURVE",
"519 700 OFFCURVE",
"515 700 CURVE SMOOTH",
"100 700 LINE SMOOTH",
"96 700 OFFCURVE",
"94 698 OFFCURVE",
"94 694 CURVE SMOOTH",
"94 368 LINE SMOOTH",
"94 364 OFFCURVE",
"96 362 OFFCURVE",
"100 362 CURVE SMOOTH"
);
},
{
closed = 1;
nodes = (
"139 362 LINE",
"164 404 OFFCURVE",
"233 432 OFFCURVE",
"314 432 CURVE SMOOTH",
"430 432 OFFCURVE",
"508 351 OFFCURVE",
"508 229 CURVE",
"554 229 LINE",
"554 376 OFFCURVE",
"458 474 OFFCURVE",
"314 474 CURVE SMOOTH",
"237 474 OFFCURVE",
"167 446 OFFCURVE",
"139 403 CURVE"
);
}
);
width = 600;
},
{
associatedMasterId = "644D3D1A-706E-4D36-8EE1-81638A7D248A";
layerId = "FD1A9507-8705-453B-86F6-399FBBD73C5D";
name = "Apr 1 18, 11:53";
paths = (
{
closed = 1;
nodes = (
"571 694 OFFCURVE",
"565 700 OFFCURVE",
"556 700 CURVE SMOOTH",
"79 700 LINE SMOOTH",
"70 700 OFFCURVE",
"64 694 OFFCURVE",
"64 685 CURVE SMOOTH",
"64 332 LINE SMOOTH",
"64 323 OFFCURVE",
"70 317 OFFCURVE",
"79 317 CURVE SMOOTH",
"331 317 LINE SMOOTH",
"447 317 OFFCURVE",
"473 298 OFFCURVE",
"473 227 CURVE",
"615 227 LINE",
"615 405 OFFCURVE",
"562 449 OFFCURVE",
"331 449 CURVE SMOOTH",
"221 449 LINE SMOOTH",
"212 449 OFFCURVE",
"206 455 OFFCURVE",
"206 464 CURVE SMOOTH",
"206 553 LINE SMOOTH",
"206 562 OFFCURVE",
"212 568 OFFCURVE",
"221 568 CURVE SMOOTH",
"556 568 LINE SMOOTH",
"565 568 OFFCURVE",
"571 574 OFFCURVE",
"571 583 CURVE SMOOTH",
"571 685 LINE SMOOTH"
);
},
{
closed = 1;
nodes = (
"562 -4 OFFCURVE",
"615 39 OFFCURVE",
"615 227 CURVE",
"473 227 LINE",
"473 146 OFFCURVE",
"447 128 OFFCURVE",
"331 128 CURVE SMOOTH",
"224 128 OFFCURVE",
"192 115 OFFCURVE",
"192 206 CURVE SMOOTH",
"192 217 OFFCURVE",
"184 226 OFFCURVE",
"172 226 CURVE SMOOTH",
"71 226 LINE SMOOTH",
"59 226 OFFCURVE",
"50 216 OFFCURVE",
"50 203 CURVE SMOOTH",
"50 12 OFFCURVE",
"114 -4 OFFCURVE",
"331 -4 CURVE SMOOTH"
);
}
);
width = 665;
}
);
unicode = 0035;
},
{
glyphname = six;
lastChange = "2018-04-01 16:17:58 +0000";
layers = (
{
layerId = "DBDE1730-7CB6-4711-8383-3CA3AF6893BF";
paths = (
{
closed = 1;
nodes = (
"80 84 OFFCURVE",
"173 -6 OFFCURVE",
"313 -6 CURVE SMOOTH",
"455 -6 OFFCURVE",
"549 84 OFFCURVE",
"549 219 CURVE SMOOTH",
"549 354 OFFCURVE",
"455 444 OFFCURVE",
"313 444 CURVE SMOOTH",
"237 444 OFFCURVE",
"162 393 OFFCURVE",
"125 317 CURVE",
"125 451 LINE SMOOTH",
"125 588 OFFCURVE",
"192 664 OFFCURVE",
"313 664 CURVE SMOOTH",
"416 664 OFFCURVE",
"484 617 OFFCURVE",
"484 547 CURVE SMOOTH",
"484 543 OFFCURVE",
"486 541 OFFCURVE",
"490 541 CURVE SMOOTH",
"523 541 LINE SMOOTH",
"527 541 OFFCURVE",
"529 543 OFFCURVE",
"529 547 CURVE SMOOTH",
"529 642 OFFCURVE",
"443 706 OFFCURVE",
"313 706 CURVE SMOOTH",
"163 706 OFFCURVE",
"80 615 OFFCURVE",
"80 451 CURVE SMOOTH",
"80 219 LINE SMOOTH"
);
},
{
closed = 1;
nodes = (
"125 329 OFFCURVE",
"200 402 OFFCURVE",
"313 402 CURVE SMOOTH",
"426 402 OFFCURVE",
"501 329 OFFCURVE",
"501 219 CURVE SMOOTH",
"501 109 OFFCURVE",
"426 36 OFFCURVE",
"313 36 CURVE SMOOTH",
"200 36 OFFCURVE",
"125 109 OFFCURVE",
"125 219 CURVE SMOOTH"
);
}
);
width = 629;
},
{
layerId = "644D3D1A-706E-4D36-8EE1-81638A7D248A";
paths = (
{
closed = 1;
nodes = (
"60 36 OFFCURVE",
"113 -4 OFFCURVE",
"344 -4 CURVE SMOOTH",
"573 -4 OFFCURVE",
"625 36 OFFCURVE",
"625 211 CURVE SMOOTH",
"625 386 OFFCURVE",
"573 426 OFFCURVE",
"344 426 CURVE SMOOTH",
"241 426 OFFCURVE",
"227 420 OFFCURVE",
"202 362 CURVE",
"202 489 LINE SMOOTH",
"202 564 OFFCURVE",
"216 572 OFFCURVE",
"344 572 CURVE SMOOTH",
"465 572 OFFCURVE",
"479 567 OFFCURVE",
"479 520 CURVE SMOOTH",
"479 509 OFFCURVE",
"487 500 OFFCURVE",
"499 500 CURVE SMOOTH",
"600 500 LINE SMOOTH",
"612 500 OFFCURVE",
"621 510 OFFCURVE",
"621 523 CURVE SMOOTH",
"621 670 OFFCURVE",
"569 704 OFFCURVE",
"344 704 CURVE SMOOTH",
"113 704 OFFCURVE",
"60 664 OFFCURVE",
"60 489 CURVE SMOOTH",
"60 211 LINE SMOOTH"
);
},
{
closed = 1;
nodes = (
"202 286 OFFCURVE",
"216 294 OFFCURVE",
"344 294 CURVE SMOOTH",
"469 294 OFFCURVE",
"483 286 OFFCURVE",
"483 211 CURVE SMOOTH",
"483 136 OFFCURVE",
"469 128 OFFCURVE",
"344 128 CURVE SMOOTH",
"216 128 OFFCURVE",
"202 136 OFFCURVE",
"202 211 CURVE SMOOTH"
);
}
);
width = 685;
},
{
associatedMasterId = "644D3D1A-706E-4D36-8EE1-81638A7D248A";
layerId = "0150B180-5377-4C10-8CC3-5B28F9E0CDAC";
name = "Mar 31 18, 23:45";
paths = (
{
closed = 1;
nodes = (
"115 704 OFFCURVE",
"50 655 OFFCURVE",
"50 489 CURVE",
"192 489 LINE",
"192 553 OFFCURVE",
"224 572 OFFCURVE",
"334 572 CURVE SMOOTH",
"441 572 OFFCURVE",
"473 542 OFFCURVE",
"473 474 CURVE SMOOTH",
"473 463 OFFCURVE",
"481 454 OFFCURVE",
"493 454 CURVE SMOOTH",
"594 454 LINE SMOOTH",
"606 454 OFFCURVE",
"615 464 OFFCURVE",
"615 477 CURVE SMOOTH",
"615 644 OFFCURVE",
"551 704 OFFCURVE",
"334 704 CURVE SMOOTH"
);
},
{
closed = 1;
nodes = (
"615 211 LINE",
"613 386 OFFCURVE",
"561 426 OFFCURVE",
"334 426 CURVE SMOOTH",
"103 426 OFFCURVE",
"50 386 OFFCURVE",
"50 211 CURVE",
"192 211 LINE",
"192 286 OFFCURVE",
"206 294 OFFCURVE",
"334 294 CURVE SMOOTH",
"454 294 OFFCURVE",
"468 286 OFFCURVE",
"473 211 CURVE"
);
},
{
closed = 1;
nodes = (
"468 136 OFFCURVE",
"454 128 OFFCURVE",
"334 128 CURVE SMOOTH",
"206 128 OFFCURVE",
"192 136 OFFCURVE",
"192 211 CURVE",
"50 211 LINE",
"50 36 OFFCURVE",
"103 -4 OFFCURVE",
"334 -4 CURVE SMOOTH",
"561 -4 OFFCURVE",
"613 36 OFFCURVE",
"615 211 CURVE",
"473 211 LINE"
);
},
{
closed = 1;
nodes = (
"192 489 LINE",
"50 489 LINE",
"50 211 LINE",
"192 211 LINE"
);
}
);
width = 665;
},
{
associatedMasterId = "644D3D1A-706E-4D36-8EE1-81638A7D248A";
layerId = "B9509255-24B2-43AE-B17B-5A8BBBCF6397";
name = "Apr 1 18, 11:39";
paths = (
{
closed = 1;
nodes = (
"192 211 LINE",
"192 489 LINE SMOOTH",
"192 564 OFFCURVE",
"206 572 OFFCURVE",
"334 572 CURVE SMOOTH",
"455 572 OFFCURVE",
"469 567 OFFCURVE",
"469 520 CURVE SMOOTH",
"469 509 OFFCURVE",
"477 500 OFFCURVE",
"489 500 CURVE SMOOTH",
"590 500 LINE SMOOTH",
"602 500 OFFCURVE",
"611 510 OFFCURVE",
"611 523 CURVE SMOOTH",
"611 670 OFFCURVE",
"559 704 OFFCURVE",
"334 704 CURVE SMOOTH",
"103 704 OFFCURVE",
"50 664 OFFCURVE",
"50 489 CURVE SMOOTH",
"50 211 LINE"
);
},
{
closed = 1;
nodes = (
"50 36 OFFCURVE",
"103 -4 OFFCURVE",
"334 -4 CURVE SMOOTH",
"563 -4 OFFCURVE",
"615 36 OFFCURVE",
"615 211 CURVE SMOOTH",
"615 386 OFFCURVE",
"563 426 OFFCURVE",
"334 426 CURVE SMOOTH",
"231 426 OFFCURVE",
"217 420 OFFCURVE",
"192 362 CURVE",
"192 211 LINE",
"192 286 OFFCURVE",
"206 294 OFFCURVE",
"334 294 CURVE SMOOTH",
"459 294 OFFCURVE",
"473 286 OFFCURVE",
"473 211 CURVE SMOOTH",
"473 136 OFFCURVE",
"459 128 OFFCURVE",
"334 128 CURVE SMOOTH",
"206 128 OFFCURVE",
"192 136 OFFCURVE",
"192 211 CURVE",
"50 211 LINE"
);
}
);
width = 665;
}
);
unicode = 0036;
},
{
glyphname = seven;
lastChange = "2018-04-01 16:08:25 +0000";
layers = (
{
layerId = "DBDE1730-7CB6-4711-8383-3CA3AF6893BF";
paths = (
{
closed = 1;
nodes = (
"60 664 LINE SMOOTH",
"60 660 OFFCURVE",
"62 658 OFFCURVE",
"66 658 CURVE SMOOTH",
"471 658 LINE SMOOTH",
"476 658 OFFCURVE",
"476 655 OFFCURVE",
"474 651 CURVE SMOOTH",
"161 7 LINE SMOOTH",
"159 2 OFFCURVE",
"162 0 OFFCURVE",
"166 0 CURVE SMOOTH",
"201 0 LINE SMOOTH",
"204 0 OFFCURVE",
"207 1 OFFCURVE",
"208 4 CURVE SMOOTH",
"516 638 LINE",
"521 649 OFFCURVE",
"528 664 OFFCURVE",
"528 675 CURVE SMOOTH",
"528 694 LINE SMOOTH",
"528 698 OFFCURVE",
"526 700 OFFCURVE",
"522 700 CURVE SMOOTH",
"66 700 LINE SMOOTH",
"62 700 OFFCURVE",
"60 698 OFFCURVE",
"60 694 CURVE SMOOTH"
);
}
);
width = 588;
},
{
layerId = "644D3D1A-706E-4D36-8EE1-81638A7D248A";
paths = (
{
closed = 1;
nodes = (
"60 583 LINE SMOOTH",
"60 574 OFFCURVE",
"66 568 OFFCURVE",
"75 568 CURVE SMOOTH",
"415 568 LINE SMOOTH",
"424 568 OFFCURVE",
"428 561 OFFCURVE",
"423 550 CURVE SMOOTH",
"162 18 LINE SMOOTH",
"157 8 OFFCURVE",
"162 0 OFFCURVE",
"173 0 CURVE SMOOTH",
"297 0 LINE SMOOTH",
"305 0 OFFCURVE",
"310 3 OFFCURVE",
"314 11 CURVE SMOOTH",
"562 530 LINE SMOOTH",
"578 563 OFFCURVE",
"578 576 OFFCURVE",
"578 603 CURVE SMOOTH",
"578 685 LINE SMOOTH",
"578 694 OFFCURVE",
"572 700 OFFCURVE",
"563 700 CURVE SMOOTH",
"75 700 LINE SMOOTH",
"66 700 OFFCURVE",
"60 694 OFFCURVE",
"60 685 CURVE SMOOTH"
);
}
);
width = 638;
}
);
unicode = 0037;
},
{
glyphname = eight;
lastChange = "2018-04-01 14:39:56 +0000";
layers = (
{
layerId = "DBDE1730-7CB6-4711-8383-3CA3AF6893BF";
paths = (
{
closed = 1;
nodes = (
"440 362 OFFCURVE",
"522 431 OFFCURVE",
"522 534 CURVE SMOOTH",
"522 637 OFFCURVE",
"440 706 OFFCURVE",
"316 706 CURVE SMOOTH",
"192 706 OFFCURVE",
"110 637 OFFCURVE",
"110 534 CURVE SMOOTH",
"110 431 OFFCURVE",
"192 362 OFFCURVE",
"316 362 CURVE SMOOTH"
);
},
{
closed = 1;
nodes = (
"221 404 OFFCURVE",
"158 456 OFFCURVE",
"158 534 CURVE SMOOTH",
"158 612 OFFCURVE",
"221 664 OFFCURVE",
"316 664 CURVE SMOOTH",
"411 664 OFFCURVE",
"474 612 OFFCURVE",
"474 534 CURVE SMOOTH",
"474 456 OFFCURVE",
"411 404 OFFCURVE",
"316 404 CURVE SMOOTH"
);
},
{
closed = 1;
nodes = (
"458 -6 OFFCURVE",
"552 72 OFFCURVE",
"552 189 CURVE SMOOTH",
"552 318 OFFCURVE",
"458 404 OFFCURVE",
"316 404 CURVE SMOOTH",
"174 404 OFFCURVE",
"80 318 OFFCURVE",
"80 189 CURVE SMOOTH",
"80 72 OFFCURVE",
"174 -6 OFFCURVE",
"316 -6 CURVE SMOOTH"
);
},
{
closed = 1;
nodes = (
"203 36 OFFCURVE",
"128 97 OFFCURVE",
"128 189 CURVE SMOOTH",
"128 293 OFFCURVE",
"203 362 OFFCURVE",
"316 362 CURVE SMOOTH",
"429 362 OFFCURVE",
"504 293 OFFCURVE",
"504 189 CURVE SMOOTH",
"504 97 OFFCURVE",
"429 36 OFFCURVE",
"316 36 CURVE SMOOTH"
);
}
);
width = 632;
},
{
layerId = "644D3D1A-706E-4D36-8EE1-81638A7D248A";
paths = (
{
closed = 1;
nodes = (
"526 336 OFFCURVE",
"596 381 OFFCURVE",
"596 500 CURVE SMOOTH",
"596 663 OFFCURVE",
"548 700 OFFCURVE",
"338 700 CURVE SMOOTH",
"128 700 OFFCURVE",
"80 663 OFFCURVE",
"80 500 CURVE SMOOTH",
"80 381 OFFCURVE",
"150 336 OFFCURVE",
"338 336 CURVE SMOOTH"
);
},
{
closed = 1;
nodes = (
"234 424 OFFCURVE",
"222 432 OFFCURVE",
"222 500 CURVE SMOOTH",
"222 561 OFFCURVE",
"234 568 OFFCURVE",
"338 568 CURVE SMOOTH",
"442 568 OFFCURVE",
"454 561 OFFCURVE",
"454 500 CURVE SMOOTH",
"454 432 OFFCURVE",
"442 424 OFFCURVE",
"338 424 CURVE SMOOTH"
);
},
{
closed = 1;
nodes = (
"564 -4 OFFCURVE",
"616 35 OFFCURVE",
"616 204 CURVE SMOOTH",
"616 329 OFFCURVE",
"541 376 OFFCURVE",
"338 376 CURVE SMOOTH",
"135 376 OFFCURVE",
"60 329 OFFCURVE",
"60 204 CURVE SMOOTH",
"60 35 OFFCURVE",
"112 -4 OFFCURVE",
"338 -4 CURVE SMOOTH"
);
},
{
closed = 1;
nodes = (
"216 128 OFFCURVE",
"202 136 OFFCURVE",
"202 204 CURVE SMOOTH",
"202 283 OFFCURVE",
"216 292 OFFCURVE",
"338 292 CURVE SMOOTH",
"460 292 OFFCURVE",
"474 283 OFFCURVE",
"474 204 CURVE SMOOTH",
"474 136 OFFCURVE",
"460 128 OFFCURVE",
"338 128 CURVE SMOOTH"
);
}
);
width = 676;
}
);
unicode = 0038;
},
{
glyphname = nine;
lastChange = "2018-04-01 16:06:59 +0000";
layers = (
{
layerId = "DBDE1730-7CB6-4711-8383-3CA3AF6893BF";
paths = (
{
closed = 1;
nodes = (
"80 346 OFFCURVE",
"174 256 OFFCURVE",
"316 256 CURVE SMOOTH",
"392 256 OFFCURVE",
"467 307 OFFCURVE",
"504 383 CURVE",
"504 249 LINE SMOOTH",
"504 112 OFFCURVE",
"437 36 OFFCURVE",
"316 36 CURVE SMOOTH",
"213 36 OFFCURVE",
"145 83 OFFCURVE",
"145 153 CURVE SMOOTH",
"145 157 OFFCURVE",
"143 159 OFFCURVE",
"139 159 CURVE SMOOTH",
"106 159 LINE SMOOTH",
"102 159 OFFCURVE",
"100 157 OFFCURVE",
"100 153 CURVE SMOOTH",
"100 58 OFFCURVE",
"186 -6 OFFCURVE",
"316 -6 CURVE SMOOTH",
"466 -6 OFFCURVE",
"549 85 OFFCURVE",
"549 249 CURVE SMOOTH",
"549 481 LINE SMOOTH",
"549 616 OFFCURVE",
"456 706 OFFCURVE",
"316 706 CURVE SMOOTH",
"174 706 OFFCURVE",
"80 616 OFFCURVE",
"80 481 CURVE SMOOTH"
);
},
{
closed = 1;
nodes = (
"128 591 OFFCURVE",
"203 664 OFFCURVE",
"316 664 CURVE SMOOTH",
"429 664 OFFCURVE",
"504 591 OFFCURVE",
"504 481 CURVE SMOOTH",
"504 371 OFFCURVE",
"429 298 OFFCURVE",
"316 298 CURVE SMOOTH",
"203 298 OFFCURVE",
"128 371 OFFCURVE",
"128 481 CURVE SMOOTH"
);
}
);
width = 629;
},
{
layerId = "644D3D1A-706E-4D36-8EE1-81638A7D248A";
paths = (
{
closed = 1;
nodes = (
"60 314 OFFCURVE",
"112 274 OFFCURVE",
"341 274 CURVE SMOOTH",
"444 274 OFFCURVE",
"458 280 OFFCURVE",
"483 338 CURVE",
"483 211 LINE SMOOTH",
"483 136 OFFCURVE",
"469 128 OFFCURVE",
"341 128 CURVE SMOOTH",
"220 128 OFFCURVE",
"206 133 OFFCURVE",
"206 180 CURVE SMOOTH",
"206 191 OFFCURVE",
"198 200 OFFCURVE",
"186 200 CURVE SMOOTH",
"85 200 LINE SMOOTH",
"73 200 OFFCURVE",
"64 190 OFFCURVE",
"64 177 CURVE SMOOTH",
"64 30 OFFCURVE",
"116 -4 OFFCURVE",
"341 -4 CURVE SMOOTH",
"572 -4 OFFCURVE",
"625 36 OFFCURVE",
"625 211 CURVE SMOOTH",
"625 489 LINE SMOOTH",
"625 664 OFFCURVE",
"572 704 OFFCURVE",
"341 704 CURVE SMOOTH",
"112 704 OFFCURVE",
"60 664 OFFCURVE",
"60 489 CURVE SMOOTH"
);
},
{
closed = 1;
nodes = (
"202 564 OFFCURVE",
"216 572 OFFCURVE",
"341 572 CURVE SMOOTH",
"469 572 OFFCURVE",
"483 564 OFFCURVE",
"483 489 CURVE SMOOTH",
"483 414 OFFCURVE",
"469 406 OFFCURVE",
"341 406 CURVE SMOOTH",
"216 406 OFFCURVE",
"202 414 OFFCURVE",
"202 489 CURVE SMOOTH"
);
}
);
width = 685;
},
{
associatedMasterId = "DBDE1730-7CB6-4711-8383-3CA3AF6893BF";
layerId = "C842E078-04F5-4AC7-ADF3-27600824632F";
name = "Apr 1 18, 11:36";
paths = (
{
closed = 1;
nodes = (
"442 276 OFFCURVE",
"532 362 OFFCURVE",
"532 491 CURVE SMOOTH",
"532 620 OFFCURVE",
"442 706 OFFCURVE",
"306 706 CURVE SMOOTH",
"170 706 OFFCURVE",
"80 620 OFFCURVE",
"80 491 CURVE SMOOTH",
"80 362 OFFCURVE",
"170 276 OFFCURVE",
"306 276 CURVE SMOOTH"
);
},
{
closed = 1;
nodes = (
"199 318 OFFCURVE",
"128 387 OFFCURVE",
"128 491 CURVE SMOOTH",
"128 595 OFFCURVE",
"199 664 OFFCURVE",
"306 664 CURVE SMOOTH",
"413 664 OFFCURVE",
"484 595 OFFCURVE",
"484 491 CURVE SMOOTH",
"484 387 OFFCURVE",
"413 318 OFFCURVE",
"306 318 CURVE SMOOTH"
);
},
{
closed = 1;
nodes = (
"484 491 LINE",
"484 229 LINE",
"484 113 OFFCURVE",
"413 36 OFFCURVE",
"306 36 CURVE SMOOTH",
"205 36 OFFCURVE",
"138 81 OFFCURVE",
"138 149 CURVE",
"90 149 LINE",
"90 56 OFFCURVE",
"176 -6 OFFCURVE",
"306 -6 CURVE SMOOTH",
"442 -6 OFFCURVE",
"532 88 OFFCURVE",
"532 229 CURVE",
"532 491 LINE"
);
}
);
width = 600;
},
{
associatedMasterId = "644D3D1A-706E-4D36-8EE1-81638A7D248A";
layerId = "B36BBDA3-FDD1-44CE-8EE8-B5A66691FB16";
name = "Apr 1 18, 11:38";
paths = (
{
closed = 1;
nodes = (
"473 489 LINE",
"473 211 LINE SMOOTH",
"473 136 OFFCURVE",
"459 128 OFFCURVE",
"331 128 CURVE SMOOTH",
"210 128 OFFCURVE",
"196 133 OFFCURVE",
"196 180 CURVE SMOOTH",
"196 191 OFFCURVE",
"188 200 OFFCURVE",
"176 200 CURVE SMOOTH",
"75 200 LINE SMOOTH",
"63 200 OFFCURVE",
"54 190 OFFCURVE",
"54 177 CURVE SMOOTH",
"54 30 OFFCURVE",
"106 -4 OFFCURVE",
"331 -4 CURVE SMOOTH",
"562 -4 OFFCURVE",
"615 36 OFFCURVE",
"615 211 CURVE SMOOTH",
"615 489 LINE"
);
},
{
closed = 1;
nodes = (
"615 664 OFFCURVE",
"562 704 OFFCURVE",
"331 704 CURVE SMOOTH",
"102 704 OFFCURVE",
"50 664 OFFCURVE",
"50 489 CURVE SMOOTH",
"50 314 OFFCURVE",
"102 274 OFFCURVE",
"331 274 CURVE SMOOTH",
"434 274 OFFCURVE",
"448 280 OFFCURVE",
"473 338 CURVE",
"473 489 LINE",
"473 414 OFFCURVE",
"459 406 OFFCURVE",
"331 406 CURVE SMOOTH",
"206 406 OFFCURVE",
"192 414 OFFCURVE",
"192 489 CURVE SMOOTH",
"192 564 OFFCURVE",
"206 572 OFFCURVE",
"331 572 CURVE SMOOTH",
"459 572 OFFCURVE",
"473 564 OFFCURVE",
"473 489 CURVE",
"615 489 LINE"
);
}
);
width = 665;
}
);
unicode = 0039;
},
{
glyphname = colon;
lastChange = "2018-03-31 22:18:40 +0000";
layers = (
{
layerId = "DBDE1730-7CB6-4711-8383-3CA3AF6893BF";
paths = (
{
closed = 1;
nodes = (
"100 111 LINE",
"99 91 OFFCURVE",
"111 79 OFFCURVE",
"131 80 CURVE",
"132 80 LINE",
"152 79 OFFCURVE",
"164 91 OFFCURVE",
"163 111 CURVE",
"163 112 LINE",
"164 132 OFFCURVE",
"152 144 OFFCURVE",
"132 143 CURVE",
"131 143 LINE",
"111 144 OFFCURVE",
"99 132 OFFCURVE",
"100 112 CURVE"
);
},
{
closed = 1;
nodes = (
"100 388 LINE",
"99 368 OFFCURVE",
"111 356 OFFCURVE",
"131 357 CURVE",
"132 357 LINE",
"152 356 OFFCURVE",
"164 368 OFFCURVE",
"163 388 CURVE",
"163 389 LINE",
"164 409 OFFCURVE",
"152 421 OFFCURVE",
"132 420 CURVE",
"131 420 LINE",
"111 421 OFFCURVE",
"99 409 OFFCURVE",
"100 389 CURVE"
);
}
);
width = 263;
},
{
layerId = "644D3D1A-706E-4D36-8EE1-81638A7D248A";
paths = (
{
closed = 1;
nodes = (
"60 74 LINE SMOOTH",
"60 66 OFFCURVE",
"67 59 OFFCURVE",
"75 59 CURVE SMOOTH",
"177 59 LINE SMOOTH",
"185 59 OFFCURVE",
"192 66 OFFCURVE",
"192 74 CURVE SMOOTH",
"192 163 LINE SMOOTH",
"192 171 OFFCURVE",
"185 178 OFFCURVE",
"177 178 CURVE SMOOTH",
"75 178 LINE SMOOTH",
"67 178 OFFCURVE",
"60 171 OFFCURVE",
"60 163 CURVE SMOOTH"
);
},
{
closed = 1;
nodes = (
"60 337 LINE SMOOTH",
"60 329 OFFCURVE",
"67 322 OFFCURVE",
"75 322 CURVE SMOOTH",
"177 322 LINE SMOOTH",
"185 322 OFFCURVE",
"192 329 OFFCURVE",
"192 337 CURVE SMOOTH",
"192 426 LINE SMOOTH",
"192 434 OFFCURVE",
"185 441 OFFCURVE",
"177 441 CURVE SMOOTH",
"75 441 LINE SMOOTH",
"67 441 OFFCURVE",
"60 434 OFFCURVE",
"60 426 CURVE SMOOTH"
);
}
);
width = 252;
}
);
unicode = 003A;
},
